  0
SECTION
  2
HEADER
  9
$ACADVER
  1
AC1012
  9
$DWGCODEPAGE
  3
gb2312
  9
$INSBASE
 10
0.0
 20
0.0
 30
0.0
  9
$EXTMIN
 10
1.000000000000000E+20
 20
1.000000000000000E+20
 30
1.000000000000000E+20
  9
$EXTMAX
 10
-1.000000000000000E+20
 20
-1.000000000000000E+20
 30
-1.000000000000000E+20
  9
$LIMMIN
 10
0.0
 20
0.0
  9
$LIMMAX
 10
420.0
 20
297.0
  9
$ORTHOMODE
 70
     0
  9
$REGENMODE
 70
     1
  9
$FILLMODE
 70
     1
  9
$QTEXTMODE
 70
     0
  9
$MIRRTEXT
 70
     1
  9
$DRAGMODE
 70
     2
  9
$LTSCALE
 40
1.0
  9
$OSMODE
 70
    37
  9
$ATTMODE
 70
     1
  9
$TEXTSIZE
 40
2.5
  9
$TRACEWID
 40
1.0
  9
$TEXTSTYLE
  7
STANDARD
  9
$CLAYER
  8
0
  9
$CELTYPE
  6
BYLAYER
  9
$CECOLOR
 62
   256
  9
$CELTSCALE
 40
1.0
  9
$DELOBJ
 70
     1
  9
$DISPSILH
 70
     0
  9
$DIMSCALE
 40
1.0
  9
$DIMASZ
 40
2.5
  9
$DIMEXO
 40
0.625
  9
$DIMDLI
 40
3.75
  9
$DIMRND
 40
0.0
  9
$DIMDLE
 40
0.0
  9
$DIMEXE
 40
1.25
  9
$DIMTP
 40
0.0
  9
$DIMTM
 40
0.0
  9
$DIMTXT
 40
2.5
  9
$DIMCEN
 40
2.5
  9
$DIMTSZ
 40
0.0
  9
$DIMTOL
 70
     0
  9
$DIMLIM
 70
     0
  9
$DIMTIH
 70
     0
  9
$DIMTOH
 70
     0
  9
$DIMSE1
 70
     0
  9
$DIMSE2
 70
     0
  9
$DIMTAD
 70
     1
  9
$DIMZIN
 70
     8
  9
$DIMBLK
  1

  9
$DIMASO
 70
     1
  9
$DIMSHO
 70
     1
  9
$DIMPOST
  1

  9
$DIMAPOST
  1

  9
$DIMALT
 70
     0
  9
$DIMALTD
 70
     3
  9
$DIMALTF
 40
0.03937007874016
  9
$DIMLFAC
 40
1.0
  9
$DIMTOFL
 70
     1
  9
$DIMTVP
 40
0.0
  9
$DIMTIX
 70
     0
  9
$DIMSOXD
 70
     0
  9
$DIMSAH
 70
     0
  9
$DIMBLK1
  1

  9
$DIMBLK2
  1

  9
$DIMSTYLE
  2
ISO-25
  9
$DIMCLRD
 70
     0
  9
$DIMCLRE
 70
     0
  9
$DIMCLRT
 70
     0
  9
$DIMTFAC
 40
1.0
  9
$DIMGAP
 40
0.625
  9
$DIMJUST
 70
     0
  9
$DIMSD1
 70
     0
  9
$DIMSD2
 70
     0
  9
$DIMTOLJ
 70
     0
  9
$DIMTZIN
 70
     8
  9
$DIMALTZ
 70
     0
  9
$DIMALTTZ
 70
     0
  9
$DIMFIT
 70
     3
  9
$DIMUPT
 70
     0
  9
$DIMUNIT
 70
     2
  9
$DIMDEC
 70
     2
  9
$DIMTDEC
 70
     2
  9
$DIMALTU
 70
     2
  9
$DIMALTTD
 70
     3
  9
$DIMTXSTY
  7
STANDARD
  9
$DIMAUNIT
 70
     0
  9
$LUNITS
 70
     2
  9
$LUPREC
 70
     4
  9
$SKETCHINC
 40
1.0
  9
$FILLETRAD
 40
10.0
  9
$AUNITS
 70
     0
  9
$AUPREC
 70
     0
  9
$MENU
  1
.
  9
$ELEVATION
 40
0.0
  9
$PELEVATION
 40
0.0
  9
$THICKNESS
 40
0.0
  9
$LIMCHECK
 70
     0
  9
$BLIPMODE
 70
     0
  9
$CHAMFERA
 40
10.0
  9
$CHAMFERB
 40
10.0
  9
$CHAMFERC
 40
20.0
  9
$CHAMFERD
 40
0.0
  9
$SKPOLY
 70
     0
  9
$TDCREATE
 40
2453935.933843252
  9
$TDUPDATE
 40
2453935.934398680
  9
$TDINDWG
 40
0.0005563542
  9
$TDUSRTIMER
 40
0.0005562384
  9
$USRTIMER
 70
     1
  9
$ANGBASE
 50
0.0
  9
$ANGDIR
 70
     0
  9
$PDMODE
 70
     0
  9
$PDSIZE
 40
0.0
  9
$PLINEWID
 40
0.0
  9
$COORDS
 70
     1
  9
$SPLFRAME
 70
     0
  9
$SPLINETYPE
 70
     6
  9
$SPLINESEGS
 70
     8
  9
$ATTDIA
 70
     0
  9
$ATTREQ
 70
     1
  9
$HANDLING
 70
 22529
  9
$HANDSEED
  5
4A
  9
$SURFTAB1
 70
     6
  9
$SURFTAB2
 70
     6
  9
$SURFTYPE
 70
     6
  9
$SURFU
 70
     6
  9
$SURFV
 70
     6
  9
$UCSNAME
  2

  9
$UCSORG
 10
0.0
 20
0.0
 30
0.0
  9
$UCSXDIR
 10
1.0
 20
0.0
 30
0.0
  9
$UCSYDIR
 10
0.0
 20
1.0
 30
0.0
  9
$PUCSNAME
  2

  9
$PUCSORG
 10
0.0
 20
0.0
 30
0.0
  9
$PUCSXDIR
 10
1.0
 20
0.0
 30
0.0
  9
$PUCSYDIR
 10
0.0
 20
1.0
 30
0.0
  9
$USERI1
 70
     0
  9
$USERI2
 70
     0
  9
$USERI3
 70
     0
  9
$USERI4
 70
     0
  9
$USERI5
 70
     0
  9
$USERR1
 40
0.0
  9
$USERR2
 40
0.0
  9
$USERR3
 40
0.0
  9
$USERR4
 40
0.0
  9
$USERR5
 40
0.0
  9
$WORLDVIEW
 70
     1
  9
$SHADEDGE
 70
     3
  9
$SHADEDIF
 70
    70
  9
$TILEMODE
 70
     1
  9
$MAXACTVP
 70
    64
  9
$PINSBASE
 10
0.0
 20
0.0
 30
0.0
  9
$PLIMCHECK
 70
     0
  9
$PEXTMIN
 10
1.000000000000000E+20
 20
1.000000000000000E+20
 30
1.000000000000000E+20
  9
$PEXTMAX
 10
-1.000000000000000E+20
 20
-1.000000000000000E+20
 30
-1.000000000000000E+20
  9
$PLIMMIN
 10
0.0
 20
0.0
  9
$PLIMMAX
 10
420.0
 20
297.0
  9
$UNITMODE
 70
     0
  9
$VISRETAIN
 70
     1
  9
$PLINEGEN
 70
     0
  9
$PSLTSCALE
 70
     1
  9
$TREEDEPTH
 70
  3020
  9
$PICKSTYLE
 70
     1
  9
$CMLSTYLE
  2
STANDARD
  9
$CMLJUST
 70
     0
  9
$CMLSCALE
 40
20.0
  9
$SAVEIMAGES
 70
     1
  0
ENDSEC
  0
SECTION
  2
CLASSES
  0
CLASS
  1
ACDBDICTIONARYWDFLT
  2
AcDbDictionaryWithDefault
  3
AutoCAD 2000
 90
    32768
280
     0
281
     0
  0
CLASS
  1
ACDBPLACEHOLDER
  2
AcDbPlaceHolder
  3
AutoCAD 2000
 90
    32768
280
     0
281
     0
  0
CLASS
  1
LAYOUT
  2
AcDbLayout
  3
AutoCAD 2000
 90
    32768
280
     0
281
     0
  0
CLASS
  1
DICTIONARYVAR
  2
AcDbDictionaryVar
  3
AutoCAD 2000
 90
    32768
280
     0
281
     0
  0
CLASS
  1
LONG_TRANSACTION
  2
AcDbLongTransaction
  3
AutoCAD 2000
 90
    32768
280
     0
281
     0
  0
CLASS
  1
LWPOLYLINE
  2
AcDbPolyline
  3
AutoCAD 2000
 90
    32768
280
     0
281
     1
  0
CLASS
  1
HATCH
  2
AcDbHatch
  3
AutoCAD 2000
 90
    32768
280
     0
281
     1
  0
CLASS
  1
XRECORD
  2
AcDbXrecord
  3
AutoCAD 2000
 90
    32768
280
     0
281
     0
  0
ENDSEC
  0
SECTION
  2
TABLES
  0
TABLE
  2
VPORT
  5
8
330
0
100
AcDbSymbolTable
 70
     2
  0
VPORT
  5
43
330
8
100
AcDbSymbolTableRecord
100
AcDbViewportTableRecord
  2
*ACTIVE
 70
     0
 10
0.0
 20
0.0
 11
1.0
 21
1.0
 12
505.3812210517317
 22
257.5500453436709
 13
0.0
 23
0.0
 14
10.0
 24
10.0
 15
10.0
 25
10.0
 16
0.0
 26
0.0
 36
1.0
 17
0.0
 27
0.0
 37
0.0
 40
515.1000906873419
 41
1.962264150943396
 42
50.0
 43
0.0
 44
0.0
 50
0.0
 51
0.0
 71
     0
 72
   100
 73
     1
 74
     3
 75
     0
 76
     0
 77
     0
 78
     0
  0
ENDTAB
  0
TABLE
  2
LTYPE
  5
5
330
0
100
AcDbSymbolTable
 70
     1
  0
LTYPE
  5
14
330
5
100
AcDbSymbolTableRecord
100
AcDbLinetypeTableRecord
  2
BYBLOCK
 70
     0
  3

 72
    65
 73
     0
 40
0.0
  0
LTYPE
  5
15
330
5
100
AcDbSymbolTableRecord
100
AcDbLinetypeTableRecord
  2
BYLAYER
 70
     0
  3

 72
    65
 73
     0
 40
0.0
  0
LTYPE
  5
16
330
5
100
AcDbSymbolTableRecord
100
AcDbLinetypeTableRecord
  2
CONTINUOUS
 70
     0
  3
Solid line
 72
    65
 73
     0
 40
0.0
  0
ENDTAB
  0
TABLE
  2
LAYER
  5
2
330
0
100
AcDbSymbolTable
 70
     1
  0
LAYER
  5
10
330
2
100
AcDbSymbolTableRecord
100
AcDbLayerTableRecord
  2
0
 70
     0
 62
     7
  6
CONTINUOUS
  0
ENDTAB
  0
TABLE
  2
STYLE
  5
3
330
0
100
AcDbSymbolTable
 70
     1
  0
STYLE
  5
11
330
3
100
AcDbSymbolTableRecord
100
AcDbTextStyleTableRecord
  2
STANDARD
 70
     0
 40
0.0
 41
1.0
 50
0.0
 71
     0
 42
2.5
  3
txt
  4

  0
ENDTAB
  0
TABLE
  2
VIEW
  5
6
330
0
100
AcDbSymbolTable
 70
     0
  0
ENDTAB
  0
TABLE
  2
UCS
  5
7
330
0
100
AcDbSymbolTable
 70
     0
  0
ENDTAB
  0
TABLE
  2
APPID
  5
9
330
0
100
AcDbSymbolTable
 70
     1
  0
APPID
  5
12
330
9
100
AcDbSymbolTableRecord
100
AcDbRegAppTableRecord
  2
ACAD
 70
     0
  0
ENDTAB
  0
TABLE
  2
DIMSTYLE
  5
A
330
0
100
AcDbSymbolTable
 70
     1
  0
DIMSTYLE
105
27
330
A
100
AcDbSymbolTableRecord
100
AcDbDimStyleTableRecord
  2
ISO-25
 70
     0
  3

  4

  5

  6

  7

 40
1.0
 41
2.5
 42
0.625
 43
3.75
 44
1.25
 45
0.0
 46
0.0
 47
0.0
 48
0.0
140
2.5
141
2.5
142
0.0
143
0.03937007874016
144
1.0
145
0.0
146
1.0
147
0.625
 71
     0
 72
     0
 73
     0
 74
     0
 75
     0
 76
     0
 77
     1
 78
     8
170
     0
171
     3
172
     1
173
     0
174
     0
175
     0
176
     0
177
     0
178
     0
270
     2
271
     2
272
     2
273
     2
274
     3
340
11
275
     0
280
     0
281
     0
282
     0
283
     0
284
     8
285
     0
286
     0
287
     3
288
     0
  0
ENDTAB
  0
TABLE
  2
BLOCK_RECORD
  5
1
330
0
100
AcDbSymbolTable
 70
     1
  0
BLOCK_RECORD
  5
1F
102
{ACAD_XDICTIONARY
360
46
102
}
330
1
100
AcDbSymbolTableRecord
100
AcDbBlockTableRecord
  2
*MODEL_SPACE
  0
BLOCK_RECORD
  5
1B
102
{ACAD_XDICTIONARY
360
44
102
}
330
1
100
AcDbSymbolTableRecord
100
AcDbBlockTableRecord
  2
*PAPER_SPACE
  0
ENDTAB
  0
ENDSEC
  0
SECTION
  2
BLOCKS
  0
BLOCK
  5
20
330
1F
100
AcDbEntity
  8
0
100
AcDbBlockBegin
  2
*MODEL_SPACE
 70
     0
 10
0.0
 20
0.0
 30
0.0
  3
*MODEL_SPACE
  1

  0
ENDBLK
  5
21
330
1F
100
AcDbEntity
  8
0
100
AcDbBlockEnd
  0
BLOCK
  5
1C
330
1B
100
AcDbEntity
 67
     1
  8
0
100
AcDbBlockBegin
  2
*PAPER_SPACE
 70
     0
 10
0.0
 20
0.0
 30
0.0
  3
*PAPER_SPACE
  1

  0
ENDBLK
  5
1D
330
1B
100
AcDbEntity
 67
     1
  8
0
100
AcDbBlockEnd
  0
ENDSEC
  0
SECTION
  2
ENTITIES
  0
LINE
  5
100
330
1F
100
AcDbEntity
  8
0
  62
7
100
AcDbLine
 10
754.589520
 20
586.417760
 30
0.000000
 11
754.589520
 21
666.417748
 31
0.000000
  0
LINE
  5
101
330
1F
100
AcDbEntity
  8
0
  62
7
100
AcDbLine
 10
754.589520
 20
666.417748
 30
0.000000
 11
796.589530
 21
708.417748
 31
0.000000
  0
LINE
  5
102
330
1F
100
AcDbEntity
  8
0
  62
7
100
AcDbLine
 10
796.589530
 20
708.417748
 30
0.000000
 11
804.589520
 21
708.417748
 31
0.000000
  0
LINE
  5
103
330
1F
100
AcDbEntity
  8
0
  62
7
100
AcDbLine
 10
804.589520
 20
708.417748
 30
0.000000
 11
804.589520
 21
716.417748
 31
0.000000
  0
LINE
  5
104
330
1F
100
AcDbEntity
  8
0
  62
7
100
AcDbLine
 10
804.589520
 20
716.417748
 30
0.000000
 11
796.589530
 21
716.417748
 31
0.000000
  0
LINE
  5
105
330
1F
100
AcDbEntity
  8
0
  62
7
100
AcDbLine
 10
796.589530
 20
716.417748
 30
0.000000
 11
796.589530
 21
726.417758
 31
0.000000
  0
LINE
  5
106
330
1F
100
AcDbEntity
  8
0
  62
7
100
AcDbLine
 10
796.589530
 20
726.417758
 30
0.000000
 11
786.589520
 21
726.417758
 31
0.000000
  0
LINE
  5
107
330
1F
100
AcDbEntity
  8
0
  62
7
100
AcDbLine
 10
786.589520
 20
726.417758
 30
0.000000
 11
786.589520
 21
718.417758
 31
0.000000
  0
LINE
  5
108
330
1F
100
AcDbEntity
  8
0
  62
7
100
AcDbLine
 10
786.589520
 20
718.417758
 30
0.000000
 11
754.589520
 21
686.417748
 31
0.000000
  0
LINE
  5
109
330
1F
100
AcDbEntity
  8
0
  62
7
100
AcDbLine
 10
754.589520
 20
686.417748
 30
0.000000
 11
654.589530
 21
686.417748
 31
0.000000
  0
LINE
  5
110
330
1F
100
AcDbEntity
  8
0
  62
7
100
AcDbLine
 10
654.589530
 20
686.417748
 30
0.000000
 11
622.589530
 21
718.417758
 31
0.000000
  0
LINE
  5
111
330
1F
100
AcDbEntity
  8
0
  62
7
100
AcDbLine
 10
622.589530
 20
718.417758
 30
0.000000
 11
622.589530
 21
726.417758
 31
0.000000
  0
LINE
  5
112
330
1F
100
AcDbEntity
  8
0
  62
7
100
AcDbLine
 10
622.589530
 20
726.417758
 30
0.000000
 11
612.589520
 21
726.417758
 31
0.000000
  0
LINE
  5
113
330
1F
100
AcDbEntity
  8
0
  62
7
100
AcDbLine
 10
612.589520
 20
726.417758
 30
0.000000
 11
612.589520
 21
716.417748
 31
0.000000
  0
LINE
  5
114
330
1F
100
AcDbEntity
  8
0
  62
7
100
AcDbLine
 10
612.589520
 20
716.417748
 30
0.000000
 11
604.589531
 21
716.417748
 31
0.000000
  0
LINE
  5
115
330
1F
100
AcDbEntity
  8
0
  62
7
100
AcDbLine
 10
604.589531
 20
716.417748
 30
0.000000
 11
604.589531
 21
708.417748
 31
0.000000
  0
LINE
  5
116
330
1F
100
AcDbEntity
  8
0
  62
7
100
AcDbLine
 10
604.589531
 20
708.417748
 30
0.000000
 11
612.589520
 21
708.417748
 31
0.000000
  0
LINE
  5
117
330
1F
100
AcDbEntity
  8
0
  62
7
100
AcDbLine
 10
612.589520
 20
708.417748
 30
0.000000
 11
654.589530
 21
666.417748
 31
0.000000
  0
LINE
  5
118
330
1F
100
AcDbEntity
  8
0
  62
7
100
AcDbLine
 10
654.589530
 20
666.417748
 30
0.000000
 11
654.589530
 21
586.417760
 31
0.000000
  0
LINE
  5
119
330
1F
100
AcDbEntity
  8
0
  62
7
100
AcDbLine
 10
654.589530
 20
586.417760
 30
0.000000
 11
612.589520
 21
544.417760
 31
0.000000
  0
LINE
  5
120
330
1F
100
AcDbEntity
  8
0
  62
7
100
AcDbLine
 10
612.589520
 20
544.417760
 30
0.000000
 11
604.589531
 21
544.417760
 31
0.000000
  0
LINE
  5
121
330
1F
100
AcDbEntity
  8
0
  62
7
100
AcDbLine
 10
604.589531
 20
544.417760
 30
0.000000
 11
604.589531
 21
536.417770
 31
0.000000
  0
LINE
  5
122
330
1F
100
AcDbEntity
  8
0
  62
7
100
AcDbLine
 10
604.589531
 20
536.417770
 30
0.000000
 11
612.589520
 21
536.417770
 31
0.000000
  0
LINE
  5
123
330
1F
100
AcDbEntity
  8
0
  62
7
100
AcDbLine
 10
612.589520
 20
536.417770
 30
0.000000
 11
612.589520
 21
526.417760
 31
0.000000
  0
LINE
  5
124
330
1F
100
AcDbEntity
  8
0
  62
7
100
AcDbLine
 10
612.589520
 20
526.417760
 30
0.000000
 11
622.589530
 21
526.417760
 31
0.000000
  0
LINE
  5
125
330
1F
100
AcDbEntity
  8
0
  62
7
100
AcDbLine
 10
622.589530
 20
526.417760
 30
0.000000
 11
622.589530
 21
534.417760
 31
0.000000
  0
LINE
  5
126
330
1F
100
AcDbEntity
  8
0
  62
7
100
AcDbLine
 10
622.589530
 20
534.417760
 30
0.000000
 11
654.589530
 21
566.417760
 31
0.000000
  0
LINE
  5
127
330
1F
100
AcDbEntity
  8
0
  62
7
100
AcDbLine
 10
654.589530
 20
566.417760
 30
0.000000
 11
754.589520
 21
566.417760
 31
0.000000
  0
LINE
  5
128
330
1F
100
AcDbEntity
  8
0
  62
7
100
AcDbLine
 10
754.589520
 20
566.417760
 30
0.000000
 11
786.589520
 21
534.417760
 31
0.000000
  0
LINE
  5
129
330
1F
100
AcDbEntity
  8
0
  62
7
100
AcDbLine
 10
786.589520
 20
534.417760
 30
0.000000
 11
786.589520
 21
526.417760
 31
0.000000
  0
LINE
  5
130
330
1F
100
AcDbEntity
  8
0
  62
7
100
AcDbLine
 10
786.589520
 20
526.417760
 30
0.000000
 11
796.589530
 21
526.417760
 31
0.000000
  0
LINE
  5
131
330
1F
100
AcDbEntity
  8
0
  62
7
100
AcDbLine
 10
796.589530
 20
526.417760
 30
0.000000
 11
796.589530
 21
536.417770
 31
0.000000
  0
LINE
  5
132
330
1F
100
AcDbEntity
  8
0
  62
7
100
AcDbLine
 10
796.589530
 20
536.417770
 30
0.000000
 11
804.589520
 21
536.417770
 31
0.000000
  0
LINE
  5
133
330
1F
100
AcDbEntity
  8
0
  62
7
100
AcDbLine
 10
804.589520
 20
536.417770
 30
0.000000
 11
804.589520
 21
544.417760
 31
0.000000
  0
LINE
  5
134
330
1F
100
AcDbEntity
  8
0
  62
7
100
AcDbLine
 10
804.589520
 20
544.417760
 30
0.000000
 11
796.589530
 21
544.417760
 31
0.000000
  0
LINE
  5
135
330
1F
100
AcDbEntity
  8
0
  62
7
100
AcDbLine
 10
796.589530
 20
544.417760
 30
0.000000
 11
754.589520
 21
586.417760
 31
0.000000
  0
SPLINE
  5
136
330
1F
100
AcDbEntity
  8
0
 62
     5
100
AcDbSpline
210
0.000000
220
0.000000
230
1.0
 70
     8
 71
     3
 72
     8
 73
     4
 42
0.0000000001
 43
0.0000000001
 44
0.0000000001
 12
0.000000
 22
0.000000
 32
0.000000
 13
0.000000
 23
0.000000
 33
0.000000
 40
0.000000
 40
0.000000
 40
0.000000
 40
0.000000
 40
1.000000
 40
1.000000
 40
1.000000
 40
1.000000
 10
683.676344
 20
585.765027
 30
0.000000
 10
683.820545
 20
584.577906
 30
0.000000
 10
683.964746
 20
583.390786
 30
0.000000
 10
684.191451
 20
582.140876
 30
0.000000
  0
SPLINE
  5
137
330
1F
100
AcDbEntity
  8
0
 62
     5
100
AcDbSpline
210
0.000000
220
0.000000
230
1.0
 70
     8
 71
     3
 72
     8
 73
     4
 42
0.0000000001
 43
0.0000000001
 44
0.0000000001
 12
0.000000
 22
0.000000
 32
0.000000
 13
0.000000
 23
0.000000
 33
0.000000
 40
0.000000
 40
0.000000
 40
0.000000
 40
0.000000
 40
1.000000
 40
1.000000
 40
1.000000
 40
1.000000
 10
684.191451
 20
582.140876
 30
0.000000
 10
684.391800
 20
581.036271
 30
0.000000
 10
684.656587
 20
579.882628
 30
0.000000
 10
685.358806
 20
579.123816
 30
0.000000
  0
SPLINE
  5
138
330
1F
100
AcDbEntity
  8
0
 62
     5
100
AcDbSpline
210
0.000000
220
0.000000
230
1.0
 70
     8
 71
     3
 72
     8
 73
     4
 42
0.0000000001
 43
0.0000000001
 44
0.0000000001
 12
0.000000
 22
0.000000
 32
0.000000
 13
0.000000
 23
0.000000
 33
0.000000
 40
0.000000
 40
0.000000
 40
0.000000
 40
0.000000
 40
1.000000
 40
1.000000
 40
1.000000
 40
1.000000
 10
685.358806
 20
579.123816
 30
0.000000
 10
685.884103
 20
578.556186
 30
0.000000
 10
686.654179
 20
578.209495
 30
0.000000
 10
687.424254
 20
577.862805
 30
0.000000
  0
SPLINE
  5
139
330
1F
100
AcDbEntity
  8
0
 62
     5
100
AcDbSpline
210
0.000000
220
0.000000
230
1.0
 70
     8
 71
     3
 72
     8
 73
     4
 42
0.0000000001
 43
0.0000000001
 44
0.0000000001
 12
0.000000
 22
0.000000
 32
0.000000
 13
0.000000
 23
0.000000
 33
0.000000
 40
0.000000
 40
0.000000
 40
0.000000
 40
0.000000
 40
1.000000
 40
1.000000
 40
1.000000
 40
1.000000
 10
687.424254
 20
577.862805
 30
0.000000
 10
688.082348
 20
577.981207
 30
0.000000
 10
688.740441
 20
578.099610
 30
0.000000
 10
689.290686
 20
578.411362
 30
0.000000
  0
SPLINE
  5
140
330
1F
100
AcDbEntity
  8
0
 62
     5
100
AcDbSpline
210
0.000000
220
0.000000
230
1.0
 70
     8
 71
     3
 72
     8
 73
     4
 42
0.0000000001
 43
0.0000000001
 44
0.0000000001
 12
0.000000
 22
0.000000
 32
0.000000
 13
0.000000
 23
0.000000
 33
0.000000
 40
0.000000
 40
0.000000
 40
0.000000
 40
0.000000
 40
1.000000
 40
1.000000
 40
1.000000
 40
1.000000
 10
689.290686
 20
578.411362
 30
0.000000
 10
689.766811
 20
578.681120
 30
0.000000
 10
690.162186
 20
579.095647
 30
0.000000
 10
690.509889
 20
579.572027
 30
0.000000
  0
SPLINE
  5
141
330
1F
100
AcDbEntity
  8
0
 62
     5
100
AcDbSpline
210
0.000000
220
0.000000
230
1.0
 70
     8
 71
     3
 72
     8
 73
     4
 42
0.0000000001
 43
0.0000000001
 44
0.0000000001
 12
0.000000
 22
0.000000
 32
0.000000
 13
0.000000
 23
0.000000
 33
0.000000
 40
0.000000
 40
0.000000
 40
0.000000
 40
0.000000
 40
1.000000
 40
1.000000
 40
1.000000
 40
1.000000
 10
690.509889
 20
579.572027
 30
0.000000
 10
690.743865
 20
579.892594
 30
0.000000
 10
690.956254
 20
580.241169
 30
0.000000
 10
690.946394
 20
580.617295
 30
0.000000
  0
SPLINE
  5
142
330
1F
100
AcDbEntity
  8
0
 62
     5
100
AcDbSpline
210
0.000000
220
0.000000
230
1.0
 70
     8
 71
     3
 72
     8
 73
     4
 42
0.0000000001
 43
0.0000000001
 44
0.0000000001
 12
0.000000
 22
0.000000
 32
0.000000
 13
0.000000
 23
0.000000
 33
0.000000
 40
0.000000
 40
0.000000
 40
0.000000
 40
0.000000
 40
1.000000
 40
1.000000
 40
1.000000
 40
1.000000
 10
690.946394
 20
580.617295
 30
0.000000
 10
690.944631
 20
580.684533
 30
0.000000
 10
690.935766
 20
580.752653
 30
0.000000
 10
690.913784
 20
580.817150
 30
0.000000
  0
SPLINE
  5
143
330
1F
100
AcDbEntity
  8
0
 62
     5
100
AcDbSpline
210
0.000000
220
0.000000
230
1.0
 70
     8
 71
     3
 72
     8
 73
     4
 42
0.0000000001
 43
0.0000000001
 44
0.0000000001
 12
0.000000
 22
0.000000
 32
0.000000
 13
0.000000
 23
0.000000
 33
0.000000
 40
0.000000
 40
0.000000
 40
0.000000
 40
0.000000
 40
1.000000
 40
1.000000
 40
1.000000
 40
1.000000
 10
690.913784
 20
580.817150
 30
0.000000
 10
690.891024
 20
580.883929
 30
0.000000
 10
690.854203
 20
580.946825
 30
0.000000
 10
690.805914
 20
580.996936
 30
0.000000
  0
SPLINE
  5
144
330
1F
100
AcDbEntity
  8
0
 62
     5
100
AcDbSpline
210
0.000000
220
0.000000
230
1.0
 70
     8
 71
     3
 72
     8
 73
     4
 42
0.0000000001
 43
0.0000000001
 44
0.0000000001
 12
0.000000
 22
0.000000
 32
0.000000
 13
0.000000
 23
0.000000
 33
0.000000
 40
0.000000
 40
0.000000
 40
0.000000
 40
0.000000
 40
1.000000
 40
1.000000
 40
1.000000
 40
1.000000
 10
690.805914
 20
580.996936
 30
0.000000
 10
690.750074
 20
581.054882
 30
0.000000
 10
690.678899
 20
581.095732
 30
0.000000
 10
690.607724
 20
581.136583
 30
0.000000
  0
SPLINE
  5
145
330
1F
100
AcDbEntity
  8
0
 62
     5
100
AcDbSpline
210
0.000000
220
0.000000
230
1.0
 70
     8
 71
     3
 72
     8
 73
     4
 42
0.0000000001
 43
0.0000000001
 44
0.0000000001
 12
0.000000
 22
0.000000
 32
0.000000
 13
0.000000
 23
0.000000
 33
0.000000
 40
0.000000
 40
0.000000
 40
0.000000
 40
0.000000
 40
1.000000
 40
1.000000
 40
1.000000
 40
1.000000
 10
690.607724
 20
581.136583
 30
0.000000
 10
690.445410
 20
580.939320
 30
0.000000
 10
690.283095
 20
580.742057
 30
0.000000
 10
690.095959
 20
580.572975
 30
0.000000
  0
SPLINE
  5
146
330
1F
100
AcDbEntity
  8
0
 62
     5
100
AcDbSpline
210
0.000000
220
0.000000
230
1.0
 70
     8
 71
     3
 72
     8
 73
     4
 42
0.0000000001
 43
0.0000000001
 44
0.0000000001
 12
0.000000
 22
0.000000
 32
0.000000
 13
0.000000
 23
0.000000
 33
0.000000
 40
0.000000
 40
0.000000
 40
0.000000
 40
0.000000
 40
1.000000
 40
1.000000
 40
1.000000
 40
1.000000
 10
690.095959
 20
580.572975
 30
0.000000
 10
689.914094
 20
580.408656
 30
0.000000
 10
689.708785
 20
580.270953
 30
0.000000
 10
689.478832
 20
580.164903
 30
0.000000
  0
SPLINE
  5
147
330
1F
100
AcDbEntity
  8
0
 62
     5
100
AcDbSpline
210
0.000000
220
0.000000
230
1.0
 70
     8
 71
     3
 72
     8
 73
     4
 42
0.0000000001
 43
0.0000000001
 44
0.0000000001
 12
0.000000
 22
0.000000
 32
0.000000
 13
0.000000
 23
0.000000
 33
0.000000
 40
0.000000
 40
0.000000
 40
0.000000
 40
0.000000
 40
1.000000
 40
1.000000
 40
1.000000
 40
1.000000
 10
689.478832
 20
580.164903
 30
0.000000
 10
689.276358
 20
580.071525
 30
0.000000
 10
689.054778
 20
580.002686
 30
0.000000
 10
688.846653
 20
580.007695
 30
0.000000
  0
SPLINE
  5
148
330
1F
100
AcDbEntity
  8
0
 62
     5
100
AcDbSpline
210
0.000000
220
0.000000
230
1.0
 70
     8
 71
     3
 72
     8
 73
     4
 42
0.0000000001
 43
0.0000000001
 44
0.0000000001
 12
0.000000
 22
0.000000
 32
0.000000
 13
0.000000
 23
0.000000
 33
0.000000
 40
0.000000
 40
0.000000
 40
0.000000
 40
0.000000
 40
1.000000
 40
1.000000
 40
1.000000
 40
1.000000
 10
688.846653
 20
580.007695
 30
0.000000
 10
688.278795
 20
580.021360
 30
0.000000
 10
687.811115
 20
580.584780
 30
0.000000
 10
687.482791
 20
581.147454
 30
0.000000
  0
SPLINE
  5
149
330
1F
100
AcDbEntity
  8
0
 62
     5
100
AcDbSpline
210
0.000000
220
0.000000
230
1.0
 70
     8
 71
     3
 72
     8
 73
     4
 42
0.0000000001
 43
0.0000000001
 44
0.0000000001
 12
0.000000
 22
0.000000
 32
0.000000
 13
0.000000
 23
0.000000
 33
0.000000
 40
0.000000
 40
0.000000
 40
0.000000
 40
0.000000
 40
1.000000
 40
1.000000
 40
1.000000
 40
1.000000
 10
687.482791
 20
581.147454
 30
0.000000
 10
686.947657
 20
582.064556
 30
0.000000
 10
686.782733
 20
582.979679
 30
0.000000
 10
686.635706
 20
583.917831
 30
0.000000
  0
SPLINE
  5
150
330
1F
100
AcDbEntity
  8
0
 62
     5
100
AcDbSpline
210
0.000000
220
0.000000
230
1.0
 70
     8
 71
     3
 72
     8
 73
     4
 42
0.0000000001
 43
0.0000000001
 44
0.0000000001
 12
0.000000
 22
0.000000
 32
0.000000
 13
0.000000
 23
0.000000
 33
0.000000
 40
0.000000
 40
0.000000
 40
0.000000
 40
0.000000
 40
1.000000
 40
1.000000
 40
1.000000
 40
1.000000
 10
686.635706
 20
583.917831
 30
0.000000
 10
686.460080
 20
585.038472
 30
0.000000
 10
686.309992
 20
586.191972
 30
0.000000
 10
686.159904
 20
587.345472
 30
0.000000
  0
SPLINE
  5
151
330
1F
100
AcDbEntity
  8
0
 62
     5
100
AcDbSpline
210
0.000000
220
0.000000
230
1.0
 70
     8
 71
     3
 72
     8
 73
     4
 42
0.0000000001
 43
0.0000000001
 44
0.0000000001
 12
0.000000
 22
0.000000
 32
0.000000
 13
0.000000
 23
0.000000
 33
0.000000
 40
0.000000
 40
0.000000
 40
0.000000
 40
0.000000
 40
1.000000
 40
1.000000
 40
1.000000
 40
1.000000
 10
686.159904
 20
587.345472
 30
0.000000
 10
686.928819
 20
588.006202
 30
0.000000
 10
687.697734
 20
588.666932
 30
0.000000
 10
688.362488
 20
589.417611
 30
0.000000
  0
SPLINE
  5
152
330
1F
100
AcDbEntity
  8
0
 62
     5
100
AcDbSpline
210
0.000000
220
0.000000
230
1.0
 70
     8
 71
     3
 72
     8
 73
     4
 42
0.0000000001
 43
0.0000000001
 44
0.0000000001
 12
0.000000
 22
0.000000
 32
0.000000
 13
0.000000
 23
0.000000
 33
0.000000
 40
0.000000
 40
0.000000
 40
0.000000
 40
0.000000
 40
1.000000
 40
1.000000
 40
1.000000
 40
1.000000
 10
688.362488
 20
589.417611
 30
0.000000
 10
688.933920
 20
590.062905
 30
0.000000
 10
689.428383
 20
590.774666
 30
0.000000
 10
689.827533
 20
591.565008
 30
0.000000
  0
SPLINE
  5
153
330
1F
100
AcDbEntity
  8
0
 62
     5
100
AcDbSpline
210
0.000000
220
0.000000
230
1.0
 70
     8
 71
     3
 72
     8
 73
     4
 42
0.0000000001
 43
0.0000000001
 44
0.0000000001
 12
0.000000
 22
0.000000
 32
0.000000
 13
0.000000
 23
0.000000
 33
0.000000
 40
0.000000
 40
0.000000
 40
0.000000
 40
0.000000
 40
1.000000
 40
1.000000
 40
1.000000
 40
1.000000
 10
689.827533
 20
591.565008
 30
0.000000
 10
690.167218
 20
592.237606
 30
0.000000
 10
690.437874
 20
592.967117
 30
0.000000
 10
690.359364
 20
593.712405
 30
0.000000
  0
SPLINE
  5
154
330
1F
100
AcDbEntity
  8
0
 62
     5
100
AcDbSpline
210
0.000000
220
0.000000
230
1.0
 70
     8
 71
     3
 72
     8
 73
     4
 42
0.0000000001
 43
0.0000000001
 44
0.0000000001
 12
0.000000
 22
0.000000
 32
0.000000
 13
0.000000
 23
0.000000
 33
0.000000
 40
0.000000
 40
0.000000
 40
0.000000
 40
0.000000
 40
1.000000
 40
1.000000
 40
1.000000
 40
1.000000
 10
690.359364
 20
593.712405
 30
0.000000
 10
690.332365
 20
593.968703
 30
0.000000
 10
690.264074
 20
594.226867
 30
0.000000
 10
690.121043
 20
594.434895
 30
0.000000
  0
SPLINE
  5
155
330
1F
100
AcDbEntity
  8
0
 62
     5
100
AcDbSpline
210
0.000000
220
0.000000
230
1.0
 70
     8
 71
     3
 72
     8
 73
     4
 42
0.0000000001
 43
0.0000000001
 44
0.0000000001
 12
0.000000
 22
0.000000
 32
0.000000
 13
0.000000
 23
0.000000
 33
0.000000
 40
0.000000
 40
0.000000
 40
0.000000
 40
0.000000
 40
1.000000
 40
1.000000
 40
1.000000
 40
1.000000
 10
690.121043
 20
594.434895
 30
0.000000
 10
689.980431
 20
594.639404
 30
0.000000
 10
689.767586
 20
594.795458
 30
0.000000
 10
689.536531
 20
594.901502
 30
0.000000
  0
SPLINE
  5
156
330
1F
100
AcDbEntity
  8
0
 62
     5
100
AcDbSpline
210
0.000000
220
0.000000
230
1.0
 70
     8
 71
     3
 72
     8
 73
     4
 42
0.0000000001
 43
0.0000000001
 44
0.0000000001
 12
0.000000
 22
0.000000
 32
0.000000
 13
0.000000
 23
0.000000
 33
0.000000
 40
0.000000
 40
0.000000
 40
0.000000
 40
0.000000
 40
1.000000
 40
1.000000
 40
1.000000
 40
1.000000
 10
689.536531
 20
594.901502
 30
0.000000
 10
689.303768
 20
595.008330
 30
0.000000
 10
689.052524
 20
595.064406
 30
0.000000
 10
688.801503
 20
595.067072
 30
0.000000
  0
SPLINE
  5
157
330
1F
100
AcDbEntity
  8
0
 62
     5
100
AcDbSpline
210
0.000000
220
0.000000
230
1.0
 70
     8
 71
     3
 72
     8
 73
     4
 42
0.0000000001
 43
0.0000000001
 44
0.0000000001
 12
0.000000
 22
0.000000
 32
0.000000
 13
0.000000
 23
0.000000
 33
0.000000
 40
0.000000
 40
0.000000
 40
0.000000
 40
0.000000
 40
1.000000
 40
1.000000
 40
1.000000
 40
1.000000
 10
688.801503
 20
595.067072
 30
0.000000
 10
688.707450
 20
595.068072
 30
0.000000
 10
688.613428
 20
595.061573
 30
0.000000
 10
688.519695
 20
595.050347
 30
0.000000
  0
SPLINE
  5
158
330
1F
100
AcDbEntity
  8
0
 62
     5
100
AcDbSpline
210
0.000000
220
0.000000
230
1.0
 70
     8
 71
     3
 72
     8
 73
     4
 42
0.0000000001
 43
0.0000000001
 44
0.0000000001
 12
0.000000
 22
0.000000
 32
0.000000
 13
0.000000
 23
0.000000
 33
0.000000
 40
0.000000
 40
0.000000
 40
0.000000
 40
0.000000
 40
1.000000
 40
1.000000
 40
1.000000
 40
1.000000
 10
688.519695
 20
595.050347
 30
0.000000
 10
688.422608
 20
595.038720
 30
0.000000
 10
688.325832
 20
595.022021
 30
0.000000
 10
688.232872
 20
594.993483
 30
0.000000
  0
SPLINE
  5
159
330
1F
100
AcDbEntity
  8
0
 62
     5
100
AcDbSpline
210
0.000000
220
0.000000
230
1.0
 70
     8
 71
     3
 72
     8
 73
     4
 42
0.0000000001
 43
0.0000000001
 44
0.0000000001
 12
0.000000
 22
0.000000
 32
0.000000
 13
0.000000
 23
0.000000
 33
0.000000
 40
0.000000
 40
0.000000
 40
0.000000
 40
0.000000
 40
1.000000
 40
1.000000
 40
1.000000
 40
1.000000
 10
688.232872
 20
594.993483
 30
0.000000
 10
688.141497
 20
594.965432
 30
0.000000
 10
688.053811
 20
594.925941
 30
0.000000
 10
687.966124
 20
594.886450
 30
0.000000
  0
SPLINE
  5
160
330
1F
100
AcDbEntity
  8
0
 62
     5
100
AcDbSpline
210
0.000000
220
0.000000
230
1.0
 70
     8
 71
     3
 72
     8
 73
     4
 42
0.0000000001
 43
0.0000000001
 44
0.0000000001
 12
0.000000
 22
0.000000
 32
0.000000
 13
0.000000
 23
0.000000
 33
0.000000
 40
0.000000
 40
0.000000
 40
0.000000
 40
0.000000
 40
1.000000
 40
1.000000
 40
1.000000
 40
1.000000
 10
687.966124
 20
594.886450
 30
0.000000
 10
687.747000
 20
593.956446
 30
0.000000
 10
687.527875
 20
593.026442
 30
0.000000
 10
687.222729
 20
592.110220
 30
0.000000
  0
SPLINE
  5
161
330
1F
100
AcDbEntity
  8
0
 62
     5
100
AcDbSpline
210
0.000000
220
0.000000
230
1.0
 70
     8
 71
     3
 72
     8
 73
     4
 42
0.0000000001
 43
0.0000000001
 44
0.0000000001
 12
0.000000
 22
0.000000
 32
0.000000
 13
0.000000
 23
0.000000
 33
0.000000
 40
0.000000
 40
0.000000
 40
0.000000
 40
0.000000
 40
1.000000
 40
1.000000
 40
1.000000
 40
1.000000
 10
687.222729
 20
592.110220
 30
0.000000
 10
686.886861
 20
591.101757
 30
0.000000
 10
686.446778
 20
590.109991
 30
0.000000
 10
685.812036
 20
589.278799
 30
0.000000
  0
SPLINE
  5
162
330
1F
100
AcDbEntity
  8
0
 62
     5
100
AcDbSpline
210
0.000000
220
0.000000
230
1.0
 70
     8
 71
     3
 72
     8
 73
     4
 42
0.0000000001
 43
0.0000000001
 44
0.0000000001
 12
0.000000
 22
0.000000
 32
0.000000
 13
0.000000
 23
0.000000
 33
0.000000
 40
0.000000
 40
0.000000
 40
0.000000
 40
0.000000
 40
1.000000
 40
1.000000
 40
1.000000
 40
1.000000
 10
685.812036
 20
589.278799
 30
0.000000
 10
685.134924
 20
588.392125
 30
0.000000
 10
684.236299
 20
587.688176
 30
0.000000
 10
683.337674
 20
586.984227
 30
0.000000
  0
LINE
  5
163
330
1F
100
AcDbEntity
  8
0
  62
5
100
AcDbLine
 10
683.337674
 20
586.984227
 30
0.000000
 11
682.795814
 21
586.803605
 31
0.000000
  0
LINE
  5
164
330
1F
100
AcDbEntity
  8
0
  62
5
100
AcDbLine
 10
682.795814
 20
586.803605
 30
0.000000
 11
684.263364
 21
593.734983
 31
0.000000
  0
LINE
  5
165
330
1F
100
AcDbEntity
  8
0
  62
5
100
AcDbLine
 10
684.263364
 20
593.734983
 30
0.000000
 11
684.466564
 21
593.734983
 31
0.000000
  0
SPLINE
  5
166
330
1F
100
AcDbEntity
  8
0
 62
     5
100
AcDbSpline
210
0.000000
220
0.000000
230
1.0
 70
     8
 71
     3
 72
     8
 73
     4
 42
0.0000000001
 43
0.0000000001
 44
0.0000000001
 12
0.000000
 22
0.000000
 32
0.000000
 13
0.000000
 23
0.000000
 33
0.000000
 40
0.000000
 40
0.000000
 40
0.000000
 40
0.000000
 40
1.000000
 40
1.000000
 40
1.000000
 40
1.000000
 10
684.466564
 20
593.734983
 30
0.000000
 10
684.621972
 20
593.760992
 30
0.000000
 10
684.777380
 20
593.787001
 30
0.000000
 10
684.902234
 20
593.867942
 30
0.000000
  0
SPLINE
  5
167
330
1F
100
AcDbEntity
  8
0
 62
     5
100
AcDbSpline
210
0.000000
220
0.000000
230
1.0
 70
     8
 71
     3
 72
     8
 73
     4
 42
0.0000000001
 43
0.0000000001
 44
0.0000000001
 12
0.000000
 22
0.000000
 32
0.000000
 13
0.000000
 23
0.000000
 33
0.000000
 40
0.000000
 40
0.000000
 40
0.000000
 40
0.000000
 40
1.000000
 40
1.000000
 40
1.000000
 40
1.000000
 10
684.902234
 20
593.867942
 30
0.000000
 10
685.017963
 20
593.942967
 30
0.000000
 10
685.107440
 20
594.065190
 30
0.000000
 10
685.167317
 20
594.196574
 30
0.000000
  0
SPLINE
  5
168
330
1F
100
AcDbEntity
  8
0
 62
     5
100
AcDbSpline
210
0.000000
220
0.000000
230
1.0
 70
     8
 71
     3
 72
     8
 73
     4
 42
0.0000000001
 43
0.0000000001
 44
0.0000000001
 12
0.000000
 22
0.000000
 32
0.000000
 13
0.000000
 23
0.000000
 33
0.000000
 40
0.000000
 40
0.000000
 40
0.000000
 40
0.000000
 40
1.000000
 40
1.000000
 40
1.000000
 40
1.000000
 10
685.167317
 20
594.196574
 30
0.000000
 10
685.228070
 20
594.329878
 30
0.000000
 10
685.258352
 20
594.472614
 30
0.000000
 10
685.256794
 20
594.615517
 30
0.000000
  0
SPLINE
  5
169
330
1F
100
AcDbEntity
  8
0
 62
     5
100
AcDbSpline
210
0.000000
220
0.000000
230
1.0
 70
     8
 71
     3
 72
     8
 73
     4
 42
0.0000000001
 43
0.0000000001
 44
0.0000000001
 12
0.000000
 22
0.000000
 32
0.000000
 13
0.000000
 23
0.000000
 33
0.000000
 40
0.000000
 40
0.000000
 40
0.000000
 40
0.000000
 40
1.000000
 40
1.000000
 40
1.000000
 40
1.000000
 10
685.256794
 20
594.615517
 30
0.000000
 10
685.255977
 20
594.690469
 30
0.000000
 10
685.246400
 20
594.765468
 30
0.000000
 10
685.225020
 20
594.837950
 30
0.000000
  0
SPLINE
  5
170
330
1F
100
AcDbEntity
  8
0
 62
     5
100
AcDbSpline
210
0.000000
220
0.000000
230
1.0
 70
     8
 71
     3
 72
     8
 73
     4
 42
0.0000000001
 43
0.0000000001
 44
0.0000000001
 12
0.000000
 22
0.000000
 32
0.000000
 13
0.000000
 23
0.000000
 33
0.000000
 40
0.000000
 40
0.000000
 40
0.000000
 40
0.000000
 40
1.000000
 40
1.000000
 40
1.000000
 40
1.000000
 10
685.225020
 20
594.837950
 30
0.000000
 10
685.203456
 20
594.911055
 30
0.000000
 10
685.169883
 20
594.981601
 30
0.000000
 10
685.123004
 20
595.040313
 30
0.000000
  0
SPLINE
  5
171
330
1F
100
AcDbEntity
  8
0
 62
     5
100
AcDbSpline
210
0.000000
220
0.000000
230
1.0
 70
     8
 71
     3
 72
     8
 73
     4
 42
0.0000000001
 43
0.0000000001
 44
0.0000000001
 12
0.000000
 22
0.000000
 32
0.000000
 13
0.000000
 23
0.000000
 33
0.000000
 40
0.000000
 40
0.000000
 40
0.000000
 40
0.000000
 40
1.000000
 40
1.000000
 40
1.000000
 40
1.000000
 10
685.123004
 20
595.040313
 30
0.000000
 10
685.072524
 20
595.103536
 30
0.000000
 10
685.006614
 20
595.153037
 30
0.000000
 10
684.940704
 20
595.202539
 30
0.000000
  0
SPLINE
  5
172
330
1F
100
AcDbEntity
  8
0
 62
     5
100
AcDbSpline
210
0.000000
220
0.000000
230
1.0
 70
     8
 71
     3
 72
     8
 73
     4
 42
0.0000000001
 43
0.0000000001
 44
0.0000000001
 12
0.000000
 22
0.000000
 32
0.000000
 13
0.000000
 23
0.000000
 33
0.000000
 40
0.000000
 40
0.000000
 40
0.000000
 40
0.000000
 40
1.000000
 40
1.000000
 40
1.000000
 40
1.000000
 10
684.940704
 20
595.202539
 30
0.000000
 10
684.522422
 20
595.132248
 30
0.000000
 10
684.104140
 20
595.061957
 30
0.000000
 10
683.690560
 20
595.078779
 30
0.000000
  0
SPLINE
  5
173
330
1F
100
AcDbEntity
  8
0
 62
     5
100
AcDbSpline
210
0.000000
220
0.000000
230
1.0
 70
     8
 71
     3
 72
     8
 73
     4
 42
0.0000000001
 43
0.0000000001
 44
0.0000000001
 12
0.000000
 22
0.000000
 32
0.000000
 13
0.000000
 23
0.000000
 33
0.000000
 40
0.000000
 40
0.000000
 40
0.000000
 40
0.000000
 40
1.000000
 40
1.000000
 40
1.000000
 40
1.000000
 10
683.690560
 20
595.078779
 30
0.000000
 10
683.132356
 20
595.101483
 30
0.000000
 10
682.582717
 20
595.282878
 30
0.000000
 10
682.029004
 20
595.416610
 30
0.000000
  0
SPLINE
  5
174
330
1F
100
AcDbEntity
  8
0
 62
     5
100
AcDbSpline
210
0.000000
220
0.000000
230
1.0
 70
     8
 71
     3
 72
     8
 73
     4
 42
0.0000000001
 43
0.0000000001
 44
0.0000000001
 12
0.000000
 22
0.000000
 32
0.000000
 13
0.000000
 23
0.000000
 33
0.000000
 40
0.000000
 40
0.000000
 40
0.000000
 40
0.000000
 40
1.000000
 40
1.000000
 40
1.000000
 40
1.000000
 10
682.029004
 20
595.416610
 30
0.000000
 10
681.419179
 20
595.563893
 30
0.000000
 10
680.804412
 20
595.653366
 30
0.000000
 10
680.176794
 20
595.654095
 30
0.000000
  0
SPLINE
  5
175
330
1F
100
AcDbEntity
  8
0
 62
     5
100
AcDbSpline
210
0.000000
220
0.000000
230
1.0
 70
     8
 71
     3
 72
     8
 73
     4
 42
0.0000000001
 43
0.0000000001
 44
0.0000000001
 12
0.000000
 22
0.000000
 32
0.000000
 13
0.000000
 23
0.000000
 33
0.000000
 40
0.000000
 40
0.000000
 40
0.000000
 40
0.000000
 40
1.000000
 40
1.000000
 40
1.000000
 40
1.000000
 10
680.176794
 20
595.654095
 30
0.000000
 10
679.434931
 20
595.654956
 30
0.000000
 10
678.675112
 20
595.531827
 30
0.000000
 10
678.021031
 20
595.179961
 30
0.000000
  0
SPLINE
  5
176
330
1F
100
AcDbEntity
  8
0
 62
     5
100
AcDbSpline
210
0.000000
220
0.000000
230
1.0
 70
     8
 71
     3
 72
     8
 73
     4
 42
0.0000000001
 43
0.0000000001
 44
0.0000000001
 12
0.000000
 22
0.000000
 32
0.000000
 13
0.000000
 23
0.000000
 33
0.000000
 40
0.000000
 40
0.000000
 40
0.000000
 40
0.000000
 40
1.000000
 40
1.000000
 40
1.000000
 40
1.000000
 10
678.021031
 20
595.179961
 30
0.000000
 10
677.525528
 20
594.913403
 30
0.000000
 10
677.090706
 20
594.515576
 30
0.000000
 10
676.808517
 20
594.028494
 30
0.000000
  0
SPLINE
  5
177
330
1F
100
AcDbEntity
  8
0
 62
     5
100
AcDbSpline
210
0.000000
220
0.000000
230
1.0
 70
     8
 71
     3
 72
     8
 73
     4
 42
0.0000000001
 43
0.0000000001
 44
0.0000000001
 12
0.000000
 22
0.000000
 32
0.000000
 13
0.000000
 23
0.000000
 33
0.000000
 40
0.000000
 40
0.000000
 40
0.000000
 40
0.000000
 40
1.000000
 40
1.000000
 40
1.000000
 40
1.000000
 10
676.808517
 20
594.028494
 30
0.000000
 10
676.560071
 20
593.599657
 30
0.000000
 10
676.429937
 20
593.101635
 30
0.000000
 10
676.428874
 20
592.606094
 30
0.000000
  0
SPLINE
  5
178
330
1F
100
AcDbEntity
  8
0
 62
     5
100
AcDbSpline
210
0.000000
220
0.000000
230
1.0
 70
     8
 71
     3
 72
     8
 73
     4
 42
0.0000000001
 43
0.0000000001
 44
0.0000000001
 12
0.000000
 22
0.000000
 32
0.000000
 13
0.000000
 23
0.000000
 33
0.000000
 40
0.000000
 40
0.000000
 40
0.000000
 40
0.000000
 40
1.000000
 40
1.000000
 40
1.000000
 40
1.000000
 10
676.428874
 20
592.606094
 30
0.000000
 10
676.428093
 20
592.242535
 30
0.000000
 10
676.496787
 20
591.880311
 30
0.000000
 10
676.647127
 20
591.548284
 30
0.000000
  0
SPLINE
  5
179
330
1F
100
AcDbEntity
  8
0
 62
     5
100
AcDbSpline
210
0.000000
220
0.000000
230
1.0
 70
     8
 71
     3
 72
     8
 73
     4
 42
0.0000000001
 43
0.0000000001
 44
0.0000000001
 12
0.000000
 22
0.000000
 32
0.000000
 13
0.000000
 23
0.000000
 33
0.000000
 40
0.000000
 40
0.000000
 40
0.000000
 40
0.000000
 40
1.000000
 40
1.000000
 40
1.000000
 40
1.000000
 10
676.647127
 20
591.548284
 30
0.000000
 10
676.786424
 20
591.240648
 30
0.000000
 10
676.995813
 20
590.958935
 30
0.000000
 10
677.271780
 20
590.766423
 30
0.000000
  0
SPLINE
  5
180
330
1F
100
AcDbEntity
  8
0
 62
     5
100
AcDbSpline
210
0.000000
220
0.000000
230
1.0
 70
     8
 71
     3
 72
     8
 73
     4
 42
0.0000000001
 43
0.0000000001
 44
0.0000000001
 12
0.000000
 22
0.000000
 32
0.000000
 13
0.000000
 23
0.000000
 33
0.000000
 40
0.000000
 40
0.000000
 40
0.000000
 40
0.000000
 40
1.000000
 40
1.000000
 40
1.000000
 40
1.000000
 10
677.271780
 20
590.766423
 30
0.000000
 10
677.556382
 20
590.567889
 30
0.000000
 10
677.911793
 20
590.464223
 30
0.000000
 10
678.257673
 20
590.461206
 30
0.000000
  0
SPLINE
  5
181
330
1F
100
AcDbEntity
  8
0
 62
     5
100
AcDbSpline
210
0.000000
220
0.000000
230
1.0
 70
     8
 71
     3
 72
     8
 73
     4
 42
0.0000000001
 43
0.0000000001
 44
0.0000000001
 12
0.000000
 22
0.000000
 32
0.000000
 13
0.000000
 23
0.000000
 33
0.000000
 40
0.000000
 40
0.000000
 40
0.000000
 40
0.000000
 40
1.000000
 40
1.000000
 40
1.000000
 40
1.000000
 10
678.257673
 20
590.461206
 30
0.000000
 10
678.364177
 20
590.460276
 30
0.000000
 10
678.469776
 20
590.468890
 30
0.000000
 10
678.574600
 20
590.484619
 30
0.000000
  0
SPLINE
  5
182
330
1F
100
AcDbEntity
  8
0
 62
     5
100
AcDbSpline
210
0.000000
220
0.000000
230
1.0
 70
     8
 71
     3
 72
     8
 73
     4
 42
0.0000000001
 43
0.0000000001
 44
0.0000000001
 12
0.000000
 22
0.000000
 32
0.000000
 13
0.000000
 23
0.000000
 33
0.000000
 40
0.000000
 40
0.000000
 40
0.000000
 40
0.000000
 40
1.000000
 40
1.000000
 40
1.000000
 40
1.000000
 10
678.574600
 20
590.484619
 30
0.000000
 10
678.683533
 20
590.500964
 30
0.000000
 10
678.791628
 20
590.524993
 30
0.000000
 10
678.896544
 20
590.558205
 30
0.000000
  0
SPLINE
  5
183
330
1F
100
AcDbEntity
  8
0
 62
     5
100
AcDbSpline
210
0.000000
220
0.000000
230
1.0
 70
     8
 71
     3
 72
     8
 73
     4
 42
0.0000000001
 43
0.0000000001
 44
0.0000000001
 12
0.000000
 22
0.000000
 32
0.000000
 13
0.000000
 23
0.000000
 33
0.000000
 40
0.000000
 40
0.000000
 40
0.000000
 40
0.000000
 40
1.000000
 40
1.000000
 40
1.000000
 40
1.000000
 10
678.896544
 20
590.558205
 30
0.000000
 10
679.009668
 20
590.594014
 30
0.000000
 10
679.119096
 20
590.640498
 30
0.000000
 10
679.228524
 20
590.686983
 30
0.000000
  0
SPLINE
  5
184
330
1F
100
AcDbEntity
  8
0
 62
     5
100
AcDbSpline
210
0.000000
220
0.000000
230
1.0
 70
     8
 71
     3
 72
     8
 73
     4
 42
0.0000000001
 43
0.0000000001
 44
0.0000000001
 12
0.000000
 22
0.000000
 32
0.000000
 13
0.000000
 23
0.000000
 33
0.000000
 40
0.000000
 40
0.000000
 40
0.000000
 40
0.000000
 40
1.000000
 40
1.000000
 40
1.000000
 40
1.000000
 10
679.228524
 20
590.686983
 30
0.000000
 10
679.143081
 20
590.806760
 30
0.000000
 10
679.057638
 20
590.926538
 30
0.000000
 10
678.991039
 20
591.056590
 30
0.000000
  0
SPLINE
  5
185
330
1F
100
AcDbEntity
  8
0
 62
     5
100
AcDbSpline
210
0.000000
220
0.000000
230
1.0
 70
     8
 71
     3
 72
     8
 73
     4
 42
0.0000000001
 43
0.0000000001
 44
0.0000000001
 12
0.000000
 22
0.000000
 32
0.000000
 13
0.000000
 23
0.000000
 33
0.000000
 40
0.000000
 40
0.000000
 40
0.000000
 40
0.000000
 40
1.000000
 40
1.000000
 40
1.000000
 40
1.000000
 10
678.991039
 20
591.056590
 30
0.000000
 10
678.918796
 20
591.197664
 30
0.000000
 10
678.868727
 20
591.350827
 30
0.000000
 10
678.833828
 20
591.506473
 30
0.000000
  0
SPLINE
  5
186
330
1F
100
AcDbEntity
  8
0
 62
     5
100
AcDbSpline
210
0.000000
220
0.000000
230
1.0
 70
     8
 71
     3
 72
     8
 73
     4
 42
0.0000000001
 43
0.0000000001
 44
0.0000000001
 12
0.000000
 22
0.000000
 32
0.000000
 13
0.000000
 23
0.000000
 33
0.000000
 40
0.000000
 40
0.000000
 40
0.000000
 40
0.000000
 40
1.000000
 40
1.000000
 40
1.000000
 40
1.000000
 10
678.833828
 20
591.506473
 30
0.000000
 10
678.797702
 20
591.667589
 30
0.000000
 10
678.777831
 20
591.831365
 30
0.000000
 10
678.776963
 20
591.996494
 30
0.000000
  0
SPLINE
  5
187
330
1F
100
AcDbEntity
  8
0
 62
     5
100
AcDbSpline
210
0.000000
220
0.000000
230
1.0
 70
     8
 71
     3
 72
     8
 73
     4
 42
0.0000000001
 43
0.0000000001
 44
0.0000000001
 12
0.000000
 22
0.000000
 32
0.000000
 13
0.000000
 23
0.000000
 33
0.000000
 40
0.000000
 40
0.000000
 40
0.000000
 40
0.000000
 40
1.000000
 40
1.000000
 40
1.000000
 40
1.000000
 10
678.776963
 20
591.996494
 30
0.000000
 10
678.775065
 20
592.357807
 30
0.000000
 10
678.864148
 20
592.725596
 30
0.000000
 10
679.046225
 20
593.041762
 30
0.000000
  0
SPLINE
  5
188
330
1F
100
AcDbEntity
  8
0
 62
     5
100
AcDbSpline
210
0.000000
220
0.000000
230
1.0
 70
     8
 71
     3
 72
     8
 73
     4
 42
0.0000000001
 43
0.0000000001
 44
0.0000000001
 12
0.000000
 22
0.000000
 32
0.000000
 13
0.000000
 23
0.000000
 33
0.000000
 40
0.000000
 40
0.000000
 40
0.000000
 40
0.000000
 40
1.000000
 40
1.000000
 40
1.000000
 40
1.000000
 10
679.046225
 20
593.041762
 30
0.000000
 10
679.251628
 20
593.398430
 30
0.000000
 10
679.575378
 20
593.689401
 30
0.000000
 10
679.937632
 20
593.871286
 30
0.000000
  0
SPLINE
  5
189
330
1F
100
AcDbEntity
  8
0
 62
     5
100
AcDbSpline
210
0.000000
220
0.000000
230
1.0
 70
     8
 71
     3
 72
     8
 73
     4
 42
0.0000000001
 43
0.0000000001
 44
0.0000000001
 12
0.000000
 22
0.000000
 32
0.000000
 13
0.000000
 23
0.000000
 33
0.000000
 40
0.000000
 40
0.000000
 40
0.000000
 40
0.000000
 40
1.000000
 40
1.000000
 40
1.000000
 40
1.000000
 10
679.937632
 20
593.871286
 30
0.000000
 10
680.435477
 20
594.121250
 30
0.000000
 10
681.006045
 20
594.165183
 30
0.000000
 10
681.576614
 20
594.209116
 30
0.000000
  0
LINE
  5
190
330
1F
100
AcDbEntity
  8
0
  62
5
100
AcDbLine
 10
681.576614
 20
594.209116
 30
0.000000
 11
681.689504
 21
594.209116
 31
0.000000
  0
LINE
  5
191
330
1F
100
AcDbEntity
  8
0
  62
5
100
AcDbLine
 10
681.689504
 20
594.209116
 30
0.000000
 11
678.054474
 21
578.156316
 31
0.000000
  0
SPLINE
  5
192
330
1F
100
AcDbEntity
  8
0
 62
     5
100
AcDbSpline
210
0.000000
220
0.000000
230
1.0
 70
     8
 71
     3
 72
     8
 73
     4
 42
0.0000000001
 43
0.0000000001
 44
0.0000000001
 12
0.000000
 22
0.000000
 32
0.000000
 13
0.000000
 23
0.000000
 33
0.000000
 40
0.000000
 40
0.000000
 40
0.000000
 40
0.000000
 40
1.000000
 40
1.000000
 40
1.000000
 40
1.000000
 10
678.054474
 20
578.156316
 30
0.000000
 10
678.154175
 20
578.099204
 30
0.000000
 10
678.253875
 20
578.042092
 30
0.000000
 10
678.359696
 20
577.999945
 30
0.000000
  0
SPLINE
  5
193
330
1F
100
AcDbEntity
  8
0
 62
     5
100
AcDbSpline
210
0.000000
220
0.000000
230
1.0
 70
     8
 71
     3
 72
     8
 73
     4
 42
0.0000000001
 43
0.0000000001
 44
0.0000000001
 12
0.000000
 22
0.000000
 32
0.000000
 13
0.000000
 23
0.000000
 33
0.000000
 40
0.000000
 40
0.000000
 40
0.000000
 40
0.000000
 40
1.000000
 40
1.000000
 40
1.000000
 40
1.000000
 10
678.359696
 20
577.999945
 30
0.000000
 10
678.488674
 20
577.948574
 30
0.000000
 10
678.626744
 20
577.919434
 30
0.000000
 10
678.765261
 20
577.898763
 30
0.000000
  0
SPLINE
  5
194
330
1F
100
AcDbEntity
  8
0
 62
     5
100
AcDbSpline
210
0.000000
220
0.000000
230
1.0
 70
     8
 71
     3
 72
     8
 73
     4
 42
0.0000000001
 43
0.0000000001
 44
0.0000000001
 12
0.000000
 22
0.000000
 32
0.000000
 13
0.000000
 23
0.000000
 33
0.000000
 40
0.000000
 40
0.000000
 40
0.000000
 40
0.000000
 40
1.000000
 40
1.000000
 40
1.000000
 40
1.000000
 10
678.765261
 20
577.898763
 30
0.000000
 10
678.926702
 20
577.874670
 30
0.000000
 10
679.088750
 20
577.862081
 30
0.000000
 10
679.251104
 20
577.862805
 30
0.000000
  0
SPLINE
  5
195
330
1F
100
AcDbEntity
  8
0
 62
     5
100
AcDbSpline
210
0.000000
220
0.000000
230
1.0
 70
     8
 71
     3
 72
     8
 73
     4
 42
0.0000000001
 43
0.0000000001
 44
0.0000000001
 12
0.000000
 22
0.000000
 32
0.000000
 13
0.000000
 23
0.000000
 33
0.000000
 40
0.000000
 40
0.000000
 40
0.000000
 40
0.000000
 40
1.000000
 40
1.000000
 40
1.000000
 40
1.000000
 10
679.251104
 20
577.862805
 30
0.000000
 10
679.529744
 20
577.864049
 30
0.000000
 10
679.809288
 20
577.904510
 30
0.000000
 10
680.075608
 20
578.001617
 30
0.000000
  0
SPLINE
  5
196
330
1F
100
AcDbEntity
  8
0
 62
     5
100
AcDbSpline
210
0.000000
220
0.000000
230
1.0
 70
     8
 71
     3
 72
     8
 73
     4
 42
0.0000000001
 43
0.0000000001
 44
0.0000000001
 12
0.000000
 22
0.000000
 32
0.000000
 13
0.000000
 23
0.000000
 33
0.000000
 40
0.000000
 40
0.000000
 40
0.000000
 40
0.000000
 40
1.000000
 40
1.000000
 40
1.000000
 40
1.000000
 10
680.075608
 20
578.001617
 30
0.000000
 10
680.342147
 20
578.098803
 30
0.000000
 10
680.595441
 20
578.252729
 30
0.000000
 10
680.774684
 20
578.461534
 30
0.000000
  0
SPLINE
  5
197
330
1F
100
AcDbEntity
  8
0
 62
     5
100
AcDbSpline
210
0.000000
220
0.000000
230
1.0
 70
     8
 71
     3
 72
     8
 73
     4
 42
0.0000000001
 43
0.0000000001
 44
0.0000000001
 12
0.000000
 22
0.000000
 32
0.000000
 13
0.000000
 23
0.000000
 33
0.000000
 40
0.000000
 40
0.000000
 40
0.000000
 40
0.000000
 40
1.000000
 40
1.000000
 40
1.000000
 40
1.000000
 10
680.774684
 20
578.461534
 30
0.000000
 10
680.976868
 20
578.697065
 30
0.000000
 10
681.084831
 20
579.002424
 30
0.000000
 10
681.192794
 20
579.307783
 30
0.000000
  0
LINE
  5
198
330
1F
100
AcDbEntity
  8
0
  62
5
100
AcDbLine
 10
681.192794
 20
579.307783
 30
0.000000
 11
682.524874
 21
585.606983
 31
0.000000
  0
LINE
  5
199
330
1F
100
AcDbEntity
  8
0
  62
5
100
AcDbLine
 10
682.524874
 20
585.606983
 30
0.000000
 11
683.676344
 21
585.765027
 31
0.000000
  0
SPLINE
  5
200
330
1F
100
AcDbEntity
  8
0
 62
     5
100
AcDbSpline
210
0.000000
220
0.000000
230
1.0
 70
     8
 71
     3
 72
     8
 73
     4
 42
0.0000000001
 43
0.0000000001
 44
0.0000000001
 12
0.000000
 22
0.000000
 32
0.000000
 13
0.000000
 23
0.000000
 33
0.000000
 40
0.000000
 40
0.000000
 40
0.000000
 40
0.000000
 40
1.000000
 40
1.000000
 40
1.000000
 40
1.000000
 10
698.378004
 20
588.790450
 30
0.000000
 10
698.175507
 20
588.940777
 30
0.000000
 10
697.973009
 20
589.091104
 30
0.000000
 10
697.750009
 20
589.204376
 30
0.000000
  0
SPLINE
  5
201
330
1F
100
AcDbEntity
  8
0
 62
     5
100
AcDbSpline
210
0.000000
220
0.000000
230
1.0
 70
     8
 71
     3
 72
     8
 73
     4
 42
0.0000000001
 43
0.0000000001
 44
0.0000000001
 12
0.000000
 22
0.000000
 32
0.000000
 13
0.000000
 23
0.000000
 33
0.000000
 40
0.000000
 40
0.000000
 40
0.000000
 40
0.000000
 40
1.000000
 40
1.000000
 40
1.000000
 40
1.000000
 10
697.750009
 20
589.204376
 30
0.000000
 10
697.510560
 20
589.326004
 30
0.000000
 10
697.247472
 20
589.404908
 30
0.000000
 10
696.981528
 20
589.452731
 30
0.000000
  0
SPLINE
  5
202
330
1F
100
AcDbEntity
  8
0
 62
     5
100
AcDbSpline
210
0.000000
220
0.000000
230
1.0
 70
     8
 71
     3
 72
     8
 73
     4
 42
0.0000000001
 43
0.0000000001
 44
0.0000000001
 12
0.000000
 22
0.000000
 32
0.000000
 13
0.000000
 23
0.000000
 33
0.000000
 40
0.000000
 40
0.000000
 40
0.000000
 40
0.000000
 40
1.000000
 40
1.000000
 40
1.000000
 40
1.000000
 10
696.981528
 20
589.452731
 30
0.000000
 10
696.674389
 20
589.507963
 30
0.000000
 10
696.363442
 20
589.521739
 30
0.000000
 10
696.052494
 20
589.535516
 30
0.000000
  0
SPLINE
  5
203
330
1F
100
AcDbEntity
  8
0
 62
     5
100
AcDbSpline
210
0.000000
220
0.000000
230
1.0
 70
     8
 71
     3
 72
     8
 73
     4
 42
0.0000000001
 43
0.0000000001
 44
0.0000000001
 12
0.000000
 22
0.000000
 32
0.000000
 13
0.000000
 23
0.000000
 33
0.000000
 40
0.000000
 40
0.000000
 40
0.000000
 40
0.000000
 40
1.000000
 40
1.000000
 40
1.000000
 40
1.000000
 10
696.052494
 20
589.535516
 30
0.000000
 10
695.023546
 20
589.251207
 30
0.000000
 10
693.994597
 20
588.966899
 30
0.000000
 10
693.182608
 20
588.370670
 30
0.000000
  0
SPLINE
  5
204
330
1F
100
AcDbEntity
  8
0
 62
     5
100
AcDbSpline
210
0.000000
220
0.000000
230
1.0
 70
     8
 71
     3
 72
     8
 73
     4
 42
0.0000000001
 43
0.0000000001
 44
0.0000000001
 12
0.000000
 22
0.000000
 32
0.000000
 13
0.000000
 23
0.000000
 33
0.000000
 40
0.000000
 40
0.000000
 40
0.000000
 40
0.000000
 40
1.000000
 40
1.000000
 40
1.000000
 40
1.000000
 10
693.182608
 20
588.370670
 30
0.000000
 10
692.249359
 20
587.685403
 30
0.000000
 10
691.602708
 20
586.588097
 30
0.000000
 10
691.140573
 20
585.454793
 30
0.000000
  0
SPLINE
  5
205
330
1F
100
AcDbEntity
  8
0
 62
     5
100
AcDbSpline
210
0.000000
220
0.000000
230
1.0
 70
     8
 71
     3
 72
     8
 73
     4
 42
0.0000000001
 43
0.0000000001
 44
0.0000000001
 12
0.000000
 22
0.000000
 32
0.000000
 13
0.000000
 23
0.000000
 33
0.000000
 40
0.000000
 40
0.000000
 40
0.000000
 40
0.000000
 40
1.000000
 40
1.000000
 40
1.000000
 40
1.000000
 10
691.140573
 20
585.454793
 30
0.000000
 10
690.637169
 20
584.220284
 30
0.000000
 10
690.352705
 20
582.943059
 30
0.000000
 10
690.362894
 20
581.655873
 30
0.000000
  0
SPLINE
  5
206
330
1F
100
AcDbEntity
  8
0
 62
     5
100
AcDbSpline
210
0.000000
220
0.000000
230
1.0
 70
     8
 71
     3
 72
     8
 73
     4
 42
0.0000000001
 43
0.0000000001
 44
0.0000000001
 12
0.000000
 22
0.000000
 32
0.000000
 13
0.000000
 23
0.000000
 33
0.000000
 40
0.000000
 40
0.000000
 40
0.000000
 40
0.000000
 40
1.000000
 40
1.000000
 40
1.000000
 40
1.000000
 10
690.362894
 20
581.655873
 30
0.000000
 10
690.367200
 20
581.111782
 30
0.000000
 10
690.424153
 20
580.565912
 30
0.000000
 10
690.572782
 20
580.030272
 30
0.000000
  0
SPLINE
  5
207
330
1F
100
AcDbEntity
  8
0
 62
     5
100
AcDbSpline
210
0.000000
220
0.000000
230
1.0
 70
     8
 71
     3
 72
     8
 73
     4
 42
0.0000000001
 43
0.0000000001
 44
0.0000000001
 12
0.000000
 22
0.000000
 32
0.000000
 13
0.000000
 23
0.000000
 33
0.000000
 40
0.000000
 40
0.000000
 40
0.000000
 40
0.000000
 40
1.000000
 40
1.000000
 40
1.000000
 40
1.000000
 10
690.572782
 20
580.030272
 30
0.000000
 10
690.728955
 20
579.467449
 30
0.000000
 10
690.986345
 20
578.915922
 30
0.000000
 10
691.409831
 20
578.525087
 30
0.000000
  0
SPLINE
  5
208
330
1F
100
AcDbEntity
  8
0
 62
     5
100
AcDbSpline
210
0.000000
220
0.000000
230
1.0
 70
     8
 71
     3
 72
     8
 73
     4
 42
0.0000000001
 43
0.0000000001
 44
0.0000000001
 12
0.000000
 22
0.000000
 32
0.000000
 13
0.000000
 23
0.000000
 33
0.000000
 40
0.000000
 40
0.000000
 40
0.000000
 40
0.000000
 40
1.000000
 40
1.000000
 40
1.000000
 40
1.000000
 10
691.409831
 20
578.525087
 30
0.000000
 10
691.875738
 20
578.095102
 30
0.000000
 10
692.542682
 20
577.859616
 30
0.000000
 10
693.185114
 20
577.862805
 30
0.000000
  0
SPLINE
  5
209
330
1F
100
AcDbEntity
  8
0
 62
     5
100
AcDbSpline
210
0.000000
220
0.000000
230
1.0
 70
     8
 71
     3
 72
     8
 73
     4
 42
0.0000000001
 43
0.0000000001
 44
0.0000000001
 12
0.000000
 22
0.000000
 32
0.000000
 13
0.000000
 23
0.000000
 33
0.000000
 40
0.000000
 40
0.000000
 40
0.000000
 40
0.000000
 40
1.000000
 40
1.000000
 40
1.000000
 40
1.000000
 10
693.185114
 20
577.862805
 30
0.000000
 10
693.620907
 20
577.864969
 30
0.000000
 10
694.045421
 20
577.976961
 30
0.000000
 10
694.436093
 20
578.157989
 30
0.000000
  0
SPLINE
  5
210
330
1F
100
AcDbEntity
  8
0
 62
     5
100
AcDbSpline
210
0.000000
220
0.000000
230
1.0
 70
     8
 71
     3
 72
     8
 73
     4
 42
0.0000000001
 43
0.0000000001
 44
0.0000000001
 12
0.000000
 22
0.000000
 32
0.000000
 13
0.000000
 23
0.000000
 33
0.000000
 40
0.000000
 40
0.000000
 40
0.000000
 40
0.000000
 40
1.000000
 40
1.000000
 40
1.000000
 40
1.000000
 10
694.436093
 20
578.157989
 30
0.000000
 10
694.863634
 20
578.356100
 30
0.000000
 10
695.250643
 20
578.636891
 30
0.000000
 10
695.591743
 20
578.959919
 30
0.000000
  0
SPLINE
  5
211
330
1F
100
AcDbEntity
  8
0
 62
     5
100
AcDbSpline
210
0.000000
220
0.000000
230
1.0
 70
     8
 71
     3
 72
     8
 73
     4
 42
0.0000000001
 43
0.0000000001
 44
0.0000000001
 12
0.000000
 22
0.000000
 32
0.000000
 13
0.000000
 23
0.000000
 33
0.000000
 40
0.000000
 40
0.000000
 40
0.000000
 40
0.000000
 40
1.000000
 40
1.000000
 40
1.000000
 40
1.000000
 10
695.591743
 20
578.959919
 30
0.000000
 10
695.971391
 20
579.319452
 30
0.000000
 10
696.294168
 20
579.731306
 30
0.000000
 10
696.616944
 20
580.143161
 30
0.000000
  0
SPLINE
  5
212
330
1F
100
AcDbEntity
  8
0
 62
     5
100
AcDbSpline
210
0.000000
220
0.000000
230
1.0
 70
     8
 71
     3
 72
     8
 73
     4
 42
0.0000000001
 43
0.0000000001
 44
0.0000000001
 12
0.000000
 22
0.000000
 32
0.000000
 13
0.000000
 23
0.000000
 33
0.000000
 40
0.000000
 40
0.000000
 40
0.000000
 40
0.000000
 40
1.000000
 40
1.000000
 40
1.000000
 40
1.000000
 10
696.616944
 20
580.143161
 30
0.000000
 10
696.648961
 20
579.652684
 30
0.000000
 10
696.680978
 20
579.162208
 30
0.000000
 10
696.915461
 20
578.759227
 30
0.000000
  0
SPLINE
  5
213
330
1F
100
AcDbEntity
  8
0
 62
     5
100
AcDbSpline
210
0.000000
220
0.000000
230
1.0
 70
     8
 71
     3
 72
     8
 73
     4
 42
0.0000000001
 43
0.0000000001
 44
0.0000000001
 12
0.000000
 22
0.000000
 32
0.000000
 13
0.000000
 23
0.000000
 33
0.000000
 40
0.000000
 40
0.000000
 40
0.000000
 40
0.000000
 40
1.000000
 40
1.000000
 40
1.000000
 40
1.000000
 10
696.915461
 20
578.759227
 30
0.000000
 10
697.089239
 20
578.460571
 30
0.000000
 10
697.374223
 20
578.209972
 30
0.000000
 10
697.695650
 20
578.057644
 30
0.000000
  0
SPLINE
  5
214
330
1F
100
AcDbEntity
  8
0
 62
     5
100
AcDbSpline
210
0.000000
220
0.000000
230
1.0
 70
     8
 71
     3
 72
     8
 73
     4
 42
0.0000000001
 43
0.0000000001
 44
0.0000000001
 12
0.000000
 22
0.000000
 32
0.000000
 13
0.000000
 23
0.000000
 33
0.000000
 40
0.000000
 40
0.000000
 40
0.000000
 40
0.000000
 40
1.000000
 40
1.000000
 40
1.000000
 40
1.000000
 10
697.695650
 20
578.057644
 30
0.000000
 10
698.014076
 20
577.906737
 30
0.000000
 10
698.368269
 20
577.852275
 30
0.000000
 10
698.716674
 20
577.862805
 30
0.000000
  0
SPLINE
  5
215
330
1F
100
AcDbEntity
  8
0
 62
     5
100
AcDbSpline
210
0.000000
220
0.000000
230
1.0
 70
     8
 71
     3
 72
     8
 73
     4
 42
0.0000000001
 43
0.0000000001
 44
0.0000000001
 12
0.000000
 22
0.000000
 32
0.000000
 13
0.000000
 23
0.000000
 33
0.000000
 40
0.000000
 40
0.000000
 40
0.000000
 40
0.000000
 40
1.000000
 40
1.000000
 40
1.000000
 40
1.000000
 10
698.716674
 20
577.862805
 30
0.000000
 10
699.171007
 20
577.876538
 30
0.000000
 10
699.615495
 20
578.000792
 30
0.000000
 10
700.035383
 20
578.176386
 30
0.000000
  0
SPLINE
  5
216
330
1F
100
AcDbEntity
  8
0
 62
     5
100
AcDbSpline
210
0.000000
220
0.000000
230
1.0
 70
     8
 71
     3
 72
     8
 73
     4
 42
0.0000000001
 43
0.0000000001
 44
0.0000000001
 12
0.000000
 22
0.000000
 32
0.000000
 13
0.000000
 23
0.000000
 33
0.000000
 40
0.000000
 40
0.000000
 40
0.000000
 40
0.000000
 40
1.000000
 40
1.000000
 40
1.000000
 40
1.000000
 10
700.035383
 20
578.176386
 30
0.000000
 10
700.529481
 20
578.383013
 30
0.000000
 10
700.989514
 20
578.660732
 30
0.000000
 10
701.409281
 20
578.986677
 30
0.000000
  0
SPLINE
  5
217
330
1F
100
AcDbEntity
  8
0
 62
     5
100
AcDbSpline
210
0.000000
220
0.000000
230
1.0
 70
     8
 71
     3
 72
     8
 73
     4
 42
0.0000000001
 43
0.0000000001
 44
0.0000000001
 12
0.000000
 22
0.000000
 32
0.000000
 13
0.000000
 23
0.000000
 33
0.000000
 40
0.000000
 40
0.000000
 40
0.000000
 40
0.000000
 40
1.000000
 40
1.000000
 40
1.000000
 40
1.000000
 10
701.409281
 20
578.986677
 30
0.000000
 10
701.842293
 20
579.322907
 30
0.000000
 10
702.232459
 20
579.710456
 30
0.000000
 10
702.622624
 20
580.098005
 30
0.000000
  0
SPLINE
  5
218
330
1F
100
AcDbEntity
  8
0
 62
     5
100
AcDbSpline
210
0.000000
220
0.000000
230
1.0
 70
     8
 71
     3
 72
     8
 73
     4
 42
0.0000000001
 43
0.0000000001
 44
0.0000000001
 12
0.000000
 22
0.000000
 32
0.000000
 13
0.000000
 23
0.000000
 33
0.000000
 40
0.000000
 40
0.000000
 40
0.000000
 40
0.000000
 40
1.000000
 40
1.000000
 40
1.000000
 40
1.000000
 10
702.622624
 20
580.098005
 30
0.000000
 10
702.662967
 20
580.151001
 30
0.000000
 10
702.703309
 20
580.203997
 30
0.000000
 10
702.735514
 20
580.261904
 30
0.000000
  0
SPLINE
  5
219
330
1F
100
AcDbEntity
  8
0
 62
     5
100
AcDbSpline
210
0.000000
220
0.000000
230
1.0
 70
     8
 71
     3
 72
     8
 73
     4
 42
0.0000000001
 43
0.0000000001
 44
0.0000000001
 12
0.000000
 22
0.000000
 32
0.000000
 13
0.000000
 23
0.000000
 33
0.000000
 40
0.000000
 40
0.000000
 40
0.000000
 40
0.000000
 40
1.000000
 40
1.000000
 40
1.000000
 40
1.000000
 10
702.735514
 20
580.261904
 30
0.000000
 10
702.764964
 20
580.314856
 30
0.000000
 10
702.787609
 20
580.371915
 30
0.000000
 10
702.803246
 20
580.430819
 30
0.000000
  0
SPLINE
  5
220
330
1F
100
AcDbEntity
  8
0
 62
     5
100
AcDbSpline
210
0.000000
220
0.000000
230
1.0
 70
     8
 71
     3
 72
     8
 73
     4
 42
0.0000000001
 43
0.0000000001
 44
0.0000000001
 12
0.000000
 22
0.000000
 32
0.000000
 13
0.000000
 23
0.000000
 33
0.000000
 40
0.000000
 40
0.000000
 40
0.000000
 40
0.000000
 40
1.000000
 40
1.000000
 40
1.000000
 40
1.000000
 10
702.803246
 20
580.430819
 30
0.000000
 10
702.817463
 20
580.484368
 30
0.000000
 10
702.825888
 20
580.539443
 30
0.000000
 10
702.825824
 20
580.594717
 30
0.000000
  0
SPLINE
  5
221
330
1F
100
AcDbEntity
  8
0
 62
     5
100
AcDbSpline
210
0.000000
220
0.000000
230
1.0
 70
     8
 71
     3
 72
     8
 73
     4
 42
0.0000000001
 43
0.0000000001
 44
0.0000000001
 12
0.000000
 22
0.000000
 32
0.000000
 13
0.000000
 23
0.000000
 33
0.000000
 40
0.000000
 40
0.000000
 40
0.000000
 40
0.000000
 40
1.000000
 40
1.000000
 40
1.000000
 40
1.000000
 10
702.825824
 20
580.594717
 30
0.000000
 10
702.825738
 20
580.668300
 30
0.000000
 10
702.810606
 20
580.742236
 30
0.000000
 10
702.781506
 20
580.810460
 30
0.000000
  0
SPLINE
  5
222
330
1F
100
AcDbEntity
  8
0
 62
     5
100
AcDbSpline
210
0.000000
220
0.000000
230
1.0
 70
     8
 71
     3
 72
     8
 73
     4
 42
0.0000000001
 43
0.0000000001
 44
0.0000000001
 12
0.000000
 22
0.000000
 32
0.000000
 13
0.000000
 23
0.000000
 33
0.000000
 40
0.000000
 40
0.000000
 40
0.000000
 40
0.000000
 40
1.000000
 40
1.000000
 40
1.000000
 40
1.000000
 10
702.781506
 20
580.810460
 30
0.000000
 10
702.751592
 20
580.880592
 30
0.000000
 10
702.706917
 20
580.944688
 30
0.000000
 10
702.651895
 20
580.996100
 30
0.000000
  0
SPLINE
  5
223
330
1F
100
AcDbEntity
  8
0
 62
     5
100
AcDbSpline
210
0.000000
220
0.000000
230
1.0
 70
     8
 71
     3
 72
     8
 73
     4
 42
0.0000000001
 43
0.0000000001
 44
0.0000000001
 12
0.000000
 22
0.000000
 32
0.000000
 13
0.000000
 23
0.000000
 33
0.000000
 40
0.000000
 40
0.000000
 40
0.000000
 40
0.000000
 40
1.000000
 40
1.000000
 40
1.000000
 40
1.000000
 10
702.651895
 20
580.996100
 30
0.000000
 10
702.590515
 20
581.053451
 30
0.000000
 10
702.516260
 20
581.095017
 30
0.000000
 10
702.442004
 20
581.136583
 30
0.000000
  0
SPLINE
  5
224
330
1F
100
AcDbEntity
  8
0
 62
     5
100
AcDbSpline
210
0.000000
220
0.000000
230
1.0
 70
     8
 71
     3
 72
     8
 73
     4
 42
0.0000000001
 43
0.0000000001
 44
0.0000000001
 12
0.000000
 22
0.000000
 32
0.000000
 13
0.000000
 23
0.000000
 33
0.000000
 40
0.000000
 40
0.000000
 40
0.000000
 40
0.000000
 40
1.000000
 40
1.000000
 40
1.000000
 40
1.000000
 10
702.442004
 20
581.136583
 30
0.000000
 10
702.222546
 20
580.945314
 30
0.000000
 10
702.003088
 20
580.754045
 30
0.000000
 10
701.762163
 20
580.593044
 30
0.000000
  0
SPLINE
  5
225
330
1F
100
AcDbEntity
  8
0
 62
     5
100
AcDbSpline
210
0.000000
220
0.000000
230
1.0
 70
     8
 71
     3
 72
     8
 73
     4
 42
0.0000000001
 43
0.0000000001
 44
0.0000000001
 12
0.000000
 22
0.000000
 32
0.000000
 13
0.000000
 23
0.000000
 33
0.000000
 40
0.000000
 40
0.000000
 40
0.000000
 40
0.000000
 40
1.000000
 40
1.000000
 40
1.000000
 40
1.000000
 10
701.762163
 20
580.593044
 30
0.000000
 10
701.504833
 20
580.421080
 30
0.000000
 10
701.223011
 20
580.283646
 30
0.000000
 10
700.931803
 20
580.174937
 30
0.000000
  0
SPLINE
  5
226
330
1F
100
AcDbEntity
  8
0
 62
     5
100
AcDbSpline
210
0.000000
220
0.000000
230
1.0
 70
     8
 71
     3
 72
     8
 73
     4
 42
0.0000000001
 43
0.0000000001
 44
0.0000000001
 12
0.000000
 22
0.000000
 32
0.000000
 13
0.000000
 23
0.000000
 33
0.000000
 40
0.000000
 40
0.000000
 40
0.000000
 40
0.000000
 40
1.000000
 40
1.000000
 40
1.000000
 40
1.000000
 10
700.931803
 20
580.174937
 30
0.000000
 10
700.657235
 20
580.072440
 30
0.000000
 10
700.374322
 20
579.995478
 30
0.000000
 10
700.071344
 20
580.007694
 30
0.000000
  0
SPLINE
  5
227
330
1F
100
AcDbEntity
  8
0
 62
     5
100
AcDbSpline
210
0.000000
220
0.000000
230
1.0
 70
     8
 71
     3
 72
     8
 73
     4
 42
0.0000000001
 43
0.0000000001
 44
0.0000000001
 12
0.000000
 22
0.000000
 32
0.000000
 13
0.000000
 23
0.000000
 33
0.000000
 40
0.000000
 40
0.000000
 40
0.000000
 40
0.000000
 40
1.000000
 40
1.000000
 40
1.000000
 40
1.000000
 10
700.071344
 20
580.007694
 30
0.000000
 10
699.891779
 20
580.014934
 30
0.000000
 10
699.705166
 20
580.053498
 30
0.000000
 10
699.574628
 20
580.159885
 30
0.000000
  0
SPLINE
  5
228
330
1F
100
AcDbEntity
  8
0
 62
     5
100
AcDbSpline
210
0.000000
220
0.000000
230
1.0
 70
     8
 71
     3
 72
     8
 73
     4
 42
0.0000000001
 43
0.0000000001
 44
0.0000000001
 12
0.000000
 22
0.000000
 32
0.000000
 13
0.000000
 23
0.000000
 33
0.000000
 40
0.000000
 40
0.000000
 40
0.000000
 40
0.000000
 40
1.000000
 40
1.000000
 40
1.000000
 40
1.000000
 10
699.574628
 20
580.159885
 30
0.000000
 10
699.428222
 20
580.279205
 30
0.000000
 10
699.352354
 20
580.483840
 30
0.000000
 10
699.318746
 20
580.683355
 30
0.000000
  0
SPLINE
  5
229
330
1F
100
AcDbEntity
  8
0
 62
     5
100
AcDbSpline
210
0.000000
220
0.000000
230
1.0
 70
     8
 71
     3
 72
     8
 73
     4
 42
0.0000000001
 43
0.0000000001
 44
0.0000000001
 12
0.000000
 22
0.000000
 32
0.000000
 13
0.000000
 23
0.000000
 33
0.000000
 40
0.000000
 40
0.000000
 40
0.000000
 40
0.000000
 40
1.000000
 40
1.000000
 40
1.000000
 40
1.000000
 10
699.318746
 20
580.683355
 30
0.000000
 10
699.261186
 20
581.025067
 30
0.000000
 10
699.327595
 20
581.351759
 30
0.000000
 10
699.394004
 20
581.678450
 30
0.000000
  0
LINE
  5
230
330
1F
100
AcDbEntity
  8
0
  62
5
100
AcDbLine
 10
699.394004
 20
581.678450
 30
0.000000
 11
700.974454
 21
589.151694
 31
0.000000
  0
SPLINE
  5
231
330
1F
100
AcDbEntity
  8
0
 62
     5
100
AcDbSpline
210
0.000000
220
0.000000
230
1.0
 70
     8
 71
     3
 72
     8
 73
     4
 42
0.0000000001
 43
0.0000000001
 44
0.0000000001
 12
0.000000
 22
0.000000
 32
0.000000
 13
0.000000
 23
0.000000
 33
0.000000
 40
0.000000
 40
0.000000
 40
0.000000
 40
0.000000
 40
1.000000
 40
1.000000
 40
1.000000
 40
1.000000
 10
700.974454
 20
589.151694
 30
0.000000
 10
700.874602
 20
589.208176
 30
0.000000
 10
700.774750
 20
589.264658
 30
0.000000
 10
700.669232
 20
589.308066
 30
0.000000
  0
SPLINE
  5
232
330
1F
100
AcDbEntity
  8
0
 62
     5
100
AcDbSpline
210
0.000000
220
0.000000
230
1.0
 70
     8
 71
     3
 72
     8
 73
     4
 42
0.0000000001
 43
0.0000000001
 44
0.0000000001
 12
0.000000
 22
0.000000
 32
0.000000
 13
0.000000
 23
0.000000
 33
0.000000
 40
0.000000
 40
0.000000
 40
0.000000
 40
0.000000
 40
1.000000
 40
1.000000
 40
1.000000
 40
1.000000
 10
700.669232
 20
589.308066
 30
0.000000
 10
700.554054
 20
589.355449
 30
0.000000
 10
700.432125
 20
589.387256
 30
0.000000
 10
700.308823
 20
589.409248
 30
0.000000
  0
SPLINE
  5
233
330
1F
100
AcDbEntity
  8
0
 62
     5
100
AcDbSpline
210
0.000000
220
0.000000
230
1.0
 70
     8
 71
     3
 72
     8
 73
     4
 42
0.0000000001
 43
0.0000000001
 44
0.0000000001
 12
0.000000
 22
0.000000
 32
0.000000
 13
0.000000
 23
0.000000
 33
0.000000
 40
0.000000
 40
0.000000
 40
0.000000
 40
0.000000
 40
1.000000
 40
1.000000
 40
1.000000
 40
1.000000
 10
700.308823
 20
589.409248
 30
0.000000
 10
700.178005
 20
589.432581
 30
0.000000
 10
700.045641
 20
589.444867
 30
0.000000
 10
699.913294
 20
589.445205
 30
0.000000
  0
SPLINE
  5
234
330
1F
100
AcDbEntity
  8
0
 62
     5
100
AcDbSpline
210
0.000000
220
0.000000
230
1.0
 70
     8
 71
     3
 72
     8
 73
     4
 42
0.0000000001
 43
0.0000000001
 44
0.0000000001
 12
0.000000
 22
0.000000
 32
0.000000
 13
0.000000
 23
0.000000
 33
0.000000
 40
0.000000
 40
0.000000
 40
0.000000
 40
0.000000
 40
1.000000
 40
1.000000
 40
1.000000
 40
1.000000
 10
699.913294
 20
589.445205
 30
0.000000
 10
699.724063
 20
589.445689
 30
0.000000
 10
699.534868
 20
589.421748
 30
0.000000
 10
699.349687
 20
589.375800
 30
0.000000
  0
SPLINE
  5
235
330
1F
100
AcDbEntity
  8
0
 62
     5
100
AcDbSpline
210
0.000000
220
0.000000
230
1.0
 70
     8
 71
     3
 72
     8
 73
     4
 42
0.0000000001
 43
0.0000000001
 44
0.0000000001
 12
0.000000
 22
0.000000
 32
0.000000
 13
0.000000
 23
0.000000
 33
0.000000
 40
0.000000
 40
0.000000
 40
0.000000
 40
0.000000
 40
1.000000
 40
1.000000
 40
1.000000
 40
1.000000
 10
699.349687
 20
589.375800
 30
0.000000
 10
699.163642
 20
589.329637
 30
0.000000
 10
698.981650
 20
589.261261
 30
0.000000
 10
698.821198
 20
589.160893
 30
0.000000
  0
SPLINE
  5
236
330
1F
100
AcDbEntity
  8
0
 62
     5
100
AcDbSpline
210
0.000000
220
0.000000
230
1.0
 70
     8
 71
     3
 72
     8
 73
     4
 42
0.0000000001
 43
0.0000000001
 44
0.0000000001
 12
0.000000
 22
0.000000
 32
0.000000
 13
0.000000
 23
0.000000
 33
0.000000
 40
0.000000
 40
0.000000
 40
0.000000
 40
0.000000
 40
1.000000
 40
1.000000
 40
1.000000
 40
1.000000
 10
698.821198
 20
589.160893
 30
0.000000
 10
698.658746
 20
589.059275
 30
0.000000
 10
698.518375
 20
588.924862
 30
0.000000
 10
698.378004
 20
588.790450
 30
0.000000
  0
SPLINE
  5
237
330
1F
100
AcDbEntity
  8
0
 62
     5
100
AcDbSpline
210
0.000000
220
0.000000
230
1.0
 70
     8
 71
     3
 72
     8
 73
     4
 42
0.0000000001
 43
0.0000000001
 44
0.0000000001
 12
0.000000
 22
0.000000
 32
0.000000
 13
0.000000
 23
0.000000
 33
0.000000
 40
0.000000
 40
0.000000
 40
0.000000
 40
0.000000
 40
1.000000
 40
1.000000
 40
1.000000
 40
1.000000
 10
696.662094
 20
581.610716
 30
0.000000
 10
696.440508
 20
581.350574
 30
0.000000
 10
696.218921
 20
581.090432
 30
0.000000
 10
695.960510
 20
580.870667
 30
0.000000
  0
SPLINE
  5
238
330
1F
100
AcDbEntity
  8
0
 62
     5
100
AcDbSpline
210
0.000000
220
0.000000
230
1.0
 70
     8
 71
     3
 72
     8
 73
     4
 42
0.0000000001
 43
0.0000000001
 44
0.0000000001
 12
0.000000
 22
0.000000
 32
0.000000
 13
0.000000
 23
0.000000
 33
0.000000
 40
0.000000
 40
0.000000
 40
0.000000
 40
0.000000
 40
1.000000
 40
1.000000
 40
1.000000
 40
1.000000
 10
695.960510
 20
580.870667
 30
0.000000
 10
695.721137
 20
580.667093
 30
0.000000
 10
695.450166
 20
580.498166
 30
0.000000
 10
695.158581
 20
580.371447
 30
0.000000
  0
SPLINE
  5
239
330
1F
100
AcDbEntity
  8
0
 62
     5
100
AcDbSpline
210
0.000000
220
0.000000
230
1.0
 70
     8
 71
     3
 72
     8
 73
     4
 42
0.0000000001
 43
0.0000000001
 44
0.0000000001
 12
0.000000
 22
0.000000
 32
0.000000
 13
0.000000
 23
0.000000
 33
0.000000
 40
0.000000
 40
0.000000
 40
0.000000
 40
0.000000
 40
1.000000
 40
1.000000
 40
1.000000
 40
1.000000
 10
695.158581
 20
580.371447
 30
0.000000
 10
694.912215
 20
580.264380
 30
0.000000
 10
694.651132
 20
580.187443
 30
0.000000
 10
694.381743
 20
580.188316
 30
0.000000
  0
SPLINE
  5
240
330
1F
100
AcDbEntity
  8
0
 62
     5
100
AcDbSpline
210
0.000000
220
0.000000
230
1.0
 70
     8
 71
     3
 72
     8
 73
     4
 42
0.0000000001
 43
0.0000000001
 44
0.0000000001
 12
0.000000
 22
0.000000
 32
0.000000
 13
0.000000
 23
0.000000
 33
0.000000
 40
0.000000
 40
0.000000
 40
0.000000
 40
0.000000
 40
1.000000
 40
1.000000
 40
1.000000
 40
1.000000
 10
694.381743
 20
580.188316
 30
0.000000
 10
694.162369
 20
580.189027
 30
0.000000
 10
693.937486
 20
580.241337
 30
0.000000
 10
693.754580
 20
580.358904
 30
0.000000
  0
SPLINE
  5
241
330
1F
100
AcDbEntity
  8
0
 62
     5
100
AcDbSpline
210
0.000000
220
0.000000
230
1.0
 70
     8
 71
     3
 72
     8
 73
     4
 42
0.0000000001
 43
0.0000000001
 44
0.0000000001
 12
0.000000
 22
0.000000
 32
0.000000
 13
0.000000
 23
0.000000
 33
0.000000
 40
0.000000
 40
0.000000
 40
0.000000
 40
0.000000
 40
1.000000
 40
1.000000
 40
1.000000
 40
1.000000
 10
693.754580
 20
580.358904
 30
0.000000
 10
693.561850
 20
580.482785
 30
0.000000
 10
693.415727
 20
580.679119
 30
0.000000
 10
693.323095
 20
580.890736
 30
0.000000
  0
SPLINE
  5
242
330
1F
100
AcDbEntity
  8
0
 62
     5
100
AcDbSpline
210
0.000000
220
0.000000
230
1.0
 70
     8
 71
     3
 72
     8
 73
     4
 42
0.0000000001
 43
0.0000000001
 44
0.0000000001
 12
0.000000
 22
0.000000
 32
0.000000
 13
0.000000
 23
0.000000
 33
0.000000
 40
0.000000
 40
0.000000
 40
0.000000
 40
0.000000
 40
1.000000
 40
1.000000
 40
1.000000
 40
1.000000
 10
693.323095
 20
580.890736
 30
0.000000
 10
693.196352
 20
581.180278
 30
0.000000
 10
693.169748
 20
581.498429
 30
0.000000
 10
693.162544
 20
581.813916
 30
0.000000
  0
SPLINE
  5
243
330
1F
100
AcDbEntity
  8
0
 62
     5
100
AcDbSpline
210
0.000000
220
0.000000
230
1.0
 70
     8
 71
     3
 72
     8
 73
     4
 42
0.0000000001
 43
0.0000000001
 44
0.0000000001
 12
0.000000
 22
0.000000
 32
0.000000
 13
0.000000
 23
0.000000
 33
0.000000
 40
0.000000
 40
0.000000
 40
0.000000
 40
0.000000
 40
1.000000
 40
1.000000
 40
1.000000
 40
1.000000
 10
693.162544
 20
581.813916
 30
0.000000
 10
693.141938
 20
582.716230
 30
0.000000
 10
693.280019
 20
583.596747
 30
0.000000
 10
693.515425
 20
584.470568
 30
0.000000
  0
SPLINE
  5
244
330
1F
100
AcDbEntity
  8
0
 62
     5
100
AcDbSpline
210
0.000000
220
0.000000
230
1.0
 70
     8
 71
     3
 72
     8
 73
     4
 42
0.0000000001
 43
0.0000000001
 44
0.0000000001
 12
0.000000
 22
0.000000
 32
0.000000
 13
0.000000
 23
0.000000
 33
0.000000
 40
0.000000
 40
0.000000
 40
0.000000
 40
0.000000
 40
1.000000
 40
1.000000
 40
1.000000
 40
1.000000
 10
693.515425
 20
584.470568
 30
0.000000
 10
693.746679
 20
585.328979
 30
0.000000
 10
694.071855
 20
586.180929
 30
0.000000
 10
694.691139
 20
586.826183
 30
0.000000
  0
SPLINE
  5
245
330
1F
100
AcDbEntity
  8
0
 62
     5
100
AcDbSpline
210
0.000000
220
0.000000
230
1.0
 70
     8
 71
     3
 72
     8
 73
     4
 42
0.0000000001
 43
0.0000000001
 44
0.0000000001
 12
0.000000
 22
0.000000
 32
0.000000
 13
0.000000
 23
0.000000
 33
0.000000
 40
0.000000
 40
0.000000
 40
0.000000
 40
0.000000
 40
1.000000
 40
1.000000
 40
1.000000
 40
1.000000
 10
694.691139
 20
586.826183
 30
0.000000
 10
695.255642
 20
587.414359
 30
0.000000
 10
696.064521
 20
587.830791
 30
0.000000
 10
696.865293
 20
587.842183
 30
0.000000
  0
SPLINE
  5
246
330
1F
100
AcDbEntity
  8
0
 62
     5
100
AcDbSpline
210
0.000000
220
0.000000
230
1.0
 70
     8
 71
     3
 72
     8
 73
     4
 42
0.0000000001
 43
0.0000000001
 44
0.0000000001
 12
0.000000
 22
0.000000
 32
0.000000
 13
0.000000
 23
0.000000
 33
0.000000
 40
0.000000
 40
0.000000
 40
0.000000
 40
0.000000
 40
1.000000
 40
1.000000
 40
1.000000
 40
1.000000
 10
696.865293
 20
587.842183
 30
0.000000
 10
696.978995
 20
587.843801
 30
0.000000
 10
697.092532
 20
587.837252
 30
0.000000
 10
697.205634
 20
587.825458
 30
0.000000
  0
SPLINE
  5
247
330
1F
100
AcDbEntity
  8
0
 62
     5
100
AcDbSpline
210
0.000000
220
0.000000
230
1.0
 70
     8
 71
     3
 72
     8
 73
     4
 42
0.0000000001
 43
0.0000000001
 44
0.0000000001
 12
0.000000
 22
0.000000
 32
0.000000
 13
0.000000
 23
0.000000
 33
0.000000
 40
0.000000
 40
0.000000
 40
0.000000
 40
0.000000
 40
1.000000
 40
1.000000
 40
1.000000
 40
1.000000
 10
697.205634
 20
587.825458
 30
0.000000
 10
697.323451
 20
587.813172
 30
0.000000
 10
697.440794
 20
587.795194
 30
0.000000
 10
697.556007
 20
587.768594
 30
0.000000
  0
SPLINE
  5
248
330
1F
100
AcDbEntity
  8
0
 62
     5
100
AcDbSpline
210
0.000000
220
0.000000
230
1.0
 70
     8
 71
     3
 72
     8
 73
     4
 42
0.0000000001
 43
0.0000000001
 44
0.0000000001
 12
0.000000
 22
0.000000
 32
0.000000
 13
0.000000
 23
0.000000
 33
0.000000
 40
0.000000
 40
0.000000
 40
0.000000
 40
0.000000
 40
1.000000
 40
1.000000
 40
1.000000
 40
1.000000
 10
697.556007
 20
587.768594
 30
0.000000
 10
697.681166
 20
587.739699
 30
0.000000
 10
697.803810
 20
587.700630
 30
0.000000
 10
697.926454
 20
587.661561
 30
0.000000
  0
LINE
  5
249
330
1F
100
AcDbEntity
  8
0
  62
5
100
AcDbLine
 10
697.926454
 20
587.661561
 30
0.000000
 11
696.662094
 21
581.610716
 31
0.000000
  0
SPLINE
  5
250
330
1F
100
AcDbEntity
  8
0
 62
     5
100
AcDbSpline
210
0.000000
220
0.000000
230
1.0
 70
     8
 71
     3
 72
     8
 73
     4
 42
0.0000000001
 43
0.0000000001
 44
0.0000000001
 12
0.000000
 22
0.000000
 32
0.000000
 13
0.000000
 23
0.000000
 33
0.000000
 40
0.000000
 40
0.000000
 40
0.000000
 40
0.000000
 40
1.000000
 40
1.000000
 40
1.000000
 40
1.000000
 10
708.096324
 20
581.136583
 30
0.000000
 10
707.876866
 20
580.945314
 30
0.000000
 10
707.657408
 20
580.754045
 30
0.000000
 10
707.416483
 20
580.593044
 30
0.000000
  0
SPLINE
  5
251
330
1F
100
AcDbEntity
  8
0
 62
     5
100
AcDbSpline
210
0.000000
220
0.000000
230
1.0
 70
     8
 71
     3
 72
     8
 73
     4
 42
0.0000000001
 43
0.0000000001
 44
0.0000000001
 12
0.000000
 22
0.000000
 32
0.000000
 13
0.000000
 23
0.000000
 33
0.000000
 40
0.000000
 40
0.000000
 40
0.000000
 40
0.000000
 40
1.000000
 40
1.000000
 40
1.000000
 40
1.000000
 10
707.416483
 20
580.593044
 30
0.000000
 10
707.159153
 20
580.421080
 30
0.000000
 10
706.877331
 20
580.283646
 30
0.000000
 10
706.586123
 20
580.174937
 30
0.000000
  0
SPLINE
  5
252
330
1F
100
AcDbEntity
  8
0
 62
     5
100
AcDbSpline
210
0.000000
220
0.000000
230
1.0
 70
     8
 71
     3
 72
     8
 73
     4
 42
0.0000000001
 43
0.0000000001
 44
0.0000000001
 12
0.000000
 22
0.000000
 32
0.000000
 13
0.000000
 23
0.000000
 33
0.000000
 40
0.000000
 40
0.000000
 40
0.000000
 40
0.000000
 40
1.000000
 40
1.000000
 40
1.000000
 40
1.000000
 10
706.586123
 20
580.174937
 30
0.000000
 10
706.311555
 20
580.072440
 30
0.000000
 10
706.028642
 20
579.995478
 30
0.000000
 10
705.725664
 20
580.007694
 30
0.000000
  0
SPLINE
  5
253
330
1F
100
AcDbEntity
  8
0
 62
     5
100
AcDbSpline
210
0.000000
220
0.000000
230
1.0
 70
     8
 71
     3
 72
     8
 73
     4
 42
0.0000000001
 43
0.0000000001
 44
0.0000000001
 12
0.000000
 22
0.000000
 32
0.000000
 13
0.000000
 23
0.000000
 33
0.000000
 40
0.000000
 40
0.000000
 40
0.000000
 40
0.000000
 40
1.000000
 40
1.000000
 40
1.000000
 40
1.000000
 10
705.725664
 20
580.007694
 30
0.000000
 10
705.546099
 20
580.014934
 30
0.000000
 10
705.359486
 20
580.053498
 30
0.000000
 10
705.228948
 20
580.159885
 30
0.000000
  0
SPLINE
  5
254
330
1F
100
AcDbEntity
  8
0
 62
     5
100
AcDbSpline
210
0.000000
220
0.000000
230
1.0
 70
     8
 71
     3
 72
     8
 73
     4
 42
0.0000000001
 43
0.0000000001
 44
0.0000000001
 12
0.000000
 22
0.000000
 32
0.000000
 13
0.000000
 23
0.000000
 33
0.000000
 40
0.000000
 40
0.000000
 40
0.000000
 40
0.000000
 40
1.000000
 40
1.000000
 40
1.000000
 40
1.000000
 10
705.228948
 20
580.159885
 30
0.000000
 10
705.082542
 20
580.279205
 30
0.000000
 10
705.006674
 20
580.483840
 30
0.000000
 10
704.973066
 20
580.683355
 30
0.000000
  0
SPLINE
  5
255
330
1F
100
AcDbEntity
  8
0
 62
     5
100
AcDbSpline
210
0.000000
220
0.000000
230
1.0
 70
     8
 71
     3
 72
     8
 73
     4
 42
0.0000000001
 43
0.0000000001
 44
0.0000000001
 12
0.000000
 22
0.000000
 32
0.000000
 13
0.000000
 23
0.000000
 33
0.000000
 40
0.000000
 40
0.000000
 40
0.000000
 40
0.000000
 40
1.000000
 40
1.000000
 40
1.000000
 40
1.000000
 10
704.973066
 20
580.683355
 30
0.000000
 10
704.915506
 20
581.025067
 30
0.000000
 10
704.981915
 20
581.351759
 30
0.000000
 10
705.048324
 20
581.678450
 30
0.000000
  0
LINE
  5
256
330
1F
100
AcDbEntity
  8
0
  62
5
100
AcDbLine
 10
705.048324
 20
581.678450
 30
0.000000
 11
706.380414
 21
588.022805
 31
0.000000
  0
LINE
  5
257
330
1F
100
AcDbEntity
  8
0
  62
5
100
AcDbLine
 10
706.380414
 20
588.022805
 30
0.000000
 11
707.373834
 21
588.022805
 31
0.000000
  0
SPLINE
  5
258
330
1F
100
AcDbEntity
  8
0
 62
     5
100
AcDbSpline
210
0.000000
220
0.000000
230
1.0
 70
     8
 71
     3
 72
     8
 73
     4
 42
0.0000000001
 43
0.0000000001
 44
0.0000000001
 12
0.000000
 22
0.000000
 32
0.000000
 13
0.000000
 23
0.000000
 33
0.000000
 40
0.000000
 40
0.000000
 40
0.000000
 40
0.000000
 40
1.000000
 40
1.000000
 40
1.000000
 40
1.000000
 10
707.373834
 20
588.022805
 30
0.000000
 10
707.582674
 20
588.055471
 30
0.000000
 10
707.791513
 20
588.088138
 30
0.000000
 10
707.955844
 20
588.201755
 30
0.000000
  0
SPLINE
  5
259
330
1F
100
AcDbEntity
  8
0
 62
     5
100
AcDbSpline
210
0.000000
220
0.000000
230
1.0
 70
     8
 71
     3
 72
     8
 73
     4
 42
0.0000000001
 43
0.0000000001
 44
0.0000000001
 12
0.000000
 22
0.000000
 32
0.000000
 13
0.000000
 23
0.000000
 33
0.000000
 40
0.000000
 40
0.000000
 40
0.000000
 40
0.000000
 40
1.000000
 40
1.000000
 40
1.000000
 40
1.000000
 10
707.955844
 20
588.201755
 30
0.000000
 10
708.110222
 20
588.308492
 30
0.000000
 10
708.225319
 20
588.486672
 30
0.000000
 10
708.281967
 20
588.671707
 30
0.000000
  0
SPLINE
  5
260
330
1F
100
AcDbEntity
  8
0
 62
     5
100
AcDbSpline
210
0.000000
220
0.000000
230
1.0
 70
     8
 71
     3
 72
     8
 73
     4
 42
0.0000000001
 43
0.0000000001
 44
0.0000000001
 12
0.000000
 22
0.000000
 32
0.000000
 13
0.000000
 23
0.000000
 33
0.000000
 40
0.000000
 40
0.000000
 40
0.000000
 40
0.000000
 40
1.000000
 40
1.000000
 40
1.000000
 40
1.000000
 10
708.281967
 20
588.671707
 30
0.000000
 10
708.347507
 20
588.885792
 30
0.000000
 10
708.334806
 20
589.109054
 30
0.000000
 10
708.322104
 20
589.332316
 30
0.000000
  0
LINE
  5
261
330
1F
100
AcDbEntity
  8
0
  62
5
100
AcDbLine
 10
708.322104
 20
589.332316
 30
0.000000
 11
706.673924
 21
589.332316
 31
0.000000
  0
LINE
  5
262
330
1F
100
AcDbEntity
  8
0
  62
5
100
AcDbLine
 10
706.673924
 20
589.332316
 30
0.000000
 11
707.306104
 21
592.312583
 31
0.000000
  0
SPLINE
  5
263
330
1F
100
AcDbEntity
  8
0
 62
     5
100
AcDbSpline
210
0.000000
220
0.000000
230
1.0
 70
     8
 71
     3
 72
     8
 73
     4
 42
0.0000000001
 43
0.0000000001
 44
0.0000000001
 12
0.000000
 22
0.000000
 32
0.000000
 13
0.000000
 23
0.000000
 33
0.000000
 40
0.000000
 40
0.000000
 40
0.000000
 40
0.000000
 40
1.000000
 40
1.000000
 40
1.000000
 40
1.000000
 10
707.306104
 20
592.312583
 30
0.000000
 10
707.206258
 20
592.369044
 30
0.000000
 10
707.106411
 20
592.425505
 30
0.000000
 10
707.000889
 20
592.468955
 30
0.000000
  0
SPLINE
  5
264
330
1F
100
AcDbEntity
  8
0
 62
     5
100
AcDbSpline
210
0.000000
220
0.000000
230
1.0
 70
     8
 71
     3
 72
     8
 73
     4
 42
0.0000000001
 43
0.0000000001
 44
0.0000000001
 12
0.000000
 22
0.000000
 32
0.000000
 13
0.000000
 23
0.000000
 33
0.000000
 40
0.000000
 40
0.000000
 40
0.000000
 40
0.000000
 40
1.000000
 40
1.000000
 40
1.000000
 40
1.000000
 10
707.000889
 20
592.468955
 30
0.000000
 10
706.885705
 20
592.516384
 30
0.000000
 10
706.763759
 20
592.548312
 30
0.000000
 10
706.640483
 20
592.570137
 30
0.000000
  0
SPLINE
  5
265
330
1F
100
AcDbEntity
  8
0
 62
     5
100
AcDbSpline
210
0.000000
220
0.000000
230
1.0
 70
     8
 71
     3
 72
     8
 73
     4
 42
0.0000000001
 43
0.0000000001
 44
0.0000000001
 12
0.000000
 22
0.000000
 32
0.000000
 13
0.000000
 23
0.000000
 33
0.000000
 40
0.000000
 40
0.000000
 40
0.000000
 40
0.000000
 40
1.000000
 40
1.000000
 40
1.000000
 40
1.000000
 10
706.640483
 20
592.570137
 30
0.000000
 10
706.509691
 20
592.593293
 30
0.000000
 10
706.377403
 20
592.605077
 30
0.000000
 10
706.244953
 20
592.606094
 30
0.000000
  0
SPLINE
  5
266
330
1F
100
AcDbEntity
  8
0
 62
     5
100
AcDbSpline
210
0.000000
220
0.000000
230
1.0
 70
     8
 71
     3
 72
     8
 73
     4
 42
0.0000000001
 43
0.0000000001
 44
0.0000000001
 12
0.000000
 22
0.000000
 32
0.000000
 13
0.000000
 23
0.000000
 33
0.000000
 40
0.000000
 40
0.000000
 40
0.000000
 40
0.000000
 40
1.000000
 40
1.000000
 40
1.000000
 40
1.000000
 10
706.244953
 20
592.606094
 30
0.000000
 10
705.973311
 20
592.608180
 30
0.000000
 10
705.700989
 20
592.564974
 30
0.000000
 10
705.442187
 20
592.468119
 30
0.000000
  0
SPLINE
  5
267
330
1F
100
AcDbEntity
  8
0
 62
     5
100
AcDbSpline
210
0.000000
220
0.000000
230
1.0
 70
     8
 71
     3
 72
     8
 73
     4
 42
0.0000000001
 43
0.0000000001
 44
0.0000000001
 12
0.000000
 22
0.000000
 32
0.000000
 13
0.000000
 23
0.000000
 33
0.000000
 40
0.000000
 40
0.000000
 40
0.000000
 40
0.000000
 40
1.000000
 40
1.000000
 40
1.000000
 40
1.000000
 10
705.442187
 20
592.468119
 30
0.000000
 10
705.181769
 20
592.370660
 30
0.000000
 10
704.935039
 20
592.218879
 30
0.000000
 10
704.759834
 20
592.014055
 30
0.000000
  0
SPLINE
  5
268
330
1F
100
AcDbEntity
  8
0
 62
     5
100
AcDbSpline
210
0.000000
220
0.000000
230
1.0
 70
     8
 71
     3
 72
     8
 73
     4
 42
0.0000000001
 43
0.0000000001
 44
0.0000000001
 12
0.000000
 22
0.000000
 32
0.000000
 13
0.000000
 23
0.000000
 33
0.000000
 40
0.000000
 40
0.000000
 40
0.000000
 40
0.000000
 40
1.000000
 40
1.000000
 40
1.000000
 40
1.000000
 10
704.759834
 20
592.014055
 30
0.000000
 10
704.561739
 20
591.782473
 30
0.000000
 10
704.455077
 20
591.483083
 30
0.000000
 10
704.348414
 20
591.183694
 30
0.000000
  0
LINE
  5
269
330
1F
100
AcDbEntity
  8
0
  62
5
100
AcDbLine
 10
704.348414
 20
591.183694
 30
0.000000
 11
703.942014
 21
589.332316
 31
0.000000
  0
LINE
  5
270
330
1F
100
AcDbEntity
  8
0
  62
5
100
AcDbLine
 10
703.942014
 20
589.332316
 30
0.000000
 11
703.490464
 21
589.332316
 31
0.000000
  0
SPLINE
  5
271
330
1F
100
AcDbEntity
  8
0
 62
     5
100
AcDbSpline
210
0.000000
220
0.000000
230
1.0
 70
     8
 71
     3
 72
     8
 73
     4
 42
0.0000000001
 43
0.0000000001
 44
0.0000000001
 12
0.000000
 22
0.000000
 32
0.000000
 13
0.000000
 23
0.000000
 33
0.000000
 40
0.000000
 40
0.000000
 40
0.000000
 40
0.000000
 40
1.000000
 40
1.000000
 40
1.000000
 40
1.000000
 10
703.490464
 20
589.332316
 30
0.000000
 10
703.281626
 20
589.299649
 30
0.000000
 10
703.072788
 20
589.266983
 30
0.000000
 10
702.908458
 20
589.153367
 30
0.000000
  0
SPLINE
  5
272
330
1F
100
AcDbEntity
  8
0
 62
     5
100
AcDbSpline
210
0.000000
220
0.000000
230
1.0
 70
     8
 71
     3
 72
     8
 73
     4
 42
0.0000000001
 43
0.0000000001
 44
0.0000000001
 12
0.000000
 22
0.000000
 32
0.000000
 13
0.000000
 23
0.000000
 33
0.000000
 40
0.000000
 40
0.000000
 40
0.000000
 40
0.000000
 40
1.000000
 40
1.000000
 40
1.000000
 40
1.000000
 10
702.908458
 20
589.153367
 30
0.000000
 10
702.754079
 20
589.046630
 30
0.000000
 10
702.638981
 20
588.868450
 30
0.000000
 10
702.582333
 20
588.683414
 30
0.000000
  0
SPLINE
  5
273
330
1F
100
AcDbEntity
  8
0
 62
     5
100
AcDbSpline
210
0.000000
220
0.000000
230
1.0
 70
     8
 71
     3
 72
     8
 73
     4
 42
0.0000000001
 43
0.0000000001
 44
0.0000000001
 12
0.000000
 22
0.000000
 32
0.000000
 13
0.000000
 23
0.000000
 33
0.000000
 40
0.000000
 40
0.000000
 40
0.000000
 40
0.000000
 40
1.000000
 40
1.000000
 40
1.000000
 40
1.000000
 10
702.582333
 20
588.683414
 30
0.000000
 10
702.516791
 20
588.469330
 30
0.000000
 10
702.529493
 20
588.246067
 30
0.000000
 10
702.542194
 20
588.022805
 30
0.000000
  0
LINE
  5
274
330
1F
100
AcDbEntity
  8
0
  62
5
100
AcDbLine
 10
702.542194
 20
588.022805
 30
0.000000
 11
703.671084
 21
588.022805
 31
0.000000
  0
LINE
  5
275
330
1F
100
AcDbEntity
  8
0
  62
5
100
AcDbLine
 10
703.671084
 20
588.022805
 30
0.000000
 11
702.226104
 21
581.204316
 31
0.000000
  0
SPLINE
  5
276
330
1F
100
AcDbEntity
  8
0
 62
     5
100
AcDbSpline
210
0.000000
220
0.000000
230
1.0
 70
     8
 71
     3
 72
     8
 73
     4
 42
0.0000000001
 43
0.0000000001
 44
0.0000000001
 12
0.000000
 22
0.000000
 32
0.000000
 13
0.000000
 23
0.000000
 33
0.000000
 40
0.000000
 40
0.000000
 40
0.000000
 40
0.000000
 40
1.000000
 40
1.000000
 40
1.000000
 40
1.000000
 10
702.226104
 20
581.204316
 30
0.000000
 10
702.103015
 20
580.544142
 30
0.000000
 10
701.979925
 20
579.883969
 30
0.000000
 10
702.145826
 20
579.234196
 30
0.000000
  0
SPLINE
  5
277
330
1F
100
AcDbEntity
  8
0
 62
     5
100
AcDbSpline
210
0.000000
220
0.000000
230
1.0
 70
     8
 71
     3
 72
     8
 73
     4
 42
0.0000000001
 43
0.0000000001
 44
0.0000000001
 12
0.000000
 22
0.000000
 32
0.000000
 13
0.000000
 23
0.000000
 33
0.000000
 40
0.000000
 40
0.000000
 40
0.000000
 40
0.000000
 40
1.000000
 40
1.000000
 40
1.000000
 40
1.000000
 10
702.145826
 20
579.234196
 30
0.000000
 10
702.250550
 20
578.824029
 30
0.000000
 10
702.470429
 20
578.418006
 30
0.000000
 10
702.803091
 20
578.177222
 30
0.000000
  0
SPLINE
  5
278
330
1F
100
AcDbEntity
  8
0
 62
     5
100
AcDbSpline
210
0.000000
220
0.000000
230
1.0
 70
     8
 71
     3
 72
     8
 73
     4
 42
0.0000000001
 43
0.0000000001
 44
0.0000000001
 12
0.000000
 22
0.000000
 32
0.000000
 13
0.000000
 23
0.000000
 33
0.000000
 40
0.000000
 40
0.000000
 40
0.000000
 40
0.000000
 40
1.000000
 40
1.000000
 40
1.000000
 40
1.000000
 10
702.803091
 20
578.177222
 30
0.000000
 10
703.130527
 20
577.940220
 30
0.000000
 10
703.567231
 20
577.863307
 30
0.000000
 10
703.987173
 20
577.862805
 30
0.000000
  0
SPLINE
  5
279
330
1F
100
AcDbEntity
  8
0
 62
     5
100
AcDbSpline
210
0.000000
220
0.000000
230
1.0
 70
     8
 71
     3
 72
     8
 73
     4
 42
0.0000000001
 43
0.0000000001
 44
0.0000000001
 12
0.000000
 22
0.000000
 32
0.000000
 13
0.000000
 23
0.000000
 33
0.000000
 40
0.000000
 40
0.000000
 40
0.000000
 40
0.000000
 40
1.000000
 40
1.000000
 40
1.000000
 40
1.000000
 10
703.987173
 20
577.862805
 30
0.000000
 10
704.528795
 20
577.862158
 30
0.000000
 10
705.042532
 20
577.988618
 30
0.000000
 10
705.535841
 20
578.176385
 30
0.000000
  0
SPLINE
  5
280
330
1F
100
AcDbEntity
  8
0
 62
     5
100
AcDbSpline
210
0.000000
220
0.000000
230
1.0
 70
     8
 71
     3
 72
     8
 73
     4
 42
0.0000000001
 43
0.0000000001
 44
0.0000000001
 12
0.000000
 22
0.000000
 32
0.000000
 13
0.000000
 23
0.000000
 33
0.000000
 40
0.000000
 40
0.000000
 40
0.000000
 40
0.000000
 40
1.000000
 40
1.000000
 40
1.000000
 40
1.000000
 10
705.535841
 20
578.176385
 30
0.000000
 10
706.066313
 20
578.378298
 30
0.000000
 10
706.573163
 20
578.651104
 30
0.000000
 10
707.029320
 20
578.986677
 30
0.000000
  0
SPLINE
  5
281
330
1F
100
AcDbEntity
  8
0
 62
     5
100
AcDbSpline
210
0.000000
220
0.000000
230
1.0
 70
     8
 71
     3
 72
     8
 73
     4
 42
0.0000000001
 43
0.0000000001
 44
0.0000000001
 12
0.000000
 22
0.000000
 32
0.000000
 13
0.000000
 23
0.000000
 33
0.000000
 40
0.000000
 40
0.000000
 40
0.000000
 40
0.000000
 40
1.000000
 40
1.000000
 40
1.000000
 40
1.000000
 10
707.029320
 20
578.986677
 30
0.000000
 10
707.477876
 20
579.316658
 30
0.000000
 10
707.877415
 20
579.707331
 30
0.000000
 10
708.276954
 20
580.098005
 30
0.000000
  0
SPLINE
  5
282
330
1F
100
AcDbEntity
  8
0
 62
     5
100
AcDbSpline
210
0.000000
220
0.000000
230
1.0
 70
     8
 71
     3
 72
     8
 73
     4
 42
0.0000000001
 43
0.0000000001
 44
0.0000000001
 12
0.000000
 22
0.000000
 32
0.000000
 13
0.000000
 23
0.000000
 33
0.000000
 40
0.000000
 40
0.000000
 40
0.000000
 40
0.000000
 40
1.000000
 40
1.000000
 40
1.000000
 40
1.000000
 10
708.276954
 20
580.098005
 30
0.000000
 10
708.317295
 20
580.151001
 30
0.000000
 10
708.357635
 20
580.203998
 30
0.000000
 10
708.389840
 20
580.261904
 30
0.000000
  0
SPLINE
  5
283
330
1F
100
AcDbEntity
  8
0
 62
     5
100
AcDbSpline
210
0.000000
220
0.000000
230
1.0
 70
     8
 71
     3
 72
     8
 73
     4
 42
0.0000000001
 43
0.0000000001
 44
0.0000000001
 12
0.000000
 22
0.000000
 32
0.000000
 13
0.000000
 23
0.000000
 33
0.000000
 40
0.000000
 40
0.000000
 40
0.000000
 40
0.000000
 40
1.000000
 40
1.000000
 40
1.000000
 40
1.000000
 10
708.389840
 20
580.261904
 30
0.000000
 10
708.419290
 20
580.314857
 30
0.000000
 10
708.441935
 20
580.371915
 30
0.000000
 10
708.457574
 20
580.430819
 30
0.000000
  0
SPLINE
  5
284
330
1F
100
AcDbEntity
  8
0
 62
     5
100
AcDbSpline
210
0.000000
220
0.000000
230
1.0
 70
     8
 71
     3
 72
     8
 73
     4
 42
0.0000000001
 43
0.0000000001
 44
0.0000000001
 12
0.000000
 22
0.000000
 32
0.000000
 13
0.000000
 23
0.000000
 33
0.000000
 40
0.000000
 40
0.000000
 40
0.000000
 40
0.000000
 40
1.000000
 40
1.000000
 40
1.000000
 40
1.000000
 10
708.457574
 20
580.430819
 30
0.000000
 10
708.471792
 20
580.484368
 30
0.000000
 10
708.480218
 20
580.539443
 30
0.000000
 10
708.480154
 20
580.594717
 30
0.000000
  0
SPLINE
  5
285
330
1F
100
AcDbEntity
  8
0
 62
     5
100
AcDbSpline
210
0.000000
220
0.000000
230
1.0
 70
     8
 71
     3
 72
     8
 73
     4
 42
0.0000000001
 43
0.0000000001
 44
0.0000000001
 12
0.000000
 22
0.000000
 32
0.000000
 13
0.000000
 23
0.000000
 33
0.000000
 40
0.000000
 40
0.000000
 40
0.000000
 40
0.000000
 40
1.000000
 40
1.000000
 40
1.000000
 40
1.000000
 10
708.480154
 20
580.594717
 30
0.000000
 10
708.480068
 20
580.668300
 30
0.000000
 10
708.464934
 20
580.742236
 30
0.000000
 10
708.435833
 20
580.810459
 30
0.000000
  0
SPLINE
  5
286
330
1F
100
AcDbEntity
  8
0
 62
     5
100
AcDbSpline
210
0.000000
220
0.000000
230
1.0
 70
     8
 71
     3
 72
     8
 73
     4
 42
0.0000000001
 43
0.0000000001
 44
0.0000000001
 12
0.000000
 22
0.000000
 32
0.000000
 13
0.000000
 23
0.000000
 33
0.000000
 40
0.000000
 40
0.000000
 40
0.000000
 40
0.000000
 40
1.000000
 40
1.000000
 40
1.000000
 40
1.000000
 10
708.435833
 20
580.810459
 30
0.000000
 10
708.405917
 20
580.880592
 30
0.000000
 10
708.361241
 20
580.944688
 30
0.000000
 10
708.306217
 20
580.996099
 30
0.000000
  0
SPLINE
  5
287
330
1F
100
AcDbEntity
  8
0
 62
     5
100
AcDbSpline
210
0.000000
220
0.000000
230
1.0
 70
     8
 71
     3
 72
     8
 73
     4
 42
0.0000000001
 43
0.0000000001
 44
0.0000000001
 12
0.000000
 22
0.000000
 32
0.000000
 13
0.000000
 23
0.000000
 33
0.000000
 40
0.000000
 40
0.000000
 40
0.000000
 40
0.000000
 40
1.000000
 40
1.000000
 40
1.000000
 40
1.000000
 10
708.306217
 20
580.996099
 30
0.000000
 10
708.244837
 20
581.053450
 30
0.000000
 10
708.170581
 20
581.095016
 30
0.000000
 10
708.096324
 20
581.136583
 30
0.000000
  0
SPLINE
  5
288
330
1F
100
AcDbEntity
  8
0
 62
     5
100
AcDbSpline
210
0.000000
220
0.000000
230
1.0
 70
     8
 71
     3
 72
     8
 73
     4
 42
0.0000000001
 43
0.0000000001
 44
0.0000000001
 12
0.000000
 22
0.000000
 32
0.000000
 13
0.000000
 23
0.000000
 33
0.000000
 40
0.000000
 40
0.000000
 40
0.000000
 40
0.000000
 40
1.000000
 40
1.000000
 40
1.000000
 40
1.000000
 10
708.433914
 20
587.119694
 30
0.000000
 10
708.493470
 20
587.171308
 30
0.000000
 10
708.553026
 20
587.222922
 30
0.000000
 10
708.616209
 20
587.270213
 30
0.000000
  0
SPLINE
  5
289
330
1F
100
AcDbEntity
  8
0
 62
     5
100
AcDbSpline
210
0.000000
220
0.000000
230
1.0
 70
     8
 71
     3
 72
     8
 73
     4
 42
0.0000000001
 43
0.0000000001
 44
0.0000000001
 12
0.000000
 22
0.000000
 32
0.000000
 13
0.000000
 23
0.000000
 33
0.000000
 40
0.000000
 40
0.000000
 40
0.000000
 40
0.000000
 40
1.000000
 40
1.000000
 40
1.000000
 40
1.000000
 10
708.616209
 20
587.270213
 30
0.000000
 10
708.662359
 20
587.304755
 30
0.000000
 10
708.710444
 20
587.336990
 30
0.000000
 10
708.763384
 20
587.360524
 30
0.000000
  0
SPLINE
  5
290
330
1F
100
AcDbEntity
  8
0
 62
     5
100
AcDbSpline
210
0.000000
220
0.000000
230
1.0
 70
     8
 71
     3
 72
     8
 73
     4
 42
0.0000000001
 43
0.0000000001
 44
0.0000000001
 12
0.000000
 22
0.000000
 32
0.000000
 13
0.000000
 23
0.000000
 33
0.000000
 40
0.000000
 40
0.000000
 40
0.000000
 40
0.000000
 40
1.000000
 40
1.000000
 40
1.000000
 40
1.000000
 10
708.763384
 20
587.360524
 30
0.000000
 10
708.801937
 20
587.377662
 30
0.000000
 10
708.843064
 20
587.390185
 30
0.000000
 10
708.885474
 20
587.390628
 30
0.000000
  0
SPLINE
  5
291
330
1F
100
AcDbEntity
  8
0
 62
     5
100
AcDbSpline
210
0.000000
220
0.000000
230
1.0
 70
     8
 71
     3
 72
     8
 73
     4
 42
0.0000000001
 43
0.0000000001
 44
0.0000000001
 12
0.000000
 22
0.000000
 32
0.000000
 13
0.000000
 23
0.000000
 33
0.000000
 40
0.000000
 40
0.000000
 40
0.000000
 40
0.000000
 40
1.000000
 40
1.000000
 40
1.000000
 40
1.000000
 10
708.885474
 20
587.390628
 30
0.000000
 10
708.946644
 20
587.391266
 30
0.000000
 10
709.010483
 20
587.366770
 30
0.000000
 10
709.054389
 20
587.324566
 30
0.000000
  0
SPLINE
  5
292
330
1F
100
AcDbEntity
  8
0
 62
     5
100
AcDbSpline
210
0.000000
220
0.000000
230
1.0
 70
     8
 71
     3
 72
     8
 73
     4
 42
0.0000000001
 43
0.0000000001
 44
0.0000000001
 12
0.000000
 22
0.000000
 32
0.000000
 13
0.000000
 23
0.000000
 33
0.000000
 40
0.000000
 40
0.000000
 40
0.000000
 40
0.000000
 40
1.000000
 40
1.000000
 40
1.000000
 40
1.000000
 10
709.054389
 20
587.324566
 30
0.000000
 10
709.104972
 20
587.275944
 30
0.000000
 10
709.129100
 20
587.203819
 30
0.000000
 10
709.138008
 20
587.133074
 30
0.000000
  0
SPLINE
  5
293
330
1F
100
AcDbEntity
  8
0
 62
     5
100
AcDbSpline
210
0.000000
220
0.000000
230
1.0
 70
     8
 71
     3
 72
     8
 73
     4
 42
0.0000000001
 43
0.0000000001
 44
0.0000000001
 12
0.000000
 22
0.000000
 32
0.000000
 13
0.000000
 23
0.000000
 33
0.000000
 40
0.000000
 40
0.000000
 40
0.000000
 40
0.000000
 40
1.000000
 40
1.000000
 40
1.000000
 40
1.000000
 10
709.138008
 20
587.133074
 30
0.000000
 10
709.151141
 20
587.028776
 30
0.000000
 10
709.131193
 20
586.927479
 30
0.000000
 10
709.111244
 20
586.826183
 30
0.000000
  0
LINE
  5
294
330
1F
100
AcDbEntity
  8
0
  62
5
100
AcDbLine
 10
709.111244
 20
586.826183
 30
0.000000
 11
708.050114
 21
582.197738
 31
0.000000
  0
SPLINE
  5
295
330
1F
100
AcDbEntity
  8
0
 62
     5
100
AcDbSpline
210
0.000000
220
0.000000
230
1.0
 70
     8
 71
     3
 72
     8
 73
     4
 42
0.0000000001
 43
0.0000000001
 44
0.0000000001
 12
0.000000
 22
0.000000
 32
0.000000
 13
0.000000
 23
0.000000
 33
0.000000
 40
0.000000
 40
0.000000
 40
0.000000
 40
0.000000
 40
1.000000
 40
1.000000
 40
1.000000
 40
1.000000
 10
708.050114
 20
582.197738
 30
0.000000
 10
707.933413
 20
581.526983
 30
0.000000
 10
707.816712
 20
580.856229
 30
0.000000
 10
707.850256
 20
580.146505
 30
0.000000
  0
SPLINE
  5
296
330
1F
100
AcDbEntity
  8
0
 62
     5
100
AcDbSpline
210
0.000000
220
0.000000
230
1.0
 70
     8
 71
     3
 72
     8
 73
     4
 42
0.0000000001
 43
0.0000000001
 44
0.0000000001
 12
0.000000
 22
0.000000
 32
0.000000
 13
0.000000
 23
0.000000
 33
0.000000
 40
0.000000
 40
0.000000
 40
0.000000
 40
0.000000
 40
1.000000
 40
1.000000
 40
1.000000
 40
1.000000
 10
707.850256
 20
580.146505
 30
0.000000
 10
707.877828
 20
579.563152
 30
0.000000
 10
708.006905
 20
578.953471
 30
0.000000
 10
708.377908
 20
578.536794
 30
0.000000
  0
SPLINE
  5
297
330
1F
100
AcDbEntity
  8
0
 62
     5
100
AcDbSpline
210
0.000000
220
0.000000
230
1.0
 70
     8
 71
     3
 72
     8
 73
     4
 42
0.0000000001
 43
0.0000000001
 44
0.0000000001
 12
0.000000
 22
0.000000
 32
0.000000
 13
0.000000
 23
0.000000
 33
0.000000
 40
0.000000
 40
0.000000
 40
0.000000
 40
0.000000
 40
1.000000
 40
1.000000
 40
1.000000
 40
1.000000
 10
708.377908
 20
578.536794
 30
0.000000
 10
708.754495
 20
578.113845
 30
0.000000
 10
709.380345
 20
577.889755
 30
0.000000
 10
709.969224
 20
577.885384
 30
0.000000
  0
SPLINE
  5
298
330
1F
100
AcDbEntity
  8
0
 62
     5
100
AcDbSpline
210
0.000000
220
0.000000
230
1.0
 70
     8
 71
     3
 72
     8
 73
     4
 42
0.0000000001
 43
0.0000000001
 44
0.0000000001
 12
0.000000
 22
0.000000
 32
0.000000
 13
0.000000
 23
0.000000
 33
0.000000
 40
0.000000
 40
0.000000
 40
0.000000
 40
0.000000
 40
1.000000
 40
1.000000
 40
1.000000
 40
1.000000
 10
709.969224
 20
577.885384
 30
0.000000
 10
710.351178
 20
577.882549
 30
0.000000
 10
710.717577
 20
577.972150
 30
0.000000
 10
711.059647
 20
578.119524
 30
0.000000
  0
SPLINE
  5
299
330
1F
100
AcDbEntity
  8
0
 62
     5
100
AcDbSpline
210
0.000000
220
0.000000
230
1.0
 70
     8
 71
     3
 72
     8
 73
     4
 42
0.0000000001
 43
0.0000000001
 44
0.0000000001
 12
0.000000
 22
0.000000
 32
0.000000
 13
0.000000
 23
0.000000
 33
0.000000
 40
0.000000
 40
0.000000
 40
0.000000
 40
0.000000
 40
1.000000
 40
1.000000
 40
1.000000
 40
1.000000
 10
711.059647
 20
578.119524
 30
0.000000
 10
711.427336
 20
578.277935
 30
0.000000
 10
711.766914
 20
578.503098
 30
0.000000
 10
712.069793
 20
578.765080
 30
0.000000
  0
SPLINE
  5
300
330
1F
100
AcDbEntity
  8
0
 62
     5
100
AcDbSpline
210
0.000000
220
0.000000
230
1.0
 70
     8
 71
     3
 72
     8
 73
     4
 42
0.0000000001
 43
0.0000000001
 44
0.0000000001
 12
0.000000
 22
0.000000
 32
0.000000
 13
0.000000
 23
0.000000
 33
0.000000
 40
0.000000
 40
0.000000
 40
0.000000
 40
0.000000
 40
1.000000
 40
1.000000
 40
1.000000
 40
1.000000
 10
712.069793
 20
578.765080
 30
0.000000
 10
712.408712
 20
579.058238
 30
0.000000
 10
712.701678
 20
579.397499
 30
0.000000
 10
712.994644
 20
579.736761
 30
0.000000
  0
SPLINE
  5
301
330
1F
100
AcDbEntity
  8
0
 62
     5
100
AcDbSpline
210
0.000000
220
0.000000
230
1.0
 70
     8
 71
     3
 72
     8
 73
     4
 42
0.0000000001
 43
0.0000000001
 44
0.0000000001
 12
0.000000
 22
0.000000
 32
0.000000
 13
0.000000
 23
0.000000
 33
0.000000
 40
0.000000
 40
0.000000
 40
0.000000
 40
0.000000
 40
1.000000
 40
1.000000
 40
1.000000
 40
1.000000
 10
712.994644
 20
579.736761
 30
0.000000
 10
712.937788
 20
579.538528
 30
0.000000
 10
712.880932
 20
579.340295
 30
0.000000
 10
712.826565
 20
579.141377
 30
0.000000
  0
SPLINE
  5
302
330
1F
100
AcDbEntity
  8
0
 62
     5
100
AcDbSpline
210
0.000000
220
0.000000
230
1.0
 70
     8
 71
     3
 72
     8
 73
     4
 42
0.0000000001
 43
0.0000000001
 44
0.0000000001
 12
0.000000
 22
0.000000
 32
0.000000
 13
0.000000
 23
0.000000
 33
0.000000
 40
0.000000
 40
0.000000
 40
0.000000
 40
0.000000
 40
1.000000
 40
1.000000
 40
1.000000
 40
1.000000
 10
712.826565
 20
579.141377
 30
0.000000
 10
712.774676
 20
578.951521
 30
0.000000
 10
712.725054
 20
578.761040
 30
0.000000
 10
712.673538
 20
578.571079
 30
0.000000
  0
SPLINE
  5
303
330
1F
100
AcDbEntity
  8
0
 62
     5
100
AcDbSpline
210
0.000000
220
0.000000
230
1.0
 70
     8
 71
     3
 72
     8
 73
     4
 42
0.0000000001
 43
0.0000000001
 44
0.0000000001
 12
0.000000
 22
0.000000
 32
0.000000
 13
0.000000
 23
0.000000
 33
0.000000
 40
0.000000
 40
0.000000
 40
0.000000
 40
0.000000
 40
1.000000
 40
1.000000
 40
1.000000
 40
1.000000
 10
712.673538
 20
578.571079
 30
0.000000
 10
712.623712
 20
578.387346
 30
0.000000
 10
712.572113
 20
578.204098
 30
0.000000
 10
712.520514
 20
578.020850
 30
0.000000
  0
SPLINE
  5
304
330
1F
100
AcDbEntity
  8
0
 62
     5
100
AcDbSpline
210
0.000000
220
0.000000
230
1.0
 70
     8
 71
     3
 72
     8
 73
     4
 42
0.0000000001
 43
0.0000000001
 44
0.0000000001
 12
0.000000
 22
0.000000
 32
0.000000
 13
0.000000
 23
0.000000
 33
0.000000
 40
0.000000
 40
0.000000
 40
0.000000
 40
0.000000
 40
1.000000
 40
1.000000
 40
1.000000
 40
1.000000
 10
712.520514
 20
578.020850
 30
0.000000
 10
711.368308
 20
577.506253
 30
0.000000
 10
710.216102
 20
576.991657
 30
0.000000
 10
709.087019
 20
576.387724
 30
0.000000
  0
SPLINE
  5
305
330
1F
100
AcDbEntity
  8
0
 62
     5
100
AcDbSpline
210
0.000000
220
0.000000
230
1.0
 70
     8
 71
     3
 72
     8
 73
     4
 42
0.0000000001
 43
0.0000000001
 44
0.0000000001
 12
0.000000
 22
0.000000
 32
0.000000
 13
0.000000
 23
0.000000
 33
0.000000
 40
0.000000
 40
0.000000
 40
0.000000
 40
0.000000
 40
1.000000
 40
1.000000
 40
1.000000
 40
1.000000
 10
709.087019
 20
576.387724
 30
0.000000
 10
708.179092
 20
575.902085
 30
0.000000
 10
707.286117
 20
575.358679
 30
0.000000
 10
706.636912
 20
574.558924
 30
0.000000
  0
SPLINE
  5
306
330
1F
100
AcDbEntity
  8
0
 62
     5
100
AcDbSpline
210
0.000000
220
0.000000
230
1.0
 70
     8
 71
     3
 72
     8
 73
     4
 42
0.0000000001
 43
0.0000000001
 44
0.0000000001
 12
0.000000
 22
0.000000
 32
0.000000
 13
0.000000
 23
0.000000
 33
0.000000
 40
0.000000
 40
0.000000
 40
0.000000
 40
0.000000
 40
1.000000
 40
1.000000
 40
1.000000
 40
1.000000
 10
706.636912
 20
574.558924
 30
0.000000
 10
706.083880
 20
573.877646
 30
0.000000
 10
705.707743
 20
573.010346
 30
0.000000
 10
705.702024
 20
572.128051
 30
0.000000
  0
SPLINE
  5
307
330
1F
100
AcDbEntity
  8
0
 62
     5
100
AcDbSpline
210
0.000000
220
0.000000
230
1.0
 70
     8
 71
     3
 72
     8
 73
     4
 42
0.0000000001
 43
0.0000000001
 44
0.0000000001
 12
0.000000
 22
0.000000
 32
0.000000
 13
0.000000
 23
0.000000
 33
0.000000
 40
0.000000
 40
0.000000
 40
0.000000
 40
0.000000
 40
1.000000
 40
1.000000
 40
1.000000
 40
1.000000
 10
705.702024
 20
572.128051
 30
0.000000
 10
705.698487
 20
571.582448
 30
0.000000
 10
705.836601
 20
571.031110
 30
0.000000
 10
706.129330
 20
570.575200
 30
0.000000
  0
SPLINE
  5
308
330
1F
100
AcDbEntity
  8
0
 62
     5
100
AcDbSpline
210
0.000000
220
0.000000
230
1.0
 70
     8
 71
     3
 72
     8
 73
     4
 42
0.0000000001
 43
0.0000000001
 44
0.0000000001
 12
0.000000
 22
0.000000
 32
0.000000
 13
0.000000
 23
0.000000
 33
0.000000
 40
0.000000
 40
0.000000
 40
0.000000
 40
0.000000
 40
1.000000
 40
1.000000
 40
1.000000
 40
1.000000
 10
706.129330
 20
570.575200
 30
0.000000
 10
706.381021
 20
570.183206
 30
0.000000
 10
706.747015
 20
569.861759
 30
0.000000
 10
707.163727
 20
569.654529
 30
0.000000
  0
SPLINE
  5
309
330
1F
100
AcDbEntity
  8
0
 62
     5
100
AcDbSpline
210
0.000000
220
0.000000
230
1.0
 70
     8
 71
     3
 72
     8
 73
     4
 42
0.0000000001
 43
0.0000000001
 44
0.0000000001
 12
0.000000
 22
0.000000
 32
0.000000
 13
0.000000
 23
0.000000
 33
0.000000
 40
0.000000
 40
0.000000
 40
0.000000
 40
0.000000
 40
1.000000
 40
1.000000
 40
1.000000
 40
1.000000
 10
707.163727
 20
569.654529
 30
0.000000
 10
707.556725
 20
569.459093
 30
0.000000
 10
707.994833
 20
569.365244
 30
0.000000
 10
708.433934
 20
569.350983
 30
0.000000
  0
SPLINE
  5
310
330
1F
100
AcDbEntity
  8
0
 62
     5
100
AcDbSpline
210
0.000000
220
0.000000
230
1.0
 70
     8
 71
     3
 72
     8
 73
     4
 42
0.0000000001
 43
0.0000000001
 44
0.0000000001
 12
0.000000
 22
0.000000
 32
0.000000
 13
0.000000
 23
0.000000
 33
0.000000
 40
0.000000
 40
0.000000
 40
0.000000
 40
0.000000
 40
1.000000
 40
1.000000
 40
1.000000
 40
1.000000
 10
708.433934
 20
569.350983
 30
0.000000
 10
709.627448
 20
569.312222
 30
0.000000
 10
710.828302
 20
569.861456
 30
0.000000
 10
711.733637
 20
570.659658
 30
0.000000
  0
SPLINE
  5
311
330
1F
100
AcDbEntity
  8
0
 62
     5
100
AcDbSpline
210
0.000000
220
0.000000
230
1.0
 70
     8
 71
     3
 72
     8
 73
     4
 42
0.0000000001
 43
0.0000000001
 44
0.0000000001
 12
0.000000
 22
0.000000
 32
0.000000
 13
0.000000
 23
0.000000
 33
0.000000
 40
0.000000
 40
0.000000
 40
0.000000
 40
0.000000
 40
1.000000
 40
1.000000
 40
1.000000
 40
1.000000
 10
711.733637
 20
570.659658
 30
0.000000
 10
712.718465
 20
571.527948
 30
0.000000
 10
713.353599
 20
572.690848
 30
0.000000
 10
713.849257
 20
573.889952
 30
0.000000
  0
SPLINE
  5
312
330
1F
100
AcDbEntity
  8
0
 62
     5
100
AcDbSpline
210
0.000000
220
0.000000
230
1.0
 70
     8
 71
     3
 72
     8
 73
     4
 42
0.0000000001
 43
0.0000000001
 44
0.0000000001
 12
0.000000
 22
0.000000
 32
0.000000
 13
0.000000
 23
0.000000
 33
0.000000
 40
0.000000
 40
0.000000
 40
0.000000
 40
0.000000
 40
1.000000
 40
1.000000
 40
1.000000
 40
1.000000
 10
713.849257
 20
573.889952
 30
0.000000
 10
714.402878
 20
575.229281
 30
0.000000
 10
714.782496
 20
576.613777
 30
0.000000
 10
715.162114
 20
577.998272
 30
0.000000
  0
SPLINE
  5
313
330
1F
100
AcDbEntity
  8
0
 62
     5
100
AcDbSpline
210
0.000000
220
0.000000
230
1.0
 70
     8
 71
     3
 72
     8
 73
     4
 42
0.0000000001
 43
0.0000000001
 44
0.0000000001
 12
0.000000
 22
0.000000
 32
0.000000
 13
0.000000
 23
0.000000
 33
0.000000
 40
0.000000
 40
0.000000
 40
0.000000
 40
0.000000
 40
1.000000
 40
1.000000
 40
1.000000
 40
1.000000
 10
715.162114
 20
577.998272
 30
0.000000
 10
715.679509
 20
578.258157
 30
0.000000
 10
716.196903
 20
578.518043
 30
0.000000
 10
716.703255
 20
578.799365
 30
0.000000
  0
SPLINE
  5
314
330
1F
100
AcDbEntity
  8
0
 62
     5
100
AcDbSpline
210
0.000000
220
0.000000
230
1.0
 70
     8
 71
     3
 72
     8
 73
     4
 42
0.0000000001
 43
0.0000000001
 44
0.0000000001
 12
0.000000
 22
0.000000
 32
0.000000
 13
0.000000
 23
0.000000
 33
0.000000
 40
0.000000
 40
0.000000
 40
0.000000
 40
0.000000
 40
1.000000
 40
1.000000
 40
1.000000
 40
1.000000
 10
716.703255
 20
578.799365
 30
0.000000
 10
717.134693
 20
579.039066
 30
0.000000
 10
717.558114
 20
579.294330
 30
0.000000
 10
717.963430
 20
579.575372
 30
0.000000
  0
SPLINE
  5
315
330
1F
100
AcDbEntity
  8
0
 62
     5
100
AcDbSpline
210
0.000000
220
0.000000
230
1.0
 70
     8
 71
     3
 72
     8
 73
     4
 42
0.0000000001
 43
0.0000000001
 44
0.0000000001
 12
0.000000
 22
0.000000
 32
0.000000
 13
0.000000
 23
0.000000
 33
0.000000
 40
0.000000
 40
0.000000
 40
0.000000
 40
0.000000
 40
1.000000
 40
1.000000
 40
1.000000
 40
1.000000
 10
717.963430
 20
579.575372
 30
0.000000
 10
718.215911
 20
579.750440
 30
0.000000
 10
718.461368
 20
579.935511
 30
0.000000
 10
718.706824
 20
580.120583
 30
0.000000
  0
SPLINE
  5
316
330
1F
100
AcDbEntity
  8
0
 62
     5
100
AcDbSpline
210
0.000000
220
0.000000
230
1.0
 70
     8
 71
     3
 72
     8
 73
     4
 42
0.0000000001
 43
0.0000000001
 44
0.0000000001
 12
0.000000
 22
0.000000
 32
0.000000
 13
0.000000
 23
0.000000
 33
0.000000
 40
0.000000
 40
0.000000
 40
0.000000
 40
0.000000
 40
1.000000
 40
1.000000
 40
1.000000
 40
1.000000
 10
718.706824
 20
580.120583
 30
0.000000
 10
718.806035
 20
580.238336
 30
0.000000
 10
718.905246
 20
580.356090
 30
0.000000
 10
718.946816
 20
580.498553
 30
0.000000
  0
SPLINE
  5
317
330
1F
100
AcDbEntity
  8
0
 62
     5
100
AcDbSpline
210
0.000000
220
0.000000
230
1.0
 70
     8
 71
     3
 72
     8
 73
     4
 42
0.0000000001
 43
0.0000000001
 44
0.0000000001
 12
0.000000
 22
0.000000
 32
0.000000
 13
0.000000
 23
0.000000
 33
0.000000
 40
0.000000
 40
0.000000
 40
0.000000
 40
0.000000
 40
1.000000
 40
1.000000
 40
1.000000
 40
1.000000
 10
718.946816
 20
580.498553
 30
0.000000
 10
718.984289
 20
580.626974
 30
0.000000
 10
718.974922
 20
580.775474
 30
0.000000
 10
718.925905
 20
580.901608
 30
0.000000
  0
SPLINE
  5
318
330
1F
100
AcDbEntity
  8
0
 62
     5
100
AcDbSpline
210
0.000000
220
0.000000
230
1.0
 70
     8
 71
     3
 72
     8
 73
     4
 42
0.0000000001
 43
0.0000000001
 44
0.0000000001
 12
0.000000
 22
0.000000
 32
0.000000
 13
0.000000
 23
0.000000
 33
0.000000
 40
0.000000
 40
0.000000
 40
0.000000
 40
0.000000
 40
1.000000
 40
1.000000
 40
1.000000
 40
1.000000
 10
718.925905
 20
580.901608
 30
0.000000
 10
718.874461
 20
581.033986
 30
0.000000
 10
718.779343
 20
581.141729
 30
0.000000
 10
718.684224
 20
581.249472
 30
0.000000
  0
SPLINE
  5
319
330
1F
100
AcDbEntity
  8
0
 62
     5
100
AcDbSpline
210
0.000000
220
0.000000
230
1.0
 70
     8
 71
     3
 72
     8
 73
     4
 42
0.0000000001
 43
0.0000000001
 44
0.0000000001
 12
0.000000
 22
0.000000
 32
0.000000
 13
0.000000
 23
0.000000
 33
0.000000
 40
0.000000
 40
0.000000
 40
0.000000
 40
0.000000
 40
1.000000
 40
1.000000
 40
1.000000
 40
1.000000
 10
718.684224
 20
581.249472
 30
0.000000
 10
718.384585
 20
581.018032
 30
0.000000
 10
718.084946
 20
580.786592
 30
0.000000
 10
717.771916
 20
580.574647
 30
0.000000
  0
SPLINE
  5
320
330
1F
100
AcDbEntity
  8
0
 62
     5
100
AcDbSpline
210
0.000000
220
0.000000
230
1.0
 70
     8
 71
     3
 72
     8
 73
     4
 42
0.0000000001
 43
0.0000000001
 44
0.0000000001
 12
0.000000
 22
0.000000
 32
0.000000
 13
0.000000
 23
0.000000
 33
0.000000
 40
0.000000
 40
0.000000
 40
0.000000
 40
0.000000
 40
1.000000
 40
1.000000
 40
1.000000
 40
1.000000
 10
717.771916
 20
580.574647
 30
0.000000
 10
717.417379
 20
580.334598
 30
0.000000
 10
717.045664
 20
580.119556
 30
0.000000
 10
716.668951
 20
579.914875
 30
0.000000
  0
SPLINE
  5
321
330
1F
100
AcDbEntity
  8
0
 62
     5
100
AcDbSpline
210
0.000000
220
0.000000
230
1.0
 70
     8
 71
     3
 72
     8
 73
     4
 42
0.0000000001
 43
0.0000000001
 44
0.0000000001
 12
0.000000
 22
0.000000
 32
0.000000
 13
0.000000
 23
0.000000
 33
0.000000
 40
0.000000
 40
0.000000
 40
0.000000
 40
0.000000
 40
1.000000
 40
1.000000
 40
1.000000
 40
1.000000
 10
716.668951
 20
579.914875
 30
0.000000
 10
716.268272
 20
579.697171
 30
0.000000
 10
715.861938
 20
579.491188
 30
0.000000
 10
715.455604
 20
579.285205
 30
0.000000
  0
SPLINE
  5
322
330
1F
100
AcDbEntity
  8
0
 62
     5
100
AcDbSpline
210
0.000000
220
0.000000
230
1.0
 70
     8
 71
     3
 72
     8
 73
     4
 42
0.0000000001
 43
0.0000000001
 44
0.0000000001
 12
0.000000
 22
0.000000
 32
0.000000
 13
0.000000
 23
0.000000
 33
0.000000
 40
0.000000
 40
0.000000
 40
0.000000
 40
0.000000
 40
1.000000
 40
1.000000
 40
1.000000
 40
1.000000
 10
715.455604
 20
579.285205
 30
0.000000
 10
715.478336
 20
579.385236
 30
0.000000
 10
715.501068
 20
579.485268
 30
0.000000
 10
715.523323
 20
579.585406
 30
0.000000
  0
SPLINE
  5
323
330
1F
100
AcDbEntity
  8
0
 62
     5
100
AcDbSpline
210
0.000000
220
0.000000
230
1.0
 70
     8
 71
     3
 72
     8
 73
     4
 42
0.0000000001
 43
0.0000000001
 44
0.0000000001
 12
0.000000
 22
0.000000
 32
0.000000
 13
0.000000
 23
0.000000
 33
0.000000
 40
0.000000
 40
0.000000
 40
0.000000
 40
0.000000
 40
1.000000
 40
1.000000
 40
1.000000
 40
1.000000
 10
715.523323
 20
579.585406
 30
0.000000
 10
715.546286
 20
579.688733
 30
0.000000
 10
715.568740
 20
579.792174
 30
0.000000
 10
715.591064
 20
579.895641
 30
0.000000
  0
SPLINE
  5
324
330
1F
100
AcDbEntity
  8
0
 62
     5
100
AcDbSpline
210
0.000000
220
0.000000
230
1.0
 70
     8
 71
     3
 72
     8
 73
     4
 42
0.0000000001
 43
0.0000000001
 44
0.0000000001
 12
0.000000
 22
0.000000
 32
0.000000
 13
0.000000
 23
0.000000
 33
0.000000
 40
0.000000
 40
0.000000
 40
0.000000
 40
0.000000
 40
1.000000
 40
1.000000
 40
1.000000
 40
1.000000
 10
715.591064
 20
579.895641
 30
0.000000
 10
715.613733
 20
580.000707
 30
0.000000
 10
715.636269
 20
580.105800
 30
0.000000
 10
715.658804
 20
580.210894
 30
0.000000
  0
LINE
  5
325
330
1F
100
AcDbEntity
  8
0
  62
5
100
AcDbLine
 10
715.658804
 20
580.210894
 30
0.000000
 11
717.577914
 21
589.151694
 31
0.000000
  0
SPLINE
  5
326
330
1F
100
AcDbEntity
  8
0
 62
     5
100
AcDbSpline
210
0.000000
220
0.000000
230
1.0
 70
     8
 71
     3
 72
     8
 73
     4
 42
0.0000000001
 43
0.0000000001
 44
0.0000000001
 12
0.000000
 22
0.000000
 32
0.000000
 13
0.000000
 23
0.000000
 33
0.000000
 40
0.000000
 40
0.000000
 40
0.000000
 40
0.000000
 40
1.000000
 40
1.000000
 40
1.000000
 40
1.000000
 10
717.577914
 20
589.151694
 30
0.000000
 10
717.478068
 20
589.208155
 30
0.000000
 10
717.378221
 20
589.264616
 30
0.000000
 10
717.272699
 20
589.308066
 30
0.000000
  0
SPLINE
  5
327
330
1F
100
AcDbEntity
  8
0
 62
     5
100
AcDbSpline
210
0.000000
220
0.000000
230
1.0
 70
     8
 71
     3
 72
     8
 73
     4
 42
0.0000000001
 43
0.0000000001
 44
0.0000000001
 12
0.000000
 22
0.000000
 32
0.000000
 13
0.000000
 23
0.000000
 33
0.000000
 40
0.000000
 40
0.000000
 40
0.000000
 40
0.000000
 40
1.000000
 40
1.000000
 40
1.000000
 40
1.000000
 10
717.272699
 20
589.308066
 30
0.000000
 10
717.157515
 20
589.355495
 30
0.000000
 10
717.035569
 20
589.387423
 30
0.000000
 10
716.912293
 20
589.409248
 30
0.000000
  0
SPLINE
  5
328
330
1F
100
AcDbEntity
  8
0
 62
     5
100
AcDbSpline
210
0.000000
220
0.000000
230
1.0
 70
     8
 71
     3
 72
     8
 73
     4
 42
0.0000000001
 43
0.0000000001
 44
0.0000000001
 12
0.000000
 22
0.000000
 32
0.000000
 13
0.000000
 23
0.000000
 33
0.000000
 40
0.000000
 40
0.000000
 40
0.000000
 40
0.000000
 40
1.000000
 40
1.000000
 40
1.000000
 40
1.000000
 10
716.912293
 20
589.409248
 30
0.000000
 10
716.781501
 20
589.432404
 30
0.000000
 10
716.649213
 20
589.444188
 30
0.000000
 10
716.516763
 20
589.445205
 30
0.000000
  0
SPLINE
  5
329
330
1F
100
AcDbEntity
  8
0
 62
     5
100
AcDbSpline
210
0.000000
220
0.000000
230
1.0
 70
     8
 71
     3
 72
     8
 73
     4
 42
0.0000000001
 43
0.0000000001
 44
0.0000000001
 12
0.000000
 22
0.000000
 32
0.000000
 13
0.000000
 23
0.000000
 33
0.000000
 40
0.000000
 40
0.000000
 40
0.000000
 40
0.000000
 40
1.000000
 40
1.000000
 40
1.000000
 40
1.000000
 10
716.516763
 20
589.445205
 30
0.000000
 10
716.245121
 20
589.447291
 30
0.000000
 10
715.972799
 20
589.404085
 30
0.000000
 10
715.713997
 20
589.307230
 30
0.000000
  0
SPLINE
  5
330
330
1F
100
AcDbEntity
  8
0
 62
     5
100
AcDbSpline
210
0.000000
220
0.000000
230
1.0
 70
     8
 71
     3
 72
     8
 73
     4
 42
0.0000000001
 43
0.0000000001
 44
0.0000000001
 12
0.000000
 22
0.000000
 32
0.000000
 13
0.000000
 23
0.000000
 33
0.000000
 40
0.000000
 40
0.000000
 40
0.000000
 40
0.000000
 40
1.000000
 40
1.000000
 40
1.000000
 40
1.000000
 10
715.713997
 20
589.307230
 30
0.000000
 10
715.453579
 20
589.209771
 30
0.000000
 10
715.206849
 20
589.057990
 30
0.000000
 10
715.031644
 20
588.853166
 30
0.000000
  0
SPLINE
  5
331
330
1F
100
AcDbEntity
  8
0
 62
     5
100
AcDbSpline
210
0.000000
220
0.000000
230
1.0
 70
     8
 71
     3
 72
     8
 73
     4
 42
0.0000000001
 43
0.0000000001
 44
0.0000000001
 12
0.000000
 22
0.000000
 32
0.000000
 13
0.000000
 23
0.000000
 33
0.000000
 40
0.000000
 40
0.000000
 40
0.000000
 40
0.000000
 40
1.000000
 40
1.000000
 40
1.000000
 40
1.000000
 10
715.031644
 20
588.853166
 30
0.000000
 10
714.833549
 20
588.621584
 30
0.000000
 10
714.726887
 20
588.322194
 30
0.000000
 10
714.620224
 20
588.022805
 30
0.000000
  0
LINE
  5
332
330
1F
100
AcDbEntity
  8
0
  62
5
100
AcDbLine
 10
714.620224
 20
588.022805
 30
0.000000
 11
713.152674
 21
581.272050
 31
0.000000
  0
SPLINE
  5
333
330
1F
100
AcDbEntity
  8
0
 62
     5
100
AcDbSpline
210
0.000000
220
0.000000
230
1.0
 70
     8
 71
     3
 72
     8
 73
     4
 42
0.0000000001
 43
0.0000000001
 44
0.0000000001
 12
0.000000
 22
0.000000
 32
0.000000
 13
0.000000
 23
0.000000
 33
0.000000
 40
0.000000
 40
0.000000
 40
0.000000
 40
0.000000
 40
1.000000
 40
1.000000
 40
1.000000
 40
1.000000
 10
713.152674
 20
581.272050
 30
0.000000
 10
712.980457
 20
581.119710
 30
0.000000
 10
712.808239
 20
580.967370
 30
0.000000
 10
712.616658
 20
580.840564
 30
0.000000
  0
SPLINE
  5
334
330
1F
100
AcDbEntity
  8
0
 62
     5
100
AcDbSpline
210
0.000000
220
0.000000
230
1.0
 70
     8
 71
     3
 72
     8
 73
     4
 42
0.0000000001
 43
0.0000000001
 44
0.0000000001
 12
0.000000
 22
0.000000
 32
0.000000
 13
0.000000
 23
0.000000
 33
0.000000
 40
0.000000
 40
0.000000
 40
0.000000
 40
0.000000
 40
1.000000
 40
1.000000
 40
1.000000
 40
1.000000
 10
712.616658
 20
580.840564
 30
0.000000
 10
712.438190
 20
580.722436
 30
0.000000
 10
712.242919
 20
580.626467
 30
0.000000
 10
712.040505
 20
580.559596
 30
0.000000
  0
SPLINE
  5
335
330
1F
100
AcDbEntity
  8
0
 62
     5
100
AcDbSpline
210
0.000000
220
0.000000
230
1.0
 70
     8
 71
     3
 72
     8
 73
     4
 42
0.0000000001
 43
0.0000000001
 44
0.0000000001
 12
0.000000
 22
0.000000
 32
0.000000
 13
0.000000
 23
0.000000
 33
0.000000
 40
0.000000
 40
0.000000
 40
0.000000
 40
0.000000
 40
1.000000
 40
1.000000
 40
1.000000
 40
1.000000
 10
712.040505
 20
580.559596
 30
0.000000
 10
711.840207
 20
580.493424
 30
0.000000
 10
711.632915
 20
580.455744
 30
0.000000
 10
711.414183
 20
580.459250
 30
0.000000
  0
SPLINE
  5
336
330
1F
100
AcDbEntity
  8
0
 62
     5
100
AcDbSpline
210
0.000000
220
0.000000
230
1.0
 70
     8
 71
     3
 72
     8
 73
     4
 42
0.0000000001
 43
0.0000000001
 44
0.0000000001
 12
0.000000
 22
0.000000
 32
0.000000
 13
0.000000
 23
0.000000
 33
0.000000
 40
0.000000
 40
0.000000
 40
0.000000
 40
0.000000
 40
1.000000
 40
1.000000
 40
1.000000
 40
1.000000
 10
711.414183
 20
580.459250
 30
0.000000
 10
711.210984
 20
580.462508
 30
0.000000
 10
710.997912
 20
580.501310
 30
0.000000
 10
710.848901
 20
580.625657
 30
0.000000
  0
SPLINE
  5
337
330
1F
100
AcDbEntity
  8
0
 62
     5
100
AcDbSpline
210
0.000000
220
0.000000
230
1.0
 70
     8
 71
     3
 72
     8
 73
     4
 42
0.0000000001
 43
0.0000000001
 44
0.0000000001
 12
0.000000
 22
0.000000
 32
0.000000
 13
0.000000
 23
0.000000
 33
0.000000
 40
0.000000
 40
0.000000
 40
0.000000
 40
0.000000
 40
1.000000
 40
1.000000
 40
1.000000
 40
1.000000
 10
710.848901
 20
580.625657
 30
0.000000
 10
710.721738
 20
580.731771
 30
0.000000
 10
710.641228
 20
580.900184
 30
0.000000
 10
710.609743
 20
581.068014
 30
0.000000
  0
SPLINE
  5
338
330
1F
100
AcDbEntity
  8
0
 62
     5
100
AcDbSpline
210
0.000000
220
0.000000
230
1.0
 70
     8
 71
     3
 72
     8
 73
     4
 42
0.0000000001
 43
0.0000000001
 44
0.0000000001
 12
0.000000
 22
0.000000
 32
0.000000
 13
0.000000
 23
0.000000
 33
0.000000
 40
0.000000
 40
0.000000
 40
0.000000
 40
0.000000
 40
1.000000
 40
1.000000
 40
1.000000
 40
1.000000
 10
710.609743
 20
581.068014
 30
0.000000
 10
710.570042
 20
581.279636
 30
0.000000
 10
710.608288
 20
581.490331
 30
0.000000
 10
710.646534
 20
581.701027
 30
0.000000
  0
LINE
  5
339
330
1F
100
AcDbEntity
  8
0
  62
5
100
AcDbLine
 10
710.646534
 20
581.701027
 30
0.000000
 11
712.046364
 21
588.203427
 31
0.000000
  0
SPLINE
  5
340
330
1F
100
AcDbEntity
  8
0
 62
     5
100
AcDbSpline
210
0.000000
220
0.000000
230
1.0
 70
     8
 71
     3
 72
     8
 73
     4
 42
0.0000000001
 43
0.0000000001
 44
0.0000000001
 12
0.000000
 22
0.000000
 32
0.000000
 13
0.000000
 23
0.000000
 33
0.000000
 40
0.000000
 40
0.000000
 40
0.000000
 40
0.000000
 40
1.000000
 40
1.000000
 40
1.000000
 40
1.000000
 10
712.046364
 20
588.203427
 30
0.000000
 10
712.084668
 20
588.449021
 30
0.000000
 10
712.122972
 20
588.694616
 30
0.000000
 10
712.036327
 20
588.906684
 30
0.000000
  0
SPLINE
  5
341
330
1F
100
AcDbEntity
  8
0
 62
     5
100
AcDbSpline
210
0.000000
220
0.000000
230
1.0
 70
     8
 71
     3
 72
     8
 73
     4
 42
0.0000000001
 43
0.0000000001
 44
0.0000000001
 12
0.000000
 22
0.000000
 32
0.000000
 13
0.000000
 23
0.000000
 33
0.000000
 40
0.000000
 40
0.000000
 40
0.000000
 40
0.000000
 40
1.000000
 40
1.000000
 40
1.000000
 40
1.000000
 10
712.036327
 20
588.906684
 30
0.000000
 10
711.967175
 20
589.075937
 30
0.000000
 10
711.818432
 20
589.223834
 30
0.000000
 10
711.649994
 20
589.313919
 30
0.000000
  0
SPLINE
  5
342
330
1F
100
AcDbEntity
  8
0
 62
     5
100
AcDbSpline
210
0.000000
220
0.000000
230
1.0
 70
     8
 71
     3
 72
     8
 73
     4
 42
0.0000000001
 43
0.0000000001
 44
0.0000000001
 12
0.000000
 22
0.000000
 32
0.000000
 13
0.000000
 23
0.000000
 33
0.000000
 40
0.000000
 40
0.000000
 40
0.000000
 40
0.000000
 40
1.000000
 40
1.000000
 40
1.000000
 40
1.000000
 10
711.649994
 20
589.313919
 30
0.000000
 10
711.440007
 20
589.426226
 30
0.000000
 10
711.199409
 20
589.448683
 30
0.000000
 10
710.962624
 20
589.445205
 30
0.000000
  0
SPLINE
  5
343
330
1F
100
AcDbEntity
  8
0
 62
     5
100
AcDbSpline
210
0.000000
220
0.000000
230
1.0
 70
     8
 71
     3
 72
     8
 73
     4
 42
0.0000000001
 43
0.0000000001
 44
0.0000000001
 12
0.000000
 22
0.000000
 32
0.000000
 13
0.000000
 23
0.000000
 33
0.000000
 40
0.000000
 40
0.000000
 40
0.000000
 40
0.000000
 40
1.000000
 40
1.000000
 40
1.000000
 40
1.000000
 10
710.962624
 20
589.445205
 30
0.000000
 10
710.651987
 20
589.440643
 30
0.000000
 10
710.347912
 20
589.391446
 30
0.000000
 10
710.056172
 20
589.299705
 30
0.000000
  0
SPLINE
  5
344
330
1F
100
AcDbEntity
  8
0
 62
     5
100
AcDbSpline
210
0.000000
220
0.000000
230
1.0
 70
     8
 71
     3
 72
     8
 73
     4
 42
0.0000000001
 43
0.0000000001
 44
0.0000000001
 12
0.000000
 22
0.000000
 32
0.000000
 13
0.000000
 23
0.000000
 33
0.000000
 40
0.000000
 40
0.000000
 40
0.000000
 40
0.000000
 40
1.000000
 40
1.000000
 40
1.000000
 40
1.000000
 10
710.056172
 20
589.299705
 30
0.000000
 10
709.763451
 20
589.207654
 30
0.000000
 10
709.483148
 20
589.072772
 30
0.000000
 10
709.219959
 20
588.913374
 30
0.000000
  0
SPLINE
  5
345
330
1F
100
AcDbEntity
  8
0
 62
     5
100
AcDbSpline
210
0.000000
220
0.000000
230
1.0
 70
     8
 71
     3
 72
     8
 73
     4
 42
0.0000000001
 43
0.0000000001
 44
0.0000000001
 12
0.000000
 22
0.000000
 32
0.000000
 13
0.000000
 23
0.000000
 33
0.000000
 40
0.000000
 40
0.000000
 40
0.000000
 40
0.000000
 40
1.000000
 40
1.000000
 40
1.000000
 40
1.000000
 10
709.219959
 20
588.913374
 30
0.000000
 10
708.945540
 20
588.747175
 30
0.000000
 10
708.689727
 20
588.554323
 30
0.000000
 10
708.433914
 20
588.361472
 30
0.000000
  0
SPLINE
  5
346
330
1F
100
AcDbEntity
  8
0
 62
     5
100
AcDbSpline
210
0.000000
220
0.000000
230
1.0
 70
     8
 71
     3
 72
     8
 73
     4
 42
0.0000000001
 43
0.0000000001
 44
0.0000000001
 12
0.000000
 22
0.000000
 32
0.000000
 13
0.000000
 23
0.000000
 33
0.000000
 40
0.000000
 40
0.000000
 40
0.000000
 40
0.000000
 40
1.000000
 40
1.000000
 40
1.000000
 40
1.000000
 10
708.433914
 20
588.361472
 30
0.000000
 10
708.323817
 20
588.223131
 30
0.000000
 10
708.213719
 20
588.084791
 30
0.000000
 10
708.168000
 20
587.919115
 30
0.000000
  0
SPLINE
  5
347
330
1F
100
AcDbEntity
  8
0
 62
     5
100
AcDbSpline
210
0.000000
220
0.000000
230
1.0
 70
     8
 71
     3
 72
     8
 73
     4
 42
0.0000000001
 43
0.0000000001
 44
0.0000000001
 12
0.000000
 22
0.000000
 32
0.000000
 13
0.000000
 23
0.000000
 33
0.000000
 40
0.000000
 40
0.000000
 40
0.000000
 40
0.000000
 40
1.000000
 40
1.000000
 40
1.000000
 40
1.000000
 10
708.168000
 20
587.919115
 30
0.000000
 10
708.125591
 20
587.765432
 30
0.000000
 10
708.138577
 20
587.588227
 30
0.000000
 10
708.203120
 20
587.441637
 30
0.000000
  0
SPLINE
  5
348
330
1F
100
AcDbEntity
  8
0
 62
     5
100
AcDbSpline
210
0.000000
220
0.000000
230
1.0
 70
     8
 71
     3
 72
     8
 73
     4
 42
0.0000000001
 43
0.0000000001
 44
0.0000000001
 12
0.000000
 22
0.000000
 32
0.000000
 13
0.000000
 23
0.000000
 33
0.000000
 40
0.000000
 40
0.000000
 40
0.000000
 40
0.000000
 40
1.000000
 40
1.000000
 40
1.000000
 40
1.000000
 10
708.203120
 20
587.441637
 30
0.000000
 10
708.256522
 20
587.320351
 30
0.000000
 10
708.345218
 20
587.220022
 30
0.000000
 10
708.433914
 20
587.119694
 30
0.000000
  0
SPLINE
  5
349
330
1F
100
AcDbEntity
  8
0
 62
     5
100
AcDbSpline
210
0.000000
220
0.000000
230
1.0
 70
     8
 71
     3
 72
     8
 73
     4
 42
0.0000000001
 43
0.0000000001
 44
0.0000000001
 12
0.000000
 22
0.000000
 32
0.000000
 13
0.000000
 23
0.000000
 33
0.000000
 40
0.000000
 40
0.000000
 40
0.000000
 40
0.000000
 40
1.000000
 40
1.000000
 40
1.000000
 40
1.000000
 10
708.456514
 20
571.360405
 30
0.000000
 10
708.950398
 20
571.489228
 30
0.000000
 10
709.444282
 20
571.618052
 30
0.000000
 10
709.829579
 20
571.893074
 30
0.000000
  0
SPLINE
  5
350
330
1F
100
AcDbEntity
  8
0
 62
     5
100
AcDbSpline
210
0.000000
220
0.000000
230
1.0
 70
     8
 71
     3
 72
     8
 73
     4
 42
0.0000000001
 43
0.0000000001
 44
0.0000000001
 12
0.000000
 22
0.000000
 32
0.000000
 13
0.000000
 23
0.000000
 33
0.000000
 40
0.000000
 40
0.000000
 40
0.000000
 40
0.000000
 40
1.000000
 40
1.000000
 40
1.000000
 40
1.000000
 10
709.829579
 20
571.893074
 30
0.000000
 10
710.360675
 20
572.272166
 30
0.000000
 10
710.685455
 20
572.929036
 30
0.000000
 10
710.966828
 20
573.574700
 30
0.000000
  0
SPLINE
  5
351
330
1F
100
AcDbEntity
  8
0
 62
     5
100
AcDbSpline
210
0.000000
220
0.000000
230
1.0
 70
     8
 71
     3
 72
     8
 73
     4
 42
0.0000000001
 43
0.0000000001
 44
0.0000000001
 12
0.000000
 22
0.000000
 32
0.000000
 13
0.000000
 23
0.000000
 33
0.000000
 40
0.000000
 40
0.000000
 40
0.000000
 40
0.000000
 40
1.000000
 40
1.000000
 40
1.000000
 40
1.000000
 10
710.966828
 20
573.574700
 30
0.000000
 10
711.404089
 20
574.578080
 30
0.000000
 10
711.736522
 20
575.554398
 30
0.000000
 10
712.068954
 20
576.530716
 30
0.000000
  0
SPLINE
  5
352
330
1F
100
AcDbEntity
  8
0
 62
     5
100
AcDbSpline
210
0.000000
220
0.000000
230
1.0
 70
     8
 71
     3
 72
     8
 73
     4
 42
0.0000000001
 43
0.0000000001
 44
0.0000000001
 12
0.000000
 22
0.000000
 32
0.000000
 13
0.000000
 23
0.000000
 33
0.000000
 40
0.000000
 40
0.000000
 40
0.000000
 40
0.000000
 40
1.000000
 40
1.000000
 40
1.000000
 40
1.000000
 10
712.068954
 20
576.530716
 30
0.000000
 10
711.268185
 20
576.131141
 30
0.000000
 10
710.467415
 20
575.731567
 30
0.000000
 10
709.698290
 20
575.264689
 30
0.000000
  0
SPLINE
  5
353
330
1F
100
AcDbEntity
  8
0
 62
     5
100
AcDbSpline
210
0.000000
220
0.000000
230
1.0
 70
     8
 71
     3
 72
     8
 73
     4
 42
0.0000000001
 43
0.0000000001
 44
0.0000000001
 12
0.000000
 22
0.000000
 32
0.000000
 13
0.000000
 23
0.000000
 33
0.000000
 40
0.000000
 40
0.000000
 40
0.000000
 40
0.000000
 40
1.000000
 40
1.000000
 40
1.000000
 40
1.000000
 10
709.698290
 20
575.264689
 30
0.000000
 10
709.109860
 20
574.907497
 30
0.000000
 10
708.539952
 20
574.510911
 30
0.000000
 10
708.110320
 20
573.958523
 30
0.000000
  0
SPLINE
  5
354
330
1F
100
AcDbEntity
  8
0
 62
     5
100
AcDbSpline
210
0.000000
220
0.000000
230
1.0
 70
     8
 71
     3
 72
     8
 73
     4
 42
0.0000000001
 43
0.0000000001
 44
0.0000000001
 12
0.000000
 22
0.000000
 32
0.000000
 13
0.000000
 23
0.000000
 33
0.000000
 40
0.000000
 40
0.000000
 40
0.000000
 40
0.000000
 40
1.000000
 40
1.000000
 40
1.000000
 40
1.000000
 10
708.110320
 20
573.958523
 30
0.000000
 10
707.767102
 20
573.517239
 30
0.000000
 10
707.513407
 20
572.976524
 30
0.000000
 10
707.530824
 20
572.421561
 30
0.000000
  0
SPLINE
  5
355
330
1F
100
AcDbEntity
  8
0
 62
     5
100
AcDbSpline
210
0.000000
220
0.000000
230
1.0
 70
     8
 71
     3
 72
     8
 73
     4
 42
0.0000000001
 43
0.0000000001
 44
0.0000000001
 12
0.000000
 22
0.000000
 32
0.000000
 13
0.000000
 23
0.000000
 33
0.000000
 40
0.000000
 40
0.000000
 40
0.000000
 40
0.000000
 40
1.000000
 40
1.000000
 40
1.000000
 40
1.000000
 10
707.530824
 20
572.421561
 30
0.000000
 10
707.537718
 20
572.201867
 30
0.000000
 10
707.587101
 20
571.979939
 30
0.000000
 10
707.705593
 20
571.795236
 30
0.000000
  0
SPLINE
  5
356
330
1F
100
AcDbEntity
  8
0
 62
     5
100
AcDbSpline
210
0.000000
220
0.000000
230
1.0
 70
     8
 71
     3
 72
     8
 73
     4
 42
0.0000000001
 43
0.0000000001
 44
0.0000000001
 12
0.000000
 22
0.000000
 32
0.000000
 13
0.000000
 23
0.000000
 33
0.000000
 40
0.000000
 40
0.000000
 40
0.000000
 40
0.000000
 40
1.000000
 40
1.000000
 40
1.000000
 40
1.000000
 10
707.705593
 20
571.795236
 30
0.000000
 10
707.798009
 20
571.651180
 30
0.000000
 10
707.932464
 20
571.529768
 30
0.000000
 10
708.086071
 20
571.459915
 30
0.000000
  0
SPLINE
  5
357
330
1F
100
AcDbEntity
  8
0
 62
     5
100
AcDbSpline
210
0.000000
220
0.000000
230
1.0
 70
     8
 71
     3
 72
     8
 73
     4
 42
0.0000000001
 43
0.0000000001
 44
0.0000000001
 12
0.000000
 22
0.000000
 32
0.000000
 13
0.000000
 23
0.000000
 33
0.000000
 40
0.000000
 40
0.000000
 40
0.000000
 40
0.000000
 40
1.000000
 40
1.000000
 40
1.000000
 40
1.000000
 10
708.086071
 20
571.459915
 30
0.000000
 10
708.202248
 20
571.407083
 30
0.000000
 10
708.329381
 20
571.383744
 30
0.000000
 10
708.456514
 20
571.360405
 30
0.000000
  0
SPLINE
  5
358
330
1F
100
AcDbEntity
  8
0
 62
     5
100
AcDbSpline
210
0.000000
220
0.000000
230
1.0
 70
     8
 71
     3
 72
     8
 73
     4
 42
0.0000000001
 43
0.0000000001
 44
0.0000000001
 12
0.000000
 22
0.000000
 32
0.000000
 13
0.000000
 23
0.000000
 33
0.000000
 40
0.000000
 40
0.000000
 40
0.000000
 40
0.000000
 40
1.000000
 40
1.000000
 40
1.000000
 40
1.000000
 10
726.247454
 20
588.790450
 30
0.000000
 10
726.044955
 20
588.940777
 30
0.000000
 10
725.842456
 20
589.091104
 30
0.000000
 10
725.619454
 20
589.204376
 30
0.000000
  0
SPLINE
  5
359
330
1F
100
AcDbEntity
  8
0
 62
     5
100
AcDbSpline
210
0.000000
220
0.000000
230
1.0
 70
     8
 71
     3
 72
     8
 73
     4
 42
0.0000000001
 43
0.0000000001
 44
0.0000000001
 12
0.000000
 22
0.000000
 32
0.000000
 13
0.000000
 23
0.000000
 33
0.000000
 40
0.000000
 40
0.000000
 40
0.000000
 40
0.000000
 40
1.000000
 40
1.000000
 40
1.000000
 40
1.000000
 10
725.619454
 20
589.204376
 30
0.000000
 10
725.380006
 20
589.326003
 30
0.000000
 10
725.116919
 20
589.404907
 30
0.000000
 10
724.850976
 20
589.452731
 30
0.000000
  0
SPLINE
  5
360
330
1F
100
AcDbEntity
  8
0
 62
     5
100
AcDbSpline
210
0.000000
220
0.000000
230
1.0
 70
     8
 71
     3
 72
     8
 73
     4
 42
0.0000000001
 43
0.0000000001
 44
0.0000000001
 12
0.000000
 22
0.000000
 32
0.000000
 13
0.000000
 23
0.000000
 33
0.000000
 40
0.000000
 40
0.000000
 40
0.000000
 40
0.000000
 40
1.000000
 40
1.000000
 40
1.000000
 40
1.000000
 10
724.850976
 20
589.452731
 30
0.000000
 10
724.543838
 20
589.507963
 30
0.000000
 10
724.232891
 20
589.521739
 30
0.000000
 10
723.921944
 20
589.535516
 30
0.000000
  0
SPLINE
  5
361
330
1F
100
AcDbEntity
  8
0
 62
     5
100
AcDbSpline
210
0.000000
220
0.000000
230
1.0
 70
     8
 71
     3
 72
     8
 73
     4
 42
0.0000000001
 43
0.0000000001
 44
0.0000000001
 12
0.000000
 22
0.000000
 32
0.000000
 13
0.000000
 23
0.000000
 33
0.000000
 40
0.000000
 40
0.000000
 40
0.000000
 40
0.000000
 40
1.000000
 40
1.000000
 40
1.000000
 40
1.000000
 10
723.921944
 20
589.535516
 30
0.000000
 10
722.892996
 20
589.251207
 30
0.000000
 10
721.864047
 20
588.966899
 30
0.000000
 10
721.052058
 20
588.370670
 30
0.000000
  0
SPLINE
  5
362
330
1F
100
AcDbEntity
  8
0
 62
     5
100
AcDbSpline
210
0.000000
220
0.000000
230
1.0
 70
     8
 71
     3
 72
     8
 73
     4
 42
0.0000000001
 43
0.0000000001
 44
0.0000000001
 12
0.000000
 22
0.000000
 32
0.000000
 13
0.000000
 23
0.000000
 33
0.000000
 40
0.000000
 40
0.000000
 40
0.000000
 40
0.000000
 40
1.000000
 40
1.000000
 40
1.000000
 40
1.000000
 10
721.052058
 20
588.370670
 30
0.000000
 10
720.118809
 20
587.685403
 30
0.000000
 10
719.472158
 20
586.588097
 30
0.000000
 10
719.010023
 20
585.454793
 30
0.000000
  0
SPLINE
  5
363
330
1F
100
AcDbEntity
  8
0
 62
     5
100
AcDbSpline
210
0.000000
220
0.000000
230
1.0
 70
     8
 71
     3
 72
     8
 73
     4
 42
0.0000000001
 43
0.0000000001
 44
0.0000000001
 12
0.000000
 22
0.000000
 32
0.000000
 13
0.000000
 23
0.000000
 33
0.000000
 40
0.000000
 40
0.000000
 40
0.000000
 40
0.000000
 40
1.000000
 40
1.000000
 40
1.000000
 40
1.000000
 10
719.010023
 20
585.454793
 30
0.000000
 10
718.506619
 20
584.220284
 30
0.000000
 10
718.222155
 20
582.943059
 30
0.000000
 10
718.232344
 20
581.655873
 30
0.000000
  0
SPLINE
  5
364
330
1F
100
AcDbEntity
  8
0
 62
     5
100
AcDbSpline
210
0.000000
220
0.000000
230
1.0
 70
     8
 71
     3
 72
     8
 73
     4
 42
0.0000000001
 43
0.0000000001
 44
0.0000000001
 12
0.000000
 22
0.000000
 32
0.000000
 13
0.000000
 23
0.000000
 33
0.000000
 40
0.000000
 40
0.000000
 40
0.000000
 40
0.000000
 40
1.000000
 40
1.000000
 40
1.000000
 40
1.000000
 10
718.232344
 20
581.655873
 30
0.000000
 10
718.236650
 20
581.111782
 30
0.000000
 10
718.293603
 20
580.565912
 30
0.000000
 10
718.442232
 20
580.030272
 30
0.000000
  0
SPLINE
  5
365
330
1F
100
AcDbEntity
  8
0
 62
     5
100
AcDbSpline
210
0.000000
220
0.000000
230
1.0
 70
     8
 71
     3
 72
     8
 73
     4
 42
0.0000000001
 43
0.0000000001
 44
0.0000000001
 12
0.000000
 22
0.000000
 32
0.000000
 13
0.000000
 23
0.000000
 33
0.000000
 40
0.000000
 40
0.000000
 40
0.000000
 40
0.000000
 40
1.000000
 40
1.000000
 40
1.000000
 40
1.000000
 10
718.442232
 20
580.030272
 30
0.000000
 10
718.598405
 20
579.467449
 30
0.000000
 10
718.855795
 20
578.915922
 30
0.000000
 10
719.279281
 20
578.525087
 30
0.000000
  0
SPLINE
  5
366
330
1F
100
AcDbEntity
  8
0
 62
     5
100
AcDbSpline
210
0.000000
220
0.000000
230
1.0
 70
     8
 71
     3
 72
     8
 73
     4
 42
0.0000000001
 43
0.0000000001
 44
0.0000000001
 12
0.000000
 22
0.000000
 32
0.000000
 13
0.000000
 23
0.000000
 33
0.000000
 40
0.000000
 40
0.000000
 40
0.000000
 40
0.000000
 40
1.000000
 40
1.000000
 40
1.000000
 40
1.000000
 10
719.279281
 20
578.525087
 30
0.000000
 10
719.745188
 20
578.095102
 30
0.000000
 10
720.412132
 20
577.859615
 30
0.000000
 10
721.054564
 20
577.862805
 30
0.000000
  0
SPLINE
  5
367
330
1F
100
AcDbEntity
  8
0
 62
     5
100
AcDbSpline
210
0.000000
220
0.000000
230
1.0
 70
     8
 71
     3
 72
     8
 73
     4
 42
0.0000000001
 43
0.0000000001
 44
0.0000000001
 12
0.000000
 22
0.000000
 32
0.000000
 13
0.000000
 23
0.000000
 33
0.000000
 40
0.000000
 40
0.000000
 40
0.000000
 40
0.000000
 40
1.000000
 40
1.000000
 40
1.000000
 40
1.000000
 10
721.054564
 20
577.862805
 30
0.000000
 10
721.490355
 20
577.864969
 30
0.000000
 10
721.914867
 20
577.976962
 30
0.000000
 10
722.305537
 20
578.157989
 30
0.000000
  0
SPLINE
  5
368
330
1F
100
AcDbEntity
  8
0
 62
     5
100
AcDbSpline
210
0.000000
220
0.000000
230
1.0
 70
     8
 71
     3
 72
     8
 73
     4
 42
0.0000000001
 43
0.0000000001
 44
0.0000000001
 12
0.000000
 22
0.000000
 32
0.000000
 13
0.000000
 23
0.000000
 33
0.000000
 40
0.000000
 40
0.000000
 40
0.000000
 40
0.000000
 40
1.000000
 40
1.000000
 40
1.000000
 40
1.000000
 10
722.305537
 20
578.157989
 30
0.000000
 10
722.733076
 20
578.356100
 30
0.000000
 10
723.120084
 20
578.636891
 30
0.000000
 10
723.461184
 20
578.959918
 30
0.000000
  0
SPLINE
  5
369
330
1F
100
AcDbEntity
  8
0
 62
     5
100
AcDbSpline
210
0.000000
220
0.000000
230
1.0
 70
     8
 71
     3
 72
     8
 73
     4
 42
0.0000000001
 43
0.0000000001
 44
0.0000000001
 12
0.000000
 22
0.000000
 32
0.000000
 13
0.000000
 23
0.000000
 33
0.000000
 40
0.000000
 40
0.000000
 40
0.000000
 40
0.000000
 40
1.000000
 40
1.000000
 40
1.000000
 40
1.000000
 10
723.461184
 20
578.959918
 30
0.000000
 10
723.840832
 20
579.319451
 30
0.000000
 10
724.163608
 20
579.731306
 30
0.000000
 10
724.486384
 20
580.143161
 30
0.000000
  0
SPLINE
  5
370
330
1F
100
AcDbEntity
  8
0
 62
     5
100
AcDbSpline
210
0.000000
220
0.000000
230
1.0
 70
     8
 71
     3
 72
     8
 73
     4
 42
0.0000000001
 43
0.0000000001
 44
0.0000000001
 12
0.000000
 22
0.000000
 32
0.000000
 13
0.000000
 23
0.000000
 33
0.000000
 40
0.000000
 40
0.000000
 40
0.000000
 40
0.000000
 40
1.000000
 40
1.000000
 40
1.000000
 40
1.000000
 10
724.486384
 20
580.143161
 30
0.000000
 10
724.518402
 20
579.652684
 30
0.000000
 10
724.550420
 20
579.162208
 30
0.000000
 10
724.784903
 20
578.759227
 30
0.000000
  0
SPLINE
  5
371
330
1F
100
AcDbEntity
  8
0
 62
     5
100
AcDbSpline
210
0.000000
220
0.000000
230
1.0
 70
     8
 71
     3
 72
     8
 73
     4
 42
0.0000000001
 43
0.0000000001
 44
0.0000000001
 12
0.000000
 22
0.000000
 32
0.000000
 13
0.000000
 23
0.000000
 33
0.000000
 40
0.000000
 40
0.000000
 40
0.000000
 40
0.000000
 40
1.000000
 40
1.000000
 40
1.000000
 40
1.000000
 10
724.784903
 20
578.759227
 30
0.000000
 10
724.958682
 20
578.460571
 30
0.000000
 10
725.243666
 20
578.209972
 30
0.000000
 10
725.565095
 20
578.057643
 30
0.000000
  0
SPLINE
  5
372
330
1F
100
AcDbEntity
  8
0
 62
     5
100
AcDbSpline
210
0.000000
220
0.000000
230
1.0
 70
     8
 71
     3
 72
     8
 73
     4
 42
0.0000000001
 43
0.0000000001
 44
0.0000000001
 12
0.000000
 22
0.000000
 32
0.000000
 13
0.000000
 23
0.000000
 33
0.000000
 40
0.000000
 40
0.000000
 40
0.000000
 40
0.000000
 40
1.000000
 40
1.000000
 40
1.000000
 40
1.000000
 10
725.565095
 20
578.057643
 30
0.000000
 10
725.883520
 20
577.906738
 30
0.000000
 10
726.237711
 20
577.852275
 30
0.000000
 10
726.586114
 20
577.862806
 30
0.000000
  0
SPLINE
  5
373
330
1F
100
AcDbEntity
  8
0
 62
     5
100
AcDbSpline
210
0.000000
220
0.000000
230
1.0
 70
     8
 71
     3
 72
     8
 73
     4
 42
0.0000000001
 43
0.0000000001
 44
0.0000000001
 12
0.000000
 22
0.000000
 32
0.000000
 13
0.000000
 23
0.000000
 33
0.000000
 40
0.000000
 40
0.000000
 40
0.000000
 40
0.000000
 40
1.000000
 40
1.000000
 40
1.000000
 40
1.000000
 10
726.586114
 20
577.862806
 30
0.000000
 10
727.040446
 20
577.876537
 30
0.000000
 10
727.484935
 20
578.000792
 30
0.000000
 10
727.904823
 20
578.176386
 30
0.000000
  0
SPLINE
  5
374
330
1F
100
AcDbEntity
  8
0
 62
     5
100
AcDbSpline
210
0.000000
220
0.000000
230
1.0
 70
     8
 71
     3
 72
     8
 73
     4
 42
0.0000000001
 43
0.0000000001
 44
0.0000000001
 12
0.000000
 22
0.000000
 32
0.000000
 13
0.000000
 23
0.000000
 33
0.000000
 40
0.000000
 40
0.000000
 40
0.000000
 40
0.000000
 40
1.000000
 40
1.000000
 40
1.000000
 40
1.000000
 10
727.904823
 20
578.176386
 30
0.000000
 10
728.398922
 20
578.383014
 30
0.000000
 10
728.858955
 20
578.660732
 30
0.000000
 10
729.278724
 20
578.986677
 30
0.000000
  0
SPLINE
  5
375
330
1F
100
AcDbEntity
  8
0
 62
     5
100
AcDbSpline
210
0.000000
220
0.000000
230
1.0
 70
     8
 71
     3
 72
     8
 73
     4
 42
0.0000000001
 43
0.0000000001
 44
0.0000000001
 12
0.000000
 22
0.000000
 32
0.000000
 13
0.000000
 23
0.000000
 33
0.000000
 40
0.000000
 40
0.000000
 40
0.000000
 40
0.000000
 40
1.000000
 40
1.000000
 40
1.000000
 40
1.000000
 10
729.278724
 20
578.986677
 30
0.000000
 10
729.711738
 20
579.322908
 30
0.000000
 10
730.101906
 20
579.710456
 30
0.000000
 10
730.492074
 20
580.098005
 30
0.000000
  0
SPLINE
  5
376
330
1F
100
AcDbEntity
  8
0
 62
     5
100
AcDbSpline
210
0.000000
220
0.000000
230
1.0
 70
     8
 71
     3
 72
     8
 73
     4
 42
0.0000000001
 43
0.0000000001
 44
0.0000000001
 12
0.000000
 22
0.000000
 32
0.000000
 13
0.000000
 23
0.000000
 33
0.000000
 40
0.000000
 40
0.000000
 40
0.000000
 40
0.000000
 40
1.000000
 40
1.000000
 40
1.000000
 40
1.000000
 10
730.492074
 20
580.098005
 30
0.000000
 10
730.532417
 20
580.151001
 30
0.000000
 10
730.572759
 20
580.203997
 30
0.000000
 10
730.604964
 20
580.261904
 30
0.000000
  0
SPLINE
  5
377
330
1F
100
AcDbEntity
  8
0
 62
     5
100
AcDbSpline
210
0.000000
220
0.000000
230
1.0
 70
     8
 71
     3
 72
     8
 73
     4
 42
0.0000000001
 43
0.0000000001
 44
0.0000000001
 12
0.000000
 22
0.000000
 32
0.000000
 13
0.000000
 23
0.000000
 33
0.000000
 40
0.000000
 40
0.000000
 40
0.000000
 40
0.000000
 40
1.000000
 40
1.000000
 40
1.000000
 40
1.000000
 10
730.604964
 20
580.261904
 30
0.000000
 10
730.634414
 20
580.314856
 30
0.000000
 10
730.657059
 20
580.371915
 30
0.000000
 10
730.672696
 20
580.430819
 30
0.000000
  0
SPLINE
  5
378
330
1F
100
AcDbEntity
  8
0
 62
     5
100
AcDbSpline
210
0.000000
220
0.000000
230
1.0
 70
     8
 71
     3
 72
     8
 73
     4
 42
0.0000000001
 43
0.0000000001
 44
0.0000000001
 12
0.000000
 22
0.000000
 32
0.000000
 13
0.000000
 23
0.000000
 33
0.000000
 40
0.000000
 40
0.000000
 40
0.000000
 40
0.000000
 40
1.000000
 40
1.000000
 40
1.000000
 40
1.000000
 10
730.672696
 20
580.430819
 30
0.000000
 10
730.686913
 20
580.484368
 30
0.000000
 10
730.695338
 20
580.539443
 30
0.000000
 10
730.695273
 20
580.594716
 30
0.000000
  0
SPLINE
  5
379
330
1F
100
AcDbEntity
  8
0
 62
     5
100
AcDbSpline
210
0.000000
220
0.000000
230
1.0
 70
     8
 71
     3
 72
     8
 73
     4
 42
0.0000000001
 43
0.0000000001
 44
0.0000000001
 12
0.000000
 22
0.000000
 32
0.000000
 13
0.000000
 23
0.000000
 33
0.000000
 40
0.000000
 40
0.000000
 40
0.000000
 40
0.000000
 40
1.000000
 40
1.000000
 40
1.000000
 40
1.000000
 10
730.695273
 20
580.594716
 30
0.000000
 10
730.695187
 20
580.668300
 30
0.000000
 10
730.680055
 20
580.742236
 30
0.000000
 10
730.650954
 20
580.810460
 30
0.000000
  0
SPLINE
  5
380
330
1F
100
AcDbEntity
  8
0
 62
     5
100
AcDbSpline
210
0.000000
220
0.000000
230
1.0
 70
     8
 71
     3
 72
     8
 73
     4
 42
0.0000000001
 43
0.0000000001
 44
0.0000000001
 12
0.000000
 22
0.000000
 32
0.000000
 13
0.000000
 23
0.000000
 33
0.000000
 40
0.000000
 40
0.000000
 40
0.000000
 40
0.000000
 40
1.000000
 40
1.000000
 40
1.000000
 40
1.000000
 10
730.650954
 20
580.810460
 30
0.000000
 10
730.621039
 20
580.880593
 30
0.000000
 10
730.576363
 20
580.944688
 30
0.000000
 10
730.521340
 20
580.996100
 30
0.000000
  0
SPLINE
  5
381
330
1F
100
AcDbEntity
  8
0
 62
     5
100
AcDbSpline
210
0.000000
220
0.000000
230
1.0
 70
     8
 71
     3
 72
     8
 73
     4
 42
0.0000000001
 43
0.0000000001
 44
0.0000000001
 12
0.000000
 22
0.000000
 32
0.000000
 13
0.000000
 23
0.000000
 33
0.000000
 40
0.000000
 40
0.000000
 40
0.000000
 40
0.000000
 40
1.000000
 40
1.000000
 40
1.000000
 40
1.000000
 10
730.521340
 20
580.996100
 30
0.000000
 10
730.459962
 20
581.053450
 30
0.000000
 10
730.385708
 20
581.095016
 30
0.000000
 10
730.311454
 20
581.136583
 30
0.000000
  0
SPLINE
  5
382
330
1F
100
AcDbEntity
  8
0
 62
     5
100
AcDbSpline
210
0.000000
220
0.000000
230
1.0
 70
     8
 71
     3
 72
     8
 73
     4
 42
0.0000000001
 43
0.0000000001
 44
0.0000000001
 12
0.000000
 22
0.000000
 32
0.000000
 13
0.000000
 23
0.000000
 33
0.000000
 40
0.000000
 40
0.000000
 40
0.000000
 40
0.000000
 40
1.000000
 40
1.000000
 40
1.000000
 40
1.000000
 10
730.311454
 20
581.136583
 30
0.000000
 10
730.091995
 20
580.945314
 30
0.000000
 10
729.872535
 20
580.754045
 30
0.000000
 10
729.631609
 20
580.593044
 30
0.000000
  0
SPLINE
  5
383
330
1F
100
AcDbEntity
  8
0
 62
     5
100
AcDbSpline
210
0.000000
220
0.000000
230
1.0
 70
     8
 71
     3
 72
     8
 73
     4
 42
0.0000000001
 43
0.0000000001
 44
0.0000000001
 12
0.000000
 22
0.000000
 32
0.000000
 13
0.000000
 23
0.000000
 33
0.000000
 40
0.000000
 40
0.000000
 40
0.000000
 40
0.000000
 40
1.000000
 40
1.000000
 40
1.000000
 40
1.000000
 10
729.631609
 20
580.593044
 30
0.000000
 10
729.374278
 20
580.421080
 30
0.000000
 10
729.092456
 20
580.283646
 30
0.000000
 10
728.801248
 20
580.174937
 30
0.000000
  0
SPLINE
  5
384
330
1F
100
AcDbEntity
  8
0
 62
     5
100
AcDbSpline
210
0.000000
220
0.000000
230
1.0
 70
     8
 71
     3
 72
     8
 73
     4
 42
0.0000000001
 43
0.0000000001
 44
0.0000000001
 12
0.000000
 22
0.000000
 32
0.000000
 13
0.000000
 23
0.000000
 33
0.000000
 40
0.000000
 40
0.000000
 40
0.000000
 40
0.000000
 40
1.000000
 40
1.000000
 40
1.000000
 40
1.000000
 10
728.801248
 20
580.174937
 30
0.000000
 10
728.526678
 20
580.072439
 30
0.000000
 10
728.243764
 20
579.995477
 30
0.000000
 10
727.940784
 20
580.007695
 30
0.000000
  0
SPLINE
  5
385
330
1F
100
AcDbEntity
  8
0
 62
     5
100
AcDbSpline
210
0.000000
220
0.000000
230
1.0
 70
     8
 71
     3
 72
     8
 73
     4
 42
0.0000000001
 43
0.0000000001
 44
0.0000000001
 12
0.000000
 22
0.000000
 32
0.000000
 13
0.000000
 23
0.000000
 33
0.000000
 40
0.000000
 40
0.000000
 40
0.000000
 40
0.000000
 40
1.000000
 40
1.000000
 40
1.000000
 40
1.000000
 10
727.940784
 20
580.007695
 30
0.000000
 10
727.761220
 20
580.014936
 30
0.000000
 10
727.574609
 20
580.053500
 30
0.000000
 10
727.444073
 20
580.159886
 30
0.000000
  0
SPLINE
  5
386
330
1F
100
AcDbEntity
  8
0
 62
     5
100
AcDbSpline
210
0.000000
220
0.000000
230
1.0
 70
     8
 71
     3
 72
     8
 73
     4
 42
0.0000000001
 43
0.0000000001
 44
0.0000000001
 12
0.000000
 22
0.000000
 32
0.000000
 13
0.000000
 23
0.000000
 33
0.000000
 40
0.000000
 40
0.000000
 40
0.000000
 40
0.000000
 40
1.000000
 40
1.000000
 40
1.000000
 40
1.000000
 10
727.444073
 20
580.159886
 30
0.000000
 10
727.297666
 20
580.279206
 30
0.000000
 10
727.221798
 20
580.483841
 30
0.000000
 10
727.188191
 20
580.683356
 30
0.000000
  0
SPLINE
  5
387
330
1F
100
AcDbEntity
  8
0
 62
     5
100
AcDbSpline
210
0.000000
220
0.000000
230
1.0
 70
     8
 71
     3
 72
     8
 73
     4
 42
0.0000000001
 43
0.0000000001
 44
0.0000000001
 12
0.000000
 22
0.000000
 32
0.000000
 13
0.000000
 23
0.000000
 33
0.000000
 40
0.000000
 40
0.000000
 40
0.000000
 40
0.000000
 40
1.000000
 40
1.000000
 40
1.000000
 40
1.000000
 10
727.188191
 20
580.683356
 30
0.000000
 10
727.130632
 20
581.025068
 30
0.000000
 10
727.197043
 20
581.351759
 30
0.000000
 10
727.263454
 20
581.678450
 30
0.000000
  0
LINE
  5
388
330
1F
100
AcDbEntity
  8
0
  62
5
100
AcDbLine
 10
727.263454
 20
581.678450
 30
0.000000
 11
728.843894
 21
589.151694
 31
0.000000
  0
SPLINE
  5
389
330
1F
100
AcDbEntity
  8
0
 62
     5
100
AcDbSpline
210
0.000000
220
0.000000
230
1.0
 70
     8
 71
     3
 72
     8
 73
     4
 42
0.0000000001
 43
0.0000000001
 44
0.0000000001
 12
0.000000
 22
0.000000
 32
0.000000
 13
0.000000
 23
0.000000
 33
0.000000
 40
0.000000
 40
0.000000
 40
0.000000
 40
0.000000
 40
1.000000
 40
1.000000
 40
1.000000
 40
1.000000
 10
728.843894
 20
589.151694
 30
0.000000
 10
728.744044
 20
589.208176
 30
0.000000
 10
728.644194
 20
589.264658
 30
0.000000
 10
728.538678
 20
589.308066
 30
0.000000
  0
SPLINE
  5
390
330
1F
100
AcDbEntity
  8
0
 62
     5
100
AcDbSpline
210
0.000000
220
0.000000
230
1.0
 70
     8
 71
     3
 72
     8
 73
     4
 42
0.0000000001
 43
0.0000000001
 44
0.0000000001
 12
0.000000
 22
0.000000
 32
0.000000
 13
0.000000
 23
0.000000
 33
0.000000
 40
0.000000
 40
0.000000
 40
0.000000
 40
0.000000
 40
1.000000
 40
1.000000
 40
1.000000
 40
1.000000
 10
728.538678
 20
589.308066
 30
0.000000
 10
728.423502
 20
589.355449
 30
0.000000
 10
728.301574
 20
589.387256
 30
0.000000
 10
728.178272
 20
589.409248
 30
0.000000
  0
SPLINE
  5
391
330
1F
100
AcDbEntity
  8
0
 62
     5
100
AcDbSpline
210
0.000000
220
0.000000
230
1.0
 70
     8
 71
     3
 72
     8
 73
     4
 42
0.0000000001
 43
0.0000000001
 44
0.0000000001
 12
0.000000
 22
0.000000
 32
0.000000
 13
0.000000
 23
0.000000
 33
0.000000
 40
0.000000
 40
0.000000
 40
0.000000
 40
0.000000
 40
1.000000
 40
1.000000
 40
1.000000
 40
1.000000
 10
728.178272
 20
589.409248
 30
0.000000
 10
728.047454
 20
589.432581
 30
0.000000
 10
727.915090
 20
589.444867
 30
0.000000
 10
727.782743
 20
589.445206
 30
0.000000
  0
SPLINE
  5
392
330
1F
100
AcDbEntity
  8
0
 62
     5
100
AcDbSpline
210
0.000000
220
0.000000
230
1.0
 70
     8
 71
     3
 72
     8
 73
     4
 42
0.0000000001
 43
0.0000000001
 44
0.0000000001
 12
0.000000
 22
0.000000
 32
0.000000
 13
0.000000
 23
0.000000
 33
0.000000
 40
0.000000
 40
0.000000
 40
0.000000
 40
0.000000
 40
1.000000
 40
1.000000
 40
1.000000
 40
1.000000
 10
727.782743
 20
589.445206
 30
0.000000
 10
727.593511
 20
589.445690
 30
0.000000
 10
727.404314
 20
589.421749
 30
0.000000
 10
727.219132
 20
589.375800
 30
0.000000
  0
SPLINE
  5
393
330
1F
100
AcDbEntity
  8
0
 62
     5
100
AcDbSpline
210
0.000000
220
0.000000
230
1.0
 70
     8
 71
     3
 72
     8
 73
     4
 42
0.0000000001
 43
0.0000000001
 44
0.0000000001
 12
0.000000
 22
0.000000
 32
0.000000
 13
0.000000
 23
0.000000
 33
0.000000
 40
0.000000
 40
0.000000
 40
0.000000
 40
0.000000
 40
1.000000
 40
1.000000
 40
1.000000
 40
1.000000
 10
727.219132
 20
589.375800
 30
0.000000
 10
727.033088
 20
589.329637
 30
0.000000
 10
726.851096
 20
589.261261
 30
0.000000
 10
726.690645
 20
589.160893
 30
0.000000
  0
SPLINE
  5
394
330
1F
100
AcDbEntity
  8
0
 62
     5
100
AcDbSpline
210
0.000000
220
0.000000
230
1.0
 70
     8
 71
     3
 72
     8
 73
     4
 42
0.0000000001
 43
0.0000000001
 44
0.0000000001
 12
0.000000
 22
0.000000
 32
0.000000
 13
0.000000
 23
0.000000
 33
0.000000
 40
0.000000
 40
0.000000
 40
0.000000
 40
0.000000
 40
1.000000
 40
1.000000
 40
1.000000
 40
1.000000
 10
726.690645
 20
589.160893
 30
0.000000
 10
726.528194
 20
589.059275
 30
0.000000
 10
726.387824
 20
588.924862
 30
0.000000
 10
726.247454
 20
588.790450
 30
0.000000
  0
SPLINE
  5
395
330
1F
100
AcDbEntity
  8
0
 62
     5
100
AcDbSpline
210
0.000000
220
0.000000
230
1.0
 70
     8
 71
     3
 72
     8
 73
     4
 42
0.0000000001
 43
0.0000000001
 44
0.0000000001
 12
0.000000
 22
0.000000
 32
0.000000
 13
0.000000
 23
0.000000
 33
0.000000
 40
0.000000
 40
0.000000
 40
0.000000
 40
0.000000
 40
1.000000
 40
1.000000
 40
1.000000
 40
1.000000
 10
724.531544
 20
581.610716
 30
0.000000
 10
724.309957
 20
581.350574
 30
0.000000
 10
724.088370
 20
581.090432
 30
0.000000
 10
723.829959
 20
580.870667
 30
0.000000
  0
SPLINE
  5
396
330
1F
100
AcDbEntity
  8
0
 62
     5
100
AcDbSpline
210
0.000000
220
0.000000
230
1.0
 70
     8
 71
     3
 72
     8
 73
     4
 42
0.0000000001
 43
0.0000000001
 44
0.0000000001
 12
0.000000
 22
0.000000
 32
0.000000
 13
0.000000
 23
0.000000
 33
0.000000
 40
0.000000
 40
0.000000
 40
0.000000
 40
0.000000
 40
1.000000
 40
1.000000
 40
1.000000
 40
1.000000
 10
723.829959
 20
580.870667
 30
0.000000
 10
723.590585
 20
580.667093
 30
0.000000
 10
723.319613
 20
580.498166
 30
0.000000
 10
723.028028
 20
580.371447
 30
0.000000
  0
SPLINE
  5
397
330
1F
100
AcDbEntity
  8
0
 62
     5
100
AcDbSpline
210
0.000000
220
0.000000
230
1.0
 70
     8
 71
     3
 72
     8
 73
     4
 42
0.0000000001
 43
0.0000000001
 44
0.0000000001
 12
0.000000
 22
0.000000
 32
0.000000
 13
0.000000
 23
0.000000
 33
0.000000
 40
0.000000
 40
0.000000
 40
0.000000
 40
0.000000
 40
1.000000
 40
1.000000
 40
1.000000
 40
1.000000
 10
723.028028
 20
580.371447
 30
0.000000
 10
722.781659
 20
580.264379
 30
0.000000
 10
722.520575
 20
580.187443
 30
0.000000
 10
722.251184
 20
580.188317
 30
0.000000
  0
SPLINE
  5
398
330
1F
100
AcDbEntity
  8
0
 62
     5
100
AcDbSpline
210
0.000000
220
0.000000
230
1.0
 70
     8
 71
     3
 72
     8
 73
     4
 42
0.0000000001
 43
0.0000000001
 44
0.0000000001
 12
0.000000
 22
0.000000
 32
0.000000
 13
0.000000
 23
0.000000
 33
0.000000
 40
0.000000
 40
0.000000
 40
0.000000
 40
0.000000
 40
1.000000
 40
1.000000
 40
1.000000
 40
1.000000
 10
722.251184
 20
580.188317
 30
0.000000
 10
722.031811
 20
580.189028
 30
0.000000
 10
721.806929
 20
580.241338
 30
0.000000
 10
721.624023
 20
580.358904
 30
0.000000
  0
SPLINE
  5
399
330
1F
100
AcDbEntity
  8
0
 62
     5
100
AcDbSpline
210
0.000000
220
0.000000
230
1.0
 70
     8
 71
     3
 72
     8
 73
     4
 42
0.0000000001
 43
0.0000000001
 44
0.0000000001
 12
0.000000
 22
0.000000
 32
0.000000
 13
0.000000
 23
0.000000
 33
0.000000
 40
0.000000
 40
0.000000
 40
0.000000
 40
0.000000
 40
1.000000
 40
1.000000
 40
1.000000
 40
1.000000
 10
721.624023
 20
580.358904
 30
0.000000
 10
721.431294
 20
580.482784
 30
0.000000
 10
721.285170
 20
580.679118
 30
0.000000
 10
721.192537
 20
580.890735
 30
0.000000
  0
SPLINE
  5
400
330
1F
100
AcDbEntity
  8
0
 62
     5
100
AcDbSpline
210
0.000000
220
0.000000
230
1.0
 70
     8
 71
     3
 72
     8
 73
     4
 42
0.0000000001
 43
0.0000000001
 44
0.0000000001
 12
0.000000
 22
0.000000
 32
0.000000
 13
0.000000
 23
0.000000
 33
0.000000
 40
0.000000
 40
0.000000
 40
0.000000
 40
0.000000
 40
1.000000
 40
1.000000
 40
1.000000
 40
1.000000
 10
721.192537
 20
580.890735
 30
0.000000
 10
721.065794
 20
581.180277
 30
0.000000
 10
721.039189
 20
581.498429
 30
0.000000
 10
721.031984
 20
581.813916
 30
0.000000
  0
SPLINE
  5
401
330
1F
100
AcDbEntity
  8
0
 62
     5
100
AcDbSpline
210
0.000000
220
0.000000
230
1.0
 70
     8
 71
     3
 72
     8
 73
     4
 42
0.0000000001
 43
0.0000000001
 44
0.0000000001
 12
0.000000
 22
0.000000
 32
0.000000
 13
0.000000
 23
0.000000
 33
0.000000
 40
0.000000
 40
0.000000
 40
0.000000
 40
0.000000
 40
1.000000
 40
1.000000
 40
1.000000
 40
1.000000
 10
721.031984
 20
581.813916
 30
0.000000
 10
721.011377
 20
582.716230
 30
0.000000
 10
721.149460
 20
583.596747
 30
0.000000
 10
721.384868
 20
584.470568
 30
0.000000
  0
SPLINE
  5
402
330
1F
100
AcDbEntity
  8
0
 62
     5
100
AcDbSpline
210
0.000000
220
0.000000
230
1.0
 70
     8
 71
     3
 72
     8
 73
     4
 42
0.0000000001
 43
0.0000000001
 44
0.0000000001
 12
0.000000
 22
0.000000
 32
0.000000
 13
0.000000
 23
0.000000
 33
0.000000
 40
0.000000
 40
0.000000
 40
0.000000
 40
0.000000
 40
1.000000
 40
1.000000
 40
1.000000
 40
1.000000
 10
721.384868
 20
584.470568
 30
0.000000
 10
721.616124
 20
585.328979
 30
0.000000
 10
721.941301
 20
586.180928
 30
0.000000
 10
722.560586
 20
586.826183
 30
0.000000
  0
SPLINE
  5
403
330
1F
100
AcDbEntity
  8
0
 62
     5
100
AcDbSpline
210
0.000000
220
0.000000
230
1.0
 70
     8
 71
     3
 72
     8
 73
     4
 42
0.0000000001
 43
0.0000000001
 44
0.0000000001
 12
0.000000
 22
0.000000
 32
0.000000
 13
0.000000
 23
0.000000
 33
0.000000
 40
0.000000
 40
0.000000
 40
0.000000
 40
0.000000
 40
1.000000
 40
1.000000
 40
1.000000
 40
1.000000
 10
722.560586
 20
586.826183
 30
0.000000
 10
723.125090
 20
587.414360
 30
0.000000
 10
723.933971
 20
587.830793
 30
0.000000
 10
724.734744
 20
587.842183
 30
0.000000
  0
SPLINE
  5
404
330
1F
100
AcDbEntity
  8
0
 62
     5
100
AcDbSpline
210
0.000000
220
0.000000
230
1.0
 70
     8
 71
     3
 72
     8
 73
     4
 42
0.0000000001
 43
0.0000000001
 44
0.0000000001
 12
0.000000
 22
0.000000
 32
0.000000
 13
0.000000
 23
0.000000
 33
0.000000
 40
0.000000
 40
0.000000
 40
0.000000
 40
0.000000
 40
1.000000
 40
1.000000
 40
1.000000
 40
1.000000
 10
724.734744
 20
587.842183
 30
0.000000
 10
724.848444
 20
587.843801
 30
0.000000
 10
724.961980
 20
587.837252
 30
0.000000
 10
725.075079
 20
587.825458
 30
0.000000
  0
SPLINE
  5
405
330
1F
100
AcDbEntity
  8
0
 62
     5
100
AcDbSpline
210
0.000000
220
0.000000
230
1.0
 70
     8
 71
     3
 72
     8
 73
     4
 42
0.0000000001
 43
0.0000000001
 44
0.0000000001
 12
0.000000
 22
0.000000
 32
0.000000
 13
0.000000
 23
0.000000
 33
0.000000
 40
0.000000
 40
0.000000
 40
0.000000
 40
0.000000
 40
1.000000
 40
1.000000
 40
1.000000
 40
1.000000
 10
725.075079
 20
587.825458
 30
0.000000
 10
725.192896
 20
587.813172
 30
0.000000
 10
725.310239
 20
587.795194
 30
0.000000
 10
725.425452
 20
587.768595
 30
0.000000
  0
SPLINE
  5
406
330
1F
100
AcDbEntity
  8
0
 62
     5
100
AcDbSpline
210
0.000000
220
0.000000
230
1.0
 70
     8
 71
     3
 72
     8
 73
     4
 42
0.0000000001
 43
0.0000000001
 44
0.0000000001
 12
0.000000
 22
0.000000
 32
0.000000
 13
0.000000
 23
0.000000
 33
0.000000
 40
0.000000
 40
0.000000
 40
0.000000
 40
0.000000
 40
1.000000
 40
1.000000
 40
1.000000
 40
1.000000
 10
725.425452
 20
587.768595
 30
0.000000
 10
725.550609
 20
587.739700
 30
0.000000
 10
725.673252
 20
587.700630
 30
0.000000
 10
725.795894
 20
587.661561
 30
0.000000
  0
LINE
  5
407
330
1F
100
AcDbEntity
  8
0
  62
5
100
AcDbLine
 10
725.795894
 20
587.661561
 30
0.000000
 11
724.531544
 21
581.610716
 31
0.000000
 0
ENDSEC
  0
SECTION
  2
OBJECTS
  0
DICTIONARY
  5
C
330
0
100
AcDbDictionary
  3
ACAD_GROUP
350
D
  3
ACAD_LAYOUT
350
1A
  3
ACAD_MLINESTYLE
350
17
  3
ACAD_PLOTSETTINGS
350
19
1001
ACAD
1000
TREAT_AS_HARD
1070
     0
  0
DICTIONARY
  5
46
330
1F
100
AcDbDictionary
  3
ACAD_LAYOUTSELFREF
350
47
  0
DICTIONARY
  5
44
330
1B
100
AcDbDictionary
  3
ACAD_LAYOUTSELFREF
350
45
  0
DICTIONARY
  5
D
102
{ACAD_REACTORS
330
C
102
}
330
C
100
AcDbDictionary
1001
ACAD
1000
TREAT_AS_HARD
1070
     0
  0
DICTIONARY
  5
1A
102
{ACAD_REACTORS
330
C
102
}
330
C
100
AcDbDictionary
1001
ACAD
1000
TREAT_AS_HARD
1070
     0
  0
DICTIONARY
  5
17
102
{ACAD_REACTORS
330
C
102
}
330
C
100
AcDbDictionary
  3
STANDARD
350
18
1001
ACAD
1000
TREAT_AS_HARD
1070
     0
  0
DICTIONARY
  5
19
102
{ACAD_REACTORS
330
C
102
}
330
C
100
AcDbDictionary
1001
ACAD
1000
TREAT_AS_HARD
1070
     0
  0
XRECORD
  5
47
102
{ACAD_REACTORS
330
46
102
}
330
46
100
AcDbXrecord
340
1F
  0
XRECORD
  5
45
102
{ACAD_REACTORS
330
44
102
}
330
44
100
AcDbXrecord
340
1B
  0
MLINESTYLE
  5
18
102
{ACAD_REACTORS
330
17
102
}
330
17
100
AcDbMlineStyle
  2
STANDARD
 70
     0
  3

 62
   256
 51
90.0
 52
90.0
 71
     2
 49
0.5
 62
   256
  6
BYLAYER
 49
-0.5
 62
   256
  6
BYLAYER
  0
ENDSEC
  0
EOF
