0
SECTION
2
HEADER
9
$INSUNITS
70
4
9
$ACADVER
1
AC1014
9
$HANDSEED
5
FFFF
0
ENDSEC
0
SECTION
2
TABLES
0
TABLE
2
VPORT
5
8
100
AcDbSymbolTable
0
ENDTAB
0
TABLE
2
LTYPE
5
5
100
AcDbSymbolTable
0
LTYPE
5
14
100
AcDbSymbolTableRecord
100
AcDbLinetypeTableRecord
2
BYBLOCK
70
0
0
LTYPE
5
15
100
AcDbSymbolTableRecord
100
AcDbLinetypeTableRecord
2
BYLAYER
70
0
0
ENDTAB
0
TABLE
2
LAYER
5
2
100
AcDbSymbolTable
70
2
0
LAYER
5
50
100
AcDbSymbolTableRecord
100
AcDbLayerTableRecord
2
0
70
0
6
CONTINUOUS
0
ENDTAB
0
TABLE
2
STYLE
5
3
100
AcDbSymbolTable
70
1
0
STYLE
5
11
100
AcDbSymbolTableRecord
100
AcDbTextStyleTableRecord
2
STANDARD
70
0
0
ENDTAB
0
TABLE
2
VIEW
5
6
100
AcDbSymbolTable
70
0
0
ENDTAB
0
TABLE
2
UCS
5
7
100
AcDbSymbolTable
70
0
0
ENDTAB
0
TABLE
2
APPID
5
9
100
AcDbSymbolTable
70
2
0
APPID
5
12
100
AcDbSymbolTableRecord
100
AcDbRegAppTableRecord
2
ACAD
70
0
0
ENDTAB
0
TABLE
2
DIMSTYLE
5
A
100
AcDbSymbolTable
70
1
0
ENDTAB
0
TABLE
2
BLOCK_RECORD
5
1
100
AcDbSymbolTable
70
1
0
BLOCK_RECORD
5
1F
100
AcDbSymbolTableRecord
100
AcDbBlockTableRecord
2
*MODEL_SPACE
0
BLOCK_RECORD
5
1B
100
AcDbSymbolTableRecord
100
AcDbBlockTableRecord
2
*PAPER_SPACE
0
ENDTAB
0
ENDSEC
0
SECTION
2
BLOCKS
0
BLOCK
5
20
100
AcDbEntity
100
AcDbBlockBegin
2
*MODEL_SPACE
0
ENDBLK
5
21
100
AcDbEntity
100
AcDbBlockEnd
0
BLOCK
5
1C
100
AcDbEntity
100
AcDbBlockBegin
2
*PAPER_SPACE
0
ENDBLK
5
1D
100
AcDbEntity
100
AcDbBlockEnd
0
ENDSEC
0
SECTION
2
ENTITIES
0
LWPOLYLINE
5
100
100
AcDbEntity
8
0
100
AcDbPolyline
90
14
70
1
43
0.0
10
156.33276771881094
20
160
10
156.33276771881094
20
0
10
146.33276771881094
20
0
10
146.33276771881094
20
10
10
146.33276771881094
20
155.85786437626905
10
112.19063209507996
20
190
10
0.47490334254188582
20
190
10
-33.667232281188987
20
155.85786437626905
10
-33.667232281189051
20
10
10
-33.667232281189051
20
0
10
-43.667232281189058
20
0
10
-43.667232281188987
20
160
10
-3.6672322811890723
20
200
10
116.33276771881093
20
200
0
LWPOLYLINE
5
101
100
AcDbEntity
8
0
100
AcDbPolyline
90
4
70
1
43
0.0
10
622.70230856126443
20
189.97836923233842
10
422.70230856126443
20
189.97836923233842
10
422.70230856126443
20
-10.021630767661591
10
622.70230856126443
20
-10.021630767661591
0
LINE
5
102
100
AcDbEntity
8
0
100
AcDbLine
10
422.70230856126443
20
179.97836923233842
30
0
11
430.70230856126443
21
179.97836923233842
31
0
0
LINE
5
103
100
AcDbEntity
8
0
100
AcDbLine
10
430.70230856126443
20
189.97836923233842
30
0
11
430.70230856126443
21
179.97836923233842
31
0
0
LINE
5
104
100
AcDbEntity
8
0
100
AcDbLine
10
622.70230856126443
20
179.97836923233842
30
0
11
614.70230856126454
21
179.97836923233842
31
0
0
LINE
5
105
100
AcDbEntity
8
0
100
AcDbLine
10
614.70230856126454
20
189.97836923233842
30
0
11
614.70230856126454
21
179.97836923233842
31
0
0
LINE
5
106
100
AcDbEntity
8
0
100
AcDbLine
10
422.70230856126443
20
-0.021630767661591221
30
0
11
430.70230856126443
21
-0.021630767661591221
31
0
0
LINE
5
107
100
AcDbEntity
8
0
100
AcDbLine
10
430.70230856126443
20
-10.021630767661591
30
0
11
430.70230856126443
21
-0.021630767661591221
31
0
0
LINE
5
108
100
AcDbEntity
8
0
100
AcDbLine
10
614.70230856126454
20
-10.021630767661591
30
0
11
614.70230856126454
21
-0.021630767661591221
31
0
0
LINE
5
109
100
AcDbEntity
8
0
100
AcDbLine
10
622.70230856126443
20
-0.021630767661591221
30
0
11
614.70230856126454
21
-0.021630767661591221
31
0
0
LINE
5
110
100
AcDbEntity
8
0
100
AcDbLine
10
440.70230856126443
20
189.97836923233842
30
0
11
440.70230856126443
21
181.97836923233842
31
0
0
LINE
5
111
100
AcDbEntity
8
0
100
AcDbLine
10
422.70230856126443
20
171.97836923233839
30
0
11
430.70230856126443
21
171.97836923233839
31
0
0
LINE
5
112
100
AcDbEntity
8
0
100
AcDbLine
10
522.70230856126443
20
189.97836923233842
30
0
11
522.70230856126443
21
199.32734783733684
31
0
0
LINE
5
113
100
AcDbEntity
8
0
100
AcDbLine
10
422.70230856126443
20
89.978369232338409
30
0
11
408.35569227338181
21
89.978369232338409
31
0
0
LINE
5
114
100
AcDbEntity
8
0
100
AcDbLine
10
604.70230856126454
20
189.97836923233842
30
0
11
604.70230856126454
21
181.97836923233842
31
0
0
LINE
5
115
100
AcDbEntity
8
0
100
AcDbLine
10
622.70230856126443
20
171.97836923233839
30
0
11
614.70230856126454
21
171.97836923233839
31
0
0
LINE
5
116
100
AcDbEntity
8
0
100
AcDbLine
10
440.70230856126443
20
-10.021630767661591
30
0
11
440.70230856126443
21
-2.0216307676615841
31
0
0
LINE
5
117
100
AcDbEntity
8
0
100
AcDbLine
10
422.70230856126443
20
7.9783692323384159
30
0
11
430.70230856126443
21
7.9783692323384159
31
0
0
LINE
5
118
100
AcDbEntity
8
0
100
AcDbLine
10
622.70230856126443
20
7.9783692323384159
30
0
11
614.70230856126454
21
7.9783692323384159
31
0
0
LINE
5
119
100
AcDbEntity
8
0
100
AcDbLine
10
604.70230856126454
20
-10.021630767661591
30
0
11
604.70230856126454
21
-2.0216307676616205
31
0
0
LINE
5
120
100
AcDbEntity
8
0
100
AcDbLine
10
572.70230856126443
20
29.978369232338402
30
0
11
472.70230856126443
21
29.978369232338402
31
0
0
LINE
5
121
100
AcDbEntity
8
0
100
AcDbLine
10
472.70230856126443
20
49.978369232338437
30
0
11
472.70230856126443
21
129.97836923233842
31
0
0
LINE
5
122
100
AcDbEntity
8
0
100
AcDbLine
10
472.70230856126443
20
149.97836923233842
30
0
11
572.70230856126443
21
149.97836923233842
31
0
0
LINE
5
123
100
AcDbEntity
8
0
100
AcDbLine
10
572.70230856126443
20
129.97836923233839
30
0
11
572.70230856126443
21
49.978369232338444
31
0
0
LINE
5
124
100
AcDbEntity
8
0
100
AcDbLine
10
572.70230856126443
20
149.97836923233842
30
0
11
604.70230856126454
21
181.97836923233842
31
0
0
LINE
5
125
100
AcDbEntity
8
0
100
AcDbLine
10
614.70230856126454
20
171.97836923233839
30
0
11
572.70230856126443
21
129.97836923233839
31
0
0
LINE
5
126
100
AcDbEntity
8
0
100
AcDbLine
10
472.70230856126443
20
29.978369232338402
30
0
11
440.70230856126443
21
-2.0216307676615841
31
0
0
LINE
5
127
100
AcDbEntity
8
0
100
AcDbLine
10
440.70230856126443
20
181.97836923233842
30
0
11
472.70230856126443
21
149.97836923233842
31
0
0
LINE
5
128
100
AcDbEntity
8
0
100
AcDbLine
10
572.70230856126443
20
49.978369232338444
30
0
11
614.70230856126454
21
7.9783692323384159
31
0
0
LINE
5
129
100
AcDbEntity
8
0
100
AcDbLine
10
604.70230856126454
20
-2.0216307676616205
30
0
11
572.70230856126443
21
29.978369232338402
31
0
0
LINE
5
130
100
AcDbEntity
8
0
100
AcDbLine
10
430.70230856126443
20
7.9783692323384159
30
0
11
472.70230856126443
21
49.978369232338437
31
0
0
LINE
5
131
100
AcDbEntity
8
0
100
AcDbLine
10
472.70230856126443
20
129.97836923233842
30
0
11
430.70230856126443
21
171.97836923233839
31
0
0
LWPOLYLINE
5
132
100
AcDbEntity
8
0
100
AcDbPolyline
90
36
70
1
43
0.0
10
847.70230856126443
20
129.97836923233839
10
889.70230856126454
20
171.97836923233839
10
897.70230856126443
20
171.97836923233839
10
897.70230856126443
20
179.97836923233842
10
889.70230856126454
20
179.97836923233842
10
889.70230856126454
20
189.97836923233842
10
879.70230856126454
20
189.97836923233842
10
879.70230856126454
20
181.97836923233842
10
847.70230856126443
20
149.97836923233842
10
747.70230856126443
20
149.97836923233842
10
715.70230856126443
20
181.97836923233842
10
715.70230856126443
20
189.97836923233842
10
705.70230856126443
20
189.97836923233842
10
705.70230856126443
20
179.97836923233842
10
697.70230856126443
20
179.97836923233842
10
697.70230856126443
20
171.97836923233839
10
705.70230856126443
20
171.97836923233839
10
747.70230856126443
20
129.97836923233842
10
747.70230856126443
20
49.978369232338437
10
705.70230856126443
20
7.9783692323384159
10
697.70230856126443
20
7.9783692323384159
10
697.70230856126443
20
-0.021630767661591221
10
705.70230856126443
20
-0.021630767661591221
10
705.70230856126443
20
-10.021630767661591
10
715.70230856126443
20
-10.021630767661591
10
715.70230856126443
20
-2.0216307676615841
10
747.70230856126443
20
29.978369232338402
10
847.70230856126443
20
29.978369232338402
10
879.70230856126454
20
-2.0216307676616205
10
879.70230856126454
20
-10.021630767661591
10
889.70230856126454
20
-10.021630767661591
10
889.70230856126454
20
-0.021630767661591221
10
897.70230856126443
20
-0.021630767661591221
10
897.70230856126443
20
7.9783692323384159
10
889.70230856126454
20
7.9783692323384159
10
847.70230856126443
20
49.978369232338444
0
ENDSEC
0
SECTION
2
OBJECTS
0
DICTIONARY
5
C
100
AcDbDictionary
3
ACAD_GROUP
350
D
3
ACAD_MLINESTYLE
350
17
0
DICTIONARY
5
D
100
AcDbDictionary
0
DICTIONARY
5
1A
330
C
100
AcDbDictionary
0
DICTIONARY
5
17
100
AcDbDictionary
0
ENDSEC
0
EOF
