  0
SECTION
  2
HEADER
  9
$ACADVER
  1
AC1014
  9
$HANDSEED
  5
FFFF
  9
$MEASUREMENT
 70
     1
  0
ENDSEC
  0
SECTION
  2
TABLES
  0
TABLE
  2
VPORT
  5
8
330
0
100
AcDbSymbolTable
 70
     4
  0
VPORT
  5
2E
330
8
100
AcDbSymbolTableRecord
100
AcDbViewportTableRecord
  2
*ACTIVE
 70
     0
 10
0.0
 20
0.0
 11
1.0
 21
1.0
 12
210.0
 22
148.5
 13
0.0
 23
0.0
 14
10.0
 24
10.0
 15
10.0
 25
10.0
 16
0.0
 26
0.0
 36
1.0
 17
0.0
 27
0.0
 37
0.0
 40
341.0
 41
1.24
 42
50.0
 43
0.0
 44
0.0
 50
0.0
 51
0.0
 71
     0
 72
   100
 73
     1
 74
     3
 75
     0
 76
     0
 77
     0
 78
     0
  0
ENDTAB
  0
TABLE
  2
LTYPE
  5
5
330
0
100
AcDbSymbolTable
 70
     1
  0
LTYPE
  5
14
330
5
100
AcDbSymbolTableRecord
100
AcDbLinetypeTableRecord
  2
BYBLOCK
 70
     0
  3

 72
    65
 73
     0
 40
0.0
  0
LTYPE
  5
15
330
5
100
AcDbSymbolTableRecord
100
AcDbLinetypeTableRecord
  2
BYLAYER
 70
     0
  3

 72
    65
 73
     0
 40
0.0
  0
LTYPE
  5
16
330
5
100
AcDbSymbolTableRecord
100
AcDbLinetypeTableRecord
  2
CONTINUOUS
 70
     0
  3
Solid line
 72
    65
 73
     0
 40
0.0
  0
ENDTAB
  0
TABLE
  2
LAYER
  5
2
100
AcDbSymbolTable
 70
2
  0
LAYER
  5
50
100
AcDbSymbolTableRecord
100
AcDbLayerTableRecord
  2
0
 70
0
  6
CONTINUOUS
  0
LAYER
  5
51
100
AcDbSymbolTableRecord
100
AcDbLayerTableRecord
  2
Layer_1
 70
0
  6
CONTINUOUS
  0
ENDTAB
  0
TABLE
  2
STYLE
  5
3
330
0
100
AcDbSymbolTable
 70
     1
  0
STYLE
  5
11
330
3
100
AcDbSymbolTableRecord
100
AcDbTextStyleTableRecord
  2
STANDARD
 70
     0
 40
0.0
 41
1.0
 50
0.0
 71
     0
 42
2.5
  3
txt
  4

  0
ENDTAB
  0
TABLE
  2
VIEW
  5
6
330
0
100
AcDbSymbolTable
 70
     0
  0
ENDTAB
  0
TABLE
  2
UCS
  5
7
330
0
100
AcDbSymbolTable
 70
     0
  0
ENDTAB
  0
TABLE
  2
APPID
  5
9
330
0
100
AcDbSymbolTable
 70
     2
  0
APPID
  5
12
330
9
100
AcDbSymbolTableRecord
100
AcDbRegAppTableRecord
  2
ACAD
 70
     0
  0
ENDTAB
  0
TABLE
  2
DIMSTYLE
  5
A
330
0
100
AcDbSymbolTable
 70
     1
  0
DIMSTYLE
105
27
330
A
100
AcDbSymbolTableRecord
100
AcDbDimStyleTableRecord
  2
ISO-25
 70
     0
  3

  4

  5

  6

  7

 40
1.0
 41
2.5
 42
0.625
 43
3.75
 44
1.25
 45
0.0
 46
0.0
 47
0.0
 48
0.0
140
2.5
141
2.5
142
0.0
143
0.03937007874016
144
1.0
145
0.0
146
1.0
147
0.625
 71
     0
 72
     0
 73
     0
 74
     0
 75
     0
 76
     0
 77
     1
 78
     8
170
     0
171
     3
172
     1
173
     0
174
     0
175
     0
176
     0
177
     0
178
     0
270
     2
271
     2
272
     2
273
     2
274
     3
340
11
275
     0
280
     0
281
     0
282
     0
283
     0
284
     8
285
     0
286
     0
287
     3
288
     0
  0
ENDTAB
  0
TABLE
  2
BLOCK_RECORD
  5
1
330
0
100
AcDbSymbolTable
 70
     1
  0
BLOCK_RECORD
  5
1F
330
1
100
AcDbSymbolTableRecord
100
AcDbBlockTableRecord
  2
*MODEL_SPACE
  0
BLOCK_RECORD
  5
1B
330
1
100
AcDbSymbolTableRecord
100
AcDbBlockTableRecord
  2
*PAPER_SPACE
  0
ENDTAB
  0
ENDSEC
  0
SECTION
  2
BLOCKS
  0
BLOCK
  5
20
330
1F
100
AcDbEntity
  8
0
100
AcDbBlockBegin
  2
*MODEL_SPACE
 70
     0
 10
0.0
 20
0.0
 30
0.0
  3
*MODEL_SPACE
  1

  0
ENDBLK
  5
21
330
1F
100
AcDbEntity
  8
0
100
AcDbBlockEnd
  0
BLOCK
  5
1C
330
1B
100
AcDbEntity
 67
     1
  8
0
100
AcDbBlockBegin
  2
*PAPER_SPACE
  1

  0
ENDBLK
  5
1D
330
1B
100
AcDbEntity
 67
     1
  8
0
100
AcDbBlockEnd
  0
ENDSEC
  0
SECTION
  2
ENTITIES
  0
LINE
  5
100
100
AcDbEntity
  8
Layer_1
 62
7
100
AcDbLine
 10
154.589520
 20
216.417748
 30
0.0
 11
196.589530
 21
258.417748
 31
0.0
  0
LINE
  5
101
100
AcDbEntity
  8
Layer_1
 62
7
100
AcDbLine
 10
196.589530
 20
258.417748
 30
0.0
 11
204.589520
 21
258.417748
 31
0.0
  0
LINE
  5
102
100
AcDbEntity
  8
Layer_1
 62
7
100
AcDbLine
 10
204.589520
 20
258.417748
 30
0.0
 11
204.589520
 21
266.417748
 31
0.0
  0
LINE
  5
103
100
AcDbEntity
  8
Layer_1
 62
7
100
AcDbLine
 10
204.589520
 20
266.417748
 30
0.0
 11
196.589530
 21
266.417748
 31
0.0
  0
LINE
  5
104
100
AcDbEntity
  8
Layer_1
 62
7
100
AcDbLine
 10
196.589530
 20
266.417748
 30
0.0
 11
196.589530
 21
276.417758
 31
0.0
  0
LINE
  5
105
100
AcDbEntity
  8
Layer_1
 62
7
100
AcDbLine
 10
196.589530
 20
276.417758
 30
0.0
 11
186.589520
 21
276.417758
 31
0.0
  0
LINE
  5
106
100
AcDbEntity
  8
Layer_1
 62
7
100
AcDbLine
 10
186.589520
 20
276.417758
 30
0.0
 11
186.589520
 21
268.417758
 31
0.0
  0
LINE
  5
107
100
AcDbEntity
  8
Layer_1
 62
7
100
AcDbLine
 10
186.589520
 20
268.417758
 30
0.0
 11
154.589520
 21
236.417748
 31
0.0
  0
LINE
  5
108
100
AcDbEntity
  8
Layer_1
 62
7
100
AcDbLine
 10
154.589520
 20
236.417748
 30
0.0
 11
54.589530
 21
236.417748
 31
0.0
  0
LINE
  5
109
100
AcDbEntity
  8
Layer_1
 62
7
100
AcDbLine
 10
54.589530
 20
236.417748
 30
0.0
 11
22.589530
 21
268.417758
 31
0.0
  0
LINE
  5
10a
100
AcDbEntity
  8
Layer_1
 62
7
100
AcDbLine
 10
22.589530
 20
268.417758
 30
0.0
 11
22.589530
 21
276.417758
 31
0.0
  0
LINE
  5
10b
100
AcDbEntity
  8
Layer_1
 62
7
100
AcDbLine
 10
22.589530
 20
276.417758
 30
0.0
 11
12.589520
 21
276.417758
 31
0.0
  0
LINE
  5
10c
100
AcDbEntity
  8
Layer_1
 62
7
100
AcDbLine
 10
12.589520
 20
276.417758
 30
0.0
 11
12.589520
 21
266.417748
 31
0.0
  0
LINE
  5
10d
100
AcDbEntity
  8
Layer_1
 62
7
100
AcDbLine
 10
12.589520
 20
266.417748
 30
0.0
 11
4.589531
 21
266.417748
 31
0.0
  0
LINE
  5
10e
100
AcDbEntity
  8
Layer_1
 62
7
100
AcDbLine
 10
4.589531
 20
266.417748
 30
0.0
 11
4.589531
 21
258.417748
 31
0.0
  0
LINE
  5
10f
100
AcDbEntity
  8
Layer_1
 62
7
100
AcDbLine
 10
4.589531
 20
258.417748
 30
0.0
 11
12.589520
 21
258.417748
 31
0.0
  0
LINE
  5
110
100
AcDbEntity
  8
Layer_1
 62
7
100
AcDbLine
 10
12.589520
 20
258.417748
 30
0.0
 11
54.589530
 21
216.417748
 31
0.0
  0
LINE
  5
111
100
AcDbEntity
  8
Layer_1
 62
7
100
AcDbLine
 10
54.589530
 20
216.417748
 30
0.0
 11
54.589530
 21
136.417760
 31
0.0
  0
LINE
  5
112
100
AcDbEntity
  8
Layer_1
 62
7
100
AcDbLine
 10
54.589530
 20
136.417760
 30
0.0
 11
12.589520
 21
94.417760
 31
0.0
  0
LINE
  5
113
100
AcDbEntity
  8
Layer_1
 62
7
100
AcDbLine
 10
12.589520
 20
94.417760
 30
0.0
 11
4.589531
 21
94.417760
 31
0.0
  0
LINE
  5
114
100
AcDbEntity
  8
Layer_1
 62
7
100
AcDbLine
 10
4.589531
 20
94.417760
 30
0.0
 11
4.589531
 21
86.417770
 31
0.0
  0
LINE
  5
115
100
AcDbEntity
  8
Layer_1
 62
7
100
AcDbLine
 10
4.589531
 20
86.417770
 30
0.0
 11
12.589520
 21
86.417770
 31
0.0
  0
LINE
  5
116
100
AcDbEntity
  8
Layer_1
 62
7
100
AcDbLine
 10
12.589520
 20
86.417770
 30
0.0
 11
12.589520
 21
76.417760
 31
0.0
  0
LINE
  5
117
100
AcDbEntity
  8
Layer_1
 62
7
100
AcDbLine
 10
12.589520
 20
76.417760
 30
0.0
 11
22.589530
 21
76.417760
 31
0.0
  0
LINE
  5
118
100
AcDbEntity
  8
Layer_1
 62
7
100
AcDbLine
 10
22.589530
 20
76.417760
 30
0.0
 11
22.589530
 21
84.417760
 31
0.0
  0
LINE
  5
119
100
AcDbEntity
  8
Layer_1
 62
7
100
AcDbLine
 10
22.589530
 20
84.417760
 30
0.0
 11
54.589530
 21
116.417760
 31
0.0
  0
LINE
  5
11a
100
AcDbEntity
  8
Layer_1
 62
7
100
AcDbLine
 10
54.589530
 20
116.417760
 30
0.0
 11
154.589520
 21
116.417760
 31
0.0
  0
LINE
  5
11b
100
AcDbEntity
  8
Layer_1
 62
7
100
AcDbLine
 10
154.589520
 20
116.417760
 30
0.0
 11
186.589520
 21
84.417760
 31
0.0
  0
LINE
  5
11c
100
AcDbEntity
  8
Layer_1
 62
7
100
AcDbLine
 10
186.589520
 20
84.417760
 30
0.0
 11
186.589520
 21
76.417760
 31
0.0
  0
LINE
  5
11d
100
AcDbEntity
  8
Layer_1
 62
7
100
AcDbLine
 10
186.589520
 20
76.417760
 30
0.0
 11
196.589530
 21
76.417760
 31
0.0
  0
LINE
  5
11e
100
AcDbEntity
  8
Layer_1
 62
7
100
AcDbLine
 10
196.589530
 20
76.417760
 30
0.0
 11
196.589530
 21
86.417770
 31
0.0
  0
LINE
  5
11f
100
AcDbEntity
  8
Layer_1
 62
7
100
AcDbLine
 10
196.589530
 20
86.417770
 30
0.0
 11
204.589520
 21
86.417770
 31
0.0
  0
LINE
  5
120
100
AcDbEntity
  8
Layer_1
 62
7
100
AcDbLine
 10
204.589520
 20
86.417770
 30
0.0
 11
204.589520
 21
94.417760
 31
0.0
  0
LINE
  5
121
100
AcDbEntity
  8
Layer_1
 62
7
100
AcDbLine
 10
204.589520
 20
94.417760
 30
0.0
 11
196.589530
 21
94.417760
 31
0.0
  0
LINE
  5
122
100
AcDbEntity
  8
Layer_1
 62
7
100
AcDbLine
 10
196.589530
 20
94.417760
 30
0.0
 11
154.589520
 21
136.417760
 31
0.0
  0
LINE
  5
123
100
AcDbEntity
  8
Layer_1
 62
7
100
AcDbLine
 10
154.589520
 20
136.417760
 30
0.0
 11
154.589520
 21
216.417748
 31
0.0
  0
SPLINE
  5
124
100
AcDbEntity
  8
Layer_1
 62
7
100
AcDbSpline
 70
0
 71
3
 72
13
 73
9
 74
7
 40
0.000000
 40
0.000000
 40
0.000000
 40
0.000000
 40
1.945374
 40
3.628704
 40
4.761454
 40
4.963952
 40
5.173616
 40
5.416063
 40
5.416063
 40
5.416063
 40
5.416063
 10
-277.811890
 20
218.289623
 30
0.0
 10
-277.153796
 20
218.408025
 30
0.0
 10
-275.926255
 20
218.628881
 30
0.0
 10
-274.807901
 20
219.801409
 30
0.0
 10
-274.241921
 20
220.730300
 30
0.0
 10
-274.309557
 20
221.250000
 30
0.0
 10
-274.424519
 20
221.446373
 30
0.0
 10
-274.557245
 20
221.522550
 30
0.0
 10
-274.628420
 20
221.563401
 30
0.0
 11
-277.811890
 21
218.289623
 31
0.0
 11
-275.945458
 21
218.838179
 31
0.0
 11
-274.726255
 21
219.998844
 31
0.0
 11
-274.289750
 21
221.044112
 31
0.0
 11
-274.322360
 21
221.243967
 31
0.0
 11
-274.430230
 21
221.423753
 31
0.0
 11
-274.628420
 21
221.563401
 31
0.0
  0
SPLINE
  5
125
100
AcDbEntity
  8
Layer_1
 62
7
100
AcDbSpline
 70
0
 71
3
 72
13
 73
9
 74
7
 40
0.000000
 40
0.000000
 40
0.000000
 40
0.000000
 40
0.761287
 40
1.501131
 40
2.152563
 40
3.929969
 40
6.826957
 40
10.287465
 40
10.287465
 40
10.287465
 40
10.287465
 10
-274.628420
 20
221.563401
 30
0.0
 10
-274.790734
 20
221.366138
 30
0.0
 10
-275.110791
 20
220.977167
 30
0.0
 10
-275.708132
 20
220.576524
 30
0.0
 10
-276.785940
 20
220.241680
 30
0.0
 10
-278.187300
 20
221.929913
 30
0.0
 10
-278.650416
 20
224.499628
 30
0.0
 10
-278.926152
 20
226.618790
 30
0.0
 10
-279.076240
 20
227.772290
 30
0.0
 11
-274.628420
 21
221.563401
 31
0.0
 11
-275.140185
 21
220.999793
 31
0.0
 11
-275.757312
 21
220.591720
 31
0.0
 11
-276.389490
 21
220.434512
 31
0.0
 11
-277.753353
 21
221.574272
 31
0.0
 11
-278.600437
 21
224.344649
 31
0.0
 11
-279.076240
 21
227.772290
 31
0.0
  0
SPLINE
  5
126
100
AcDbEntity
  8
Layer_1
 62
7
100
AcDbSpline
 70
0
 71
3
 72
16
 73
12
 74
10
 40
0.000000
 40
0.000000
 40
0.000000
 40
0.000000
 40
3.024092
 40
5.623644
 40
7.835919
 40
8.596700
 40
9.344615
 40
10.098060
 40
10.380364
 40
10.672769
 40
10.960190
 40
10.960190
 40
10.960190
 40
10.960190
 10
-279.076240
 20
227.772290
 30
0.0
 10
-278.307325
 20
228.433020
 30
0.0
 10
-276.877439
 20
229.661722
 30
0.0
 10
-275.386962
 20
231.807207
 30
0.0
 10
-274.705194
 20
233.644806
 30
0.0
 10
-275.039206
 20
234.907483
 30
0.0
 10
-275.682976
 20
235.379484
 30
0.0
 10
-276.277757
 20
235.512234
 30
0.0
 10
-276.720102
 20
235.481659
 30
0.0
 10
-277.005439
 20
235.432425
 30
0.0
 10
-277.182333
 20
235.352759
 30
0.0
 10
-277.270020
 20
235.313268
 30
0.0
 11
-279.076240
 21
227.772290
 31
0.0
 11
-276.873656
 21
229.844428
 31
0.0
 11
-275.408611
 21
231.991826
 31
0.0
 11
-274.876780
 21
234.139223
 31
0.0
 11
-275.115101
 21
234.861712
 31
0.0
 11
-275.699613
 21
235.328320
 31
0.0
 11
-276.434640
 21
235.493890
 31
0.0
 11
-276.716449
 21
235.477165
 31
0.0
 11
-277.003271
 21
235.420301
 31
0.0
 11
-277.270020
 21
235.313268
 31
0.0
  0
LINE
  5
127
100
AcDbEntity
  8
Layer_1
 62
7
100
AcDbLine
 10
-281.898470
 20
227.411045
 30
0.0
 11
-282.440330
 21
227.230423
 31
0.0
  0
LINE
  5
128
100
AcDbEntity
  8
Layer_1
 62
7
100
AcDbLine
 10
-282.440330
 20
227.230423
 30
0.0
 11
-280.972780
 21
234.161801
 31
0.0
  0
LINE
  5
129
100
AcDbEntity
  8
Layer_1
 62
7
100
AcDbLine
 10
-280.972780
 20
234.161801
 30
0.0
 11
-280.769580
 21
234.161801
 31
0.0
  0
SPLINE
  5
12a
100
AcDbEntity
  8
Layer_1
 62
7
100
AcDbSpline
 70
0
 71
3
 72
10
 73
6
 74
4
 40
0.000000
 40
0.000000
 40
0.000000
 40
0.000000
 40
2.874038
 40
6.037422
 40
9.411963
 40
9.411963
 40
9.411963
 40
9.411963
 10
-277.270020
 20
235.313268
 30
0.0
 10
-277.489144
 20
234.383264
 30
0.0
 10
-277.949453
 20
232.429626
 30
0.0
 10
-279.258824
 20
229.478842
 30
0.0
 10
-280.999845
 20
228.114994
 30
0.0
 10
-281.898470
 20
227.411045
 30
0.0
 11
-277.270020
 21
235.313268
 31
0.0
 11
-278.013415
 21
232.537037
 31
0.0
 11
-279.424108
 21
229.705616
 31
0.0
 11
-281.898470
 21
227.411045
 31
0.0
  0
SPLINE
  5
12b
100
AcDbEntity
  8
Layer_1
 62
7
100
AcDbSpline
 70
0
 71
3
 72
13
 73
9
 74
7
 40
0.000000
 40
0.000000
 40
0.000000
 40
0.000000
 40
0.455507
 40
0.877725
 40
1.306116
 40
1.530807
 40
1.757431
 40
2.001461
 40
2.001461
 40
2.001461
 40
2.001461
 10
-280.769580
 20
234.161801
 30
0.0
 10
-280.614172
 20
234.187810
 30
0.0
 10
-280.314712
 20
234.237926
 30
0.0
 10
-280.037919
 20
234.616017
 30
0.0
 10
-279.961909
 20
234.974296
 30
0.0
 10
-279.999402
 20
235.267929
 30
0.0
 10
-280.102411
 20
235.484382
 30
0.0
 10
-280.229530
 20
235.579855
 30
0.0
 10
-280.295440
 20
235.629357
 30
0.0
 11
-280.769580
 21
234.161801
 31
0.0
 11
-280.333910
 21
234.294759
 31
0.0
 11
-280.068827
 21
234.623391
 31
0.0
 11
-279.979350
 21
235.042334
 31
0.0
 11
-280.011124
 21
235.264767
 31
0.0
 11
-280.113140
 21
235.467131
 31
0.0
 11
-280.295440
 21
235.629357
 31
0.0
  0
SPLINE
  5
12c
100
AcDbEntity
  8
Layer_1
 62
7
100
AcDbSpline
 70
0
 71
3
 72
19
 73
15
 74
13
 40
0.000000
 40
0.000000
 40
0.000000
 40
0.000000
 40
1.256254
 40
2.951807
 40
4.819180
 40
7.026467
 40
8.698611
 40
10.170804
 40
11.250895
 40
12.251644
 40
13.283702
 40
13.601492
 40
13.931738
 40
14.287820
 40
14.287820
 40
14.287820
 40
14.287820
 10
-280.295440
 20
235.629357
 30
0.0
 10
-280.713722
 20
235.559066
 30
0.0
 10
-281.696554
 20
235.393904
 30
0.0
 10
-283.258763
 20
235.909471
 30
0.0
 10
-285.158403
 20
236.185942
 30
0.0
 10
-287.136637
 20
235.865367
 30
0.0
 10
-288.528264
 20
234.592137
 30
0.0
 10
-288.901681
 20
233.163073
 30
0.0
 10
-288.675710
 20
231.971513
 30
0.0
 10
-288.024391
 20
231.095227
 30
0.0
 10
-287.214913
 20
230.859120
 30
0.0
 10
-286.656629
 20
230.904659
 30
0.0
 10
-286.327964
 20
230.977720
 30
0.0
 10
-286.117048
 20
231.067316
 30
0.0
 10
-286.007620
 20
231.113801
 30
0.0
 11
-280.295440
 21
235.629357
 31
0.0
 11
-281.545583
 21
235.505597
 31
0.0
 11
-283.207140
 21
235.843427
 31
0.0
 11
-285.059350
 21
236.080912
 31
0.0
 11
-287.215113
 21
235.606779
 31
0.0
 11
-288.427627
 21
234.455312
 31
0.0
 11
-288.807270
 21
233.032912
 31
0.0
 11
-288.589017
 21
231.975101
 31
0.0
 11
-287.964363
 21
231.193241
 31
0.0
 11
-286.978470
 21
230.888023
 31
0.0
 11
-286.661544
 21
230.911436
 31
0.0
 11
-286.339600
 21
230.985022
 31
0.0
 11
-286.007620
 21
231.113801
 31
0.0
  0
LINE
  5
12d
100
AcDbEntity
  8
Layer_1
 62
7
100
AcDbLine
 10
-283.659530
 20
234.635934
 30
0.0
 11
-283.546640
 21
234.635934
 31
0.0
  0
LINE
  5
12e
100
AcDbEntity
  8
Layer_1
 62
7
100
AcDbLine
 10
-283.546640
 20
234.635934
 30
0.0
 11
-287.181670
 21
218.583134
 31
0.0
  0
SPLINE
  5
12f
100
AcDbEntity
  8
Layer_1
 62
7
100
AcDbSpline
 70
0
 71
3
 72
13
 73
9
 74
7
 40
0.000000
 40
0.000000
 40
0.000000
 40
0.000000
 40
0.439327
 40
0.915887
 40
1.409197
 40
2.488589
 40
3.706257
 40
5.379694
 40
5.379694
 40
5.379694
 40
5.379694
 10
-286.007620
 20
231.113801
 30
0.0
 10
-286.093063
 20
231.233578
 30
0.0
 10
-286.271190
 20
231.483285
 30
0.0
 10
-286.419245
 20
231.936191
 30
0.0
 10
-286.501792
 20
232.616535
 30
0.0
 10
-286.271501
 20
233.567319
 30
0.0
 10
-285.215838
 20
234.516099
 30
0.0
 10
-284.230099
 20
234.592001
 30
0.0
 10
-283.659530
 20
234.635934
 30
0.0
 11
-286.007620
 21
231.113801
 31
0.0
 11
-286.245104
 21
231.483408
 31
0.0
 11
-286.402316
 21
231.933291
 31
0.0
 11
-286.459180
 21
232.423312
 31
0.0
 11
-286.189918
 21
233.468580
 31
0.0
 11
-285.298512
 21
234.298104
 31
0.0
 11
-283.659530
 21
234.635934
 31
0.0
  0
LINE
  5
130
100
AcDbEntity
  8
Layer_1
 62
7
100
AcDbLine
 10
-284.043350
 20
219.734601
 30
0.0
 11
-282.711270
 21
226.033801
 31
0.0
  0
LINE
  5
131
100
AcDbEntity
  8
Layer_1
 62
7
100
AcDbLine
 10
-282.711270
 20
226.033801
 30
0.0
 11
-281.559800
 21
226.191845
 31
0.0
  0
SPLINE
  5
132
100
AcDbEntity
  8
Layer_1
 62
7
100
AcDbSpline
 70
0
 71
3
 72
13
 73
9
 74
7
 40
0.000000
 40
0.000000
 40
0.000000
 40
0.000000
 40
0.342947
 40
0.760944
 40
1.248115
 40
2.084222
 40
2.921020
 40
3.864924
 40
3.864924
 40
3.864924
 40
3.864924
 10
-287.181670
 20
218.583134
 30
0.0
 10
-287.081969
 20
218.526022
 30
0.0
 10
-286.860750
 20
218.399299
 30
0.0
 10
-286.448480
 20
218.312290
 30
0.0
 10
-285.869280
 20
218.267291
 30
0.0
 10
-285.147081
 20
218.371823
 30
0.0
 10
-284.354988
 20
218.853173
 30
0.0
 10
-284.151313
 20
219.429242
 30
0.0
 10
-284.043350
 20
219.734601
 30
0.0
 11
-287.181670
 21
218.583134
 31
0.0
 11
-286.876448
 21
218.426762
 31
0.0
 11
-286.470882
 21
218.325580
 31
0.0
 11
-285.985040
 21
218.289623
 31
0.0
 11
-285.160537
 21
218.428434
 31
0.0
 11
-284.461460
 21
218.888352
 31
0.0
 11
-284.043350
 21
219.734601
 31
0.0
  0
LINE
  5
133
100
AcDbEntity
  8
Layer_1
 62
7
100
AcDbLine
 10
-277.811890
 20
218.289623
 30
0.0
 11
-277.811890
 21
218.289623
 31
0.0
  0
SPLINE
  5
134
100
AcDbEntity
  8
Layer_1
 62
7
100
AcDbSpline
 70
0
 71
3
 72
10
 73
6
 74
4
 40
0.000000
 40
0.000000
 40
0.000000
 40
0.000000
 40
3.660575
 40
6.895597
 40
9.315560
 40
9.315560
 40
9.315560
 40
9.315560
 10
-281.559800
 20
226.191845
 30
0.0
 10
-281.415599
 20
225.004724
 30
0.0
 10
-281.143961
 20
222.768489
 30
0.0
 10
-280.381483
 20
219.446461
 30
0.0
 10
-278.581965
 20
218.636313
 30
0.0
 10
-277.811890
 20
218.289623
 30
0.0
 11
-281.559800
 21
226.191845
 31
0.0
 11
-281.044693
 21
222.567694
 31
0.0
 11
-279.877337
 21
219.550634
 31
0.0
 11
-277.811890
 21
218.289623
 31
0.0
  0
SPLINE
  5
135
100
AcDbEntity
  8
Layer_1
 62
7
100
AcDbSpline
 70
0
 71
3
 72
16
 73
12
 74
10
 40
0.000000
 40
0.000000
 40
0.000000
 40
0.000000
 40
3.097275
 40
6.657085
 40
10.534788
 40
12.173882
 40
13.896158
 40
15.790952
 40
17.076286
 40
18.482919
 40
20.048518
 40
20.048518
 40
20.048518
 40
20.048518
 10
-269.183650
 20
229.962334
 30
0.0
 10
-270.212598
 20
229.678025
 30
0.0
 10
-272.424155
 20
229.066951
 30
0.0
 10
-274.337832
 20
225.819619
 30
0.0
 10
-275.003680
 20
222.829998
 30
0.0
 10
-274.752148
 20
220.419157
 30
0.0
 10
-273.966626
 20
218.735966
 30
0.0
 10
-272.241040
 20
218.126691
 30
0.0
 10
-270.726146
 20
218.526340
 30
0.0
 10
-269.554755
 20
219.376233
 30
0.0
 10
-268.941976
 20
220.158124
 30
0.0
 10
-268.619200
 20
220.569979
 30
0.0
 11
-269.183650
 21
229.962334
 31
0.0
 11
-272.053536
 21
228.797488
 31
0.0
 11
-274.095571
 21
225.881610
 31
0.0
 11
-274.873250
 21
222.082690
 31
0.0
 11
-274.663361
 21
220.457090
 31
0.0
 11
-273.826312
 21
218.951905
 31
0.0
 11
-272.051030
 21
218.289623
 31
0.0
 11
-270.800050
 21
218.584807
 31
0.0
 11
-269.644400
 21
219.386736
 31
0.0
 11
-268.619200
 21
220.569979
 31
0.0
  0
SPLINE
  5
136
100
AcDbEntity
  8
Layer_1
 62
7
100
AcDbSpline
 70
0
 71
3
 72
13
 73
9
 74
7
 40
0.000000
 40
0.000000
 40
0.000000
 40
0.000000
 40
1.415764
 40
2.465009
 40
3.504456
 40
4.859937
 40
6.454982
 40
8.100354
 40
8.100354
 40
8.100354
 40
8.100354
 10
-268.619200
 20
220.569979
 30
0.0
 10
-268.587183
 20
220.079502
 30
0.0
 10
-268.531437
 20
219.225526
 30
0.0
 10
-267.579599
 20
218.388531
 30
0.0
 10
-266.405992
 20
218.208071
 30
0.0
 10
-265.097602
 20
218.573824
 30
0.0
 10
-263.772082
 20
219.374030
 30
0.0
 10
-263.003685
 20
220.137274
 30
0.0
 10
-262.613520
 20
220.524823
 30
0.0
 11
-268.619200
 21
220.569979
 31
0.0
 11
-268.320683
 21
219.186044
 31
0.0
 11
-267.540493
 21
218.484461
 31
0.0
 11
-266.519470
 21
218.289623
 31
0.0
 11
-265.200761
 21
218.603203
 31
0.0
 11
-263.826863
 21
219.413495
 31
0.0
 11
-262.613520
 21
220.524823
 31
0.0
  0
SPLINE
  5
137
100
AcDbEntity
  8
Layer_1
 62
7
100
AcDbSpline
 70
0
 71
3
 72
13
 73
9
 74
7
 40
0.000000
 40
0.000000
 40
0.000000
 40
0.000000
 40
0.199015
 40
0.381004
 40
0.546449
 40
0.766697
 40
0.993106
 40
1.245673
 40
1.245673
 40
1.245673
 40
1.245673
 10
-262.613520
 20
220.524823
 30
0.0
 10
-262.573177
 20
220.577819
 30
0.0
 10
-262.495943
 20
220.679277
 30
0.0
 10
-262.427949
 20
220.850604
 30
0.0
 10
-262.399039
 20
221.039578
 30
0.0
 10
-262.441093
 20
221.245058
 30
0.0
 10
-262.579063
 20
221.443007
 30
0.0
 10
-262.719884
 20
221.521835
 30
0.0
 10
-262.794140
 20
221.563401
 30
0.0
 11
-262.613520
 21
220.524823
 31
0.0
 11
-262.500630
 21
220.688721
 31
0.0
 11
-262.432897
 21
220.857636
 31
0.0
 11
-262.410320
 21
221.021534
 31
0.0
 11
-262.454638
 21
221.237277
 31
0.0
 11
-262.584249
 21
221.422917
 31
0.0
 11
-262.794140
 21
221.563401
 31
0.0
  0
LINE
  5
138
100
AcDbEntity
  8
Layer_1
 62
7
100
AcDbLine
 10
-265.842140
 20
222.105268
 30
0.0
 11
-264.261690
 21
229.578512
 31
0.0
  0
SPLINE
  5
139
100
AcDbEntity
  8
Layer_1
 62
7
100
AcDbSpline
 70
0
 71
3
 72
13
 73
9
 74
7
 40
0.000000
 40
0.000000
 40
0.000000
 40
0.000000
 40
0.870412
 40
1.800096
 40
2.676658
 40
3.196166
 40
3.778829
 40
4.776766
 40
4.776766
 40
4.776766
 40
4.776766
 10
-262.794140
 20
221.563401
 30
0.0
 10
-263.013598
 20
221.372132
 30
0.0
 10
-263.467457
 20
220.976569
 30
0.0
 10
-264.278851
 20
220.580883
 30
0.0
 10
-265.029494
 20
220.376683
 30
0.0
 10
-265.740277
 20
220.523568
 30
0.0
 10
-266.013731
 20
221.261140
 30
0.0
 10
-265.908549
 20
221.778577
 30
0.0
 10
-265.842140
 20
222.105268
 30
0.0
 11
-262.794140
 21
221.563401
 31
0.0
 11
-263.473980
 21
221.019862
 31
0.0
 11
-264.304340
 21
220.601755
 31
0.0
 11
-265.164800
 21
220.434512
 31
0.0
 11
-265.661516
 21
220.586703
 31
0.0
 11
-265.917398
 21
221.110173
 31
0.0
 11
-265.842140
 21
222.105268
 31
0.0
  0
SPLINE
  5
13a
100
AcDbEntity
  8
Layer_1
 62
7
100
AcDbSpline
 70
0
 71
3
 72
13
 73
9
 74
7
 40
0.000000
 40
0.000000
 40
0.000000
 40
0.000000
 40
0.342947
 40
0.717290
 40
1.114450
 40
1.682314
 40
2.252828
 40
2.830451
 40
2.830451
 40
2.830451
 40
2.830451
 10
-264.261690
 20
229.578512
 30
0.0
 10
-264.361542
 20
229.634994
 30
0.0
 10
-264.570387
 20
229.753127
 30
0.0
 10
-264.933379
 20
229.847819
 30
0.0
 10
-265.379759
 20
229.889251
 30
0.0
 10
-265.891354
 20
229.824513
 30
0.0
 10
-266.438754
 20
229.618850
 30
0.0
 10
-266.717769
 20
229.351680
 30
0.0
 10
-266.858140
 20
229.217268
 30
0.0
 11
-264.261690
 21
229.578512
 31
0.0
 11
-264.566912
 21
229.734884
 31
0.0
 11
-264.927321
 21
229.836066
 31
0.0
 11
-265.322850
 21
229.872023
 31
0.0
 11
-265.886457
 21
229.802617
 31
0.0
 11
-266.414946
 21
229.587710
 31
0.0
 11
-266.858140
 21
229.217268
 31
0.0
  0
LINE
  5
13b
100
AcDbEntity
  8
Layer_1
 62
7
100
AcDbLine
 10
-269.183650
 20
229.962334
 30
0.0
 11
-269.183650
 21
229.962334
 31
0.0
  0
SPLINE
  5
13c
100
AcDbEntity
  8
Layer_1
 62
7
100
AcDbSpline
 70
0
 71
3
 72
10
 73
6
 74
4
 40
0.000000
 40
0.000000
 40
0.000000
 40
0.000000
 40
0.752138
 40
1.559754
 40
2.492470
 40
2.492470
 40
2.492470
 40
2.492470
 10
-266.858140
 20
229.217268
 30
0.0
 10
-267.060637
 20
229.367595
 30
0.0
 10
-267.480568
 20
229.679337
 30
0.0
 10
-268.292512
 20
229.922852
 30
0.0
 10
-268.872702
 20
229.948557
 30
0.0
 10
-269.183650
 20
229.962334
 30
0.0
 11
-266.858140
 21
229.217268
 31
0.0
 11
-267.486134
 21
229.631194
 31
0.0
 11
-268.254616
 21
229.879549
 31
0.0
 11
-269.183650
 21
229.962334
 31
0.0
  0
LINE
  5
13d
100
AcDbEntity
  8
Layer_1
 62
7
100
AcDbLine
 10
-267.309690
 20
228.088379
 30
0.0
 11
-268.574050
 21
222.037534
 31
0.0
  0
SPLINE
  5
13e
100
AcDbEntity
  8
Layer_1
 62
7
100
AcDbSpline
 70
0
 71
3
 72
19
 73
15
 74
13
 40
0.000000
 40
0.000000
 40
0.000000
 40
0.000000
 40
1.019752
 40
1.964373
 40
2.762504
 40
3.412454
 40
4.097308
 40
5.034345
 40
7.714331
 40
10.347053
 40
12.746887
 40
13.087638
 40
13.442596
 40
13.828195
 40
13.828195
 40
13.828195
 40
13.828195
 10
-268.574050
 20
222.037534
 30
0.0
 10
-268.795636
 20
221.777392
 30
0.0
 10
-269.222484
 20
221.276273
 30
0.0
 10
-270.014927
 20
220.782254
 30
0.0
 10
-270.797621
 20
220.551609
 30
0.0
 10
-271.535617
 20
220.723274
 30
0.0
 10
-272.020347
 20
221.374567
 30
0.0
 10
-272.142485
 20
222.835181
 30
0.0
 10
-271.820478
 20
224.888553
 30
0.0
 10
-270.867877
 20
227.384333
 30
0.0
 10
-269.056770
 20
228.316738
 30
0.0
 10
-268.025340
 20
228.257248
 30
0.0
 10
-267.667876
 20
228.202481
 30
0.0
 10
-267.432334
 20
228.127448
 30
0.0
 10
-267.309690
 20
228.088379
 30
0.0
 11
-268.574050
 21
222.037534
 31
0.0
 11
-269.275634
 21
221.297485
 31
0.0
 11
-270.077563
 21
220.798265
 31
0.0
 11
-270.854400
 21
220.615134
 31
0.0
 11
-271.481564
 21
220.785722
 31
0.0
 11
-271.913049
 21
221.317554
 31
0.0
 11
-272.073600
 21
222.240734
 31
0.0
 11
-271.720719
 21
224.897386
 31
0.0
 11
-270.545004
 21
227.253001
 31
0.0
 11
-268.370850
 21
228.269001
 31
0.0
 11
-268.030510
 21
228.252276
 31
0.0
 11
-267.680137
 21
228.195412
 31
0.0
 11
-267.309690
 21
228.088379
 31
0.0
  0
LINE
  5
13f
100
AcDbEntity
  8
Layer_1
 62
7
100
AcDbLine
 10
-256.914040
 20
229.759134
 30
0.0
 11
-258.562220
 21
229.759134
 31
0.0
  0
LINE
  5
140
100
AcDbEntity
  8
Layer_1
 62
7
100
AcDbLine
 10
-258.562220
 20
229.759134
 30
0.0
 11
-257.930040
 21
232.739401
 31
0.0
  0
SPLINE
  5
141
100
AcDbEntity
  8
Layer_1
 62
7
100
AcDbSpline
 70
0
 71
3
 72
10
 73
6
 74
4
 40
0.000000
 40
0.000000
 40
0.000000
 40
0.000000
 40
0.608900
 40
1.180924
 40
1.842751
 40
1.842751
 40
1.842751
 40
1.842751
 10
-257.862310
 20
228.449623
 30
0.0
 10
-257.653470
 20
228.482289
 30
0.0
 10
-257.248438
 20
228.545643
 30
0.0
 10
-256.877658
 20
229.119642
 30
0.0
 10
-256.901338
 20
229.535872
 30
0.0
 10
-256.914040
 20
229.759134
 30
0.0
 11
-257.862310
 21
228.449623
 31
0.0
 11
-257.280300
 21
228.628573
 31
0.0
 11
-256.954177
 21
229.098525
 31
0.0
 11
-256.914040
 21
229.759134
 31
0.0
  0
LINE
  5
142
100
AcDbEntity
  8
Layer_1
 62
7
100
AcDbLine
 10
-260.887730
 20
231.610512
 30
0.0
 11
-261.294130
 21
229.759134
 31
0.0
  0
LINE
  5
143
100
AcDbEntity
  8
Layer_1
 62
7
100
AcDbLine
 10
-261.294130
 20
229.759134
 30
0.0
 11
-261.745680
 21
229.759134
 31
0.0
  0
SPLINE
  5
144
100
AcDbEntity
  8
Layer_1
 62
7
100
AcDbSpline
 70
0
 71
3
 72
13
 73
9
 74
7
 40
0.000000
 40
0.000000
 40
0.000000
 40
0.000000
 40
0.342941
 40
0.717281
 40
1.114441
 40
1.928978
 40
2.748600
 40
3.675296
 40
3.675296
 40
3.675296
 40
3.675296
 10
-257.930040
 20
232.739401
 30
0.0
 10
-258.029886
 20
232.795862
 30
0.0
 10
-258.238721
 20
232.913952
 30
0.0
 10
-258.601765
 20
233.009003
 30
0.0
 10
-259.130051
 20
233.056064
 30
0.0
 10
-259.809176
 20
232.948316
 30
0.0
 10
-260.580066
 20
232.474088
 30
0.0
 10
-260.781067
 20
231.909901
 30
0.0
 10
-260.887730
 20
231.610512
 30
0.0
 11
-257.930040
 21
232.739401
 31
0.0
 11
-258.235255
 21
232.895773
 31
0.0
 11
-258.595661
 21
232.996955
 31
0.0
 11
-258.991190
 21
233.032912
 31
0.0
 11
-259.793957
 21
232.894937
 31
0.0
 11
-260.476310
 21
232.440873
 31
0.0
 11
-260.887730
 21
231.610512
 31
0.0
  0
LINE
  5
145
100
AcDbEntity
  8
Layer_1
 62
7
100
AcDbLine
 10
-262.693950
 20
228.449623
 30
0.0
 11
-261.565060
 21
228.449623
 31
0.0
  0
LINE
  5
146
100
AcDbEntity
  8
Layer_1
 62
7
100
AcDbLine
 10
-261.565060
 20
228.449623
 30
0.0
 11
-263.010040
 21
221.631134
 31
0.0
  0
SPLINE
  5
147
100
AcDbEntity
  8
Layer_1
 62
7
100
AcDbSpline
 70
0
 71
3
 72
10
 73
6
 74
4
 40
0.000000
 40
0.000000
 40
0.000000
 40
0.000000
 40
0.608895
 40
1.180921
 40
1.842748
 40
1.842748
 40
1.842748
 40
1.842748
 10
-261.745680
 20
229.759134
 30
0.0
 10
-261.954518
 20
229.726467
 30
0.0
 10
-262.359548
 20
229.663112
 30
0.0
 10
-262.730330
 20
229.089116
 30
0.0
 10
-262.706651
 20
228.672885
 30
0.0
 10
-262.693950
 20
228.449623
 30
0.0
 11
-261.745680
 21
229.759134
 31
0.0
 11
-262.327686
 21
229.580184
 31
0.0
 11
-262.653811
 21
229.110232
 31
0.0
 11
-262.693950
 21
228.449623
 31
0.0
  0
SPLINE
  5
148
100
AcDbEntity
  8
Layer_1
 62
7
100
AcDbSpline
 70
0
 71
3
 72
13
 73
9
 74
7
 40
0.000000
 40
0.000000
 40
0.000000
 40
0.000000
 40
1.971755
 40
3.216420
 40
4.441536
 40
6.021632
 40
7.720765
 40
9.391585
 40
9.391585
 40
9.391585
 40
9.391585
 10
-263.010040
 20
221.631134
 30
0.0
 10
-263.133129
 20
220.970960
 30
0.0
 10
-263.333918
 20
219.894054
 30
0.0
 10
-262.549289
 20
218.445178
 30
0.0
 10
-261.105672
 20
218.190926
 30
0.0
 10
-259.641171
 20
218.551422
 30
0.0
 10
-258.164577
 20
219.346182
 30
0.0
 10
-257.358729
 20
220.134149
 30
0.0
 10
-256.959190
 20
220.524823
 30
0.0
 11
-263.010040
 21
221.631134
 31
0.0
 11
-263.090317
 21
219.661014
 31
0.0
 11
-262.433053
 21
218.604040
 31
0.0
 11
-261.248970
 21
218.289623
 31
0.0
 11
-259.700303
 21
218.603203
 31
0.0
 11
-258.206824
 21
219.413495
 31
0.0
 11
-256.959190
 21
220.524823
 31
0.0
  0
SPLINE
  5
149
100
AcDbEntity
  8
Layer_1
 62
7
100
AcDbSpline
 70
0
 71
3
 72
13
 73
9
 74
7
 40
0.000000
 40
0.000000
 40
0.000000
 40
0.000000
 40
0.199012
 40
0.381002
 40
0.546448
 40
0.766696
 40
0.993108
 40
1.245677
 40
1.245677
 40
1.245677
 40
1.245677
 10
-256.959190
 20
220.524823
 30
0.0
 10
-256.918849
 20
220.577819
 30
0.0
 10
-256.841618
 20
220.679279
 30
0.0
 10
-256.773621
 20
220.850604
 30
0.0
 10
-256.744708
 20
221.039578
 30
0.0
 10
-256.786766
 20
221.245059
 30
0.0
 10
-256.924741
 20
221.443006
 30
0.0
 10
-257.065563
 20
221.521834
 30
0.0
 10
-257.139820
 20
221.563401
 30
0.0
 11
-256.959190
 21
220.524823
 31
0.0
 11
-256.846304
 21
220.688721
 31
0.0
 11
-256.778569
 21
220.857636
 31
0.0
 11
-256.755990
 21
221.021534
 31
0.0
 11
-256.800310
 21
221.237277
 31
0.0
 11
-256.929926
 21
221.422917
 31
0.0
 11
-257.139820
 21
221.563401
 31
0.0
  0
LINE
  5
14a
100
AcDbEntity
  8
Layer_1
 62
7
100
AcDbLine
 10
-260.187820
 20
222.105268
 30
0.0
 11
-258.855730
 21
228.449623
 31
0.0
  0
LINE
  5
14b
100
AcDbEntity
  8
Layer_1
 62
7
100
AcDbLine
 10
-258.855730
 20
228.449623
 30
0.0
 11
-257.862310
 21
228.449623
 31
0.0
  0
SPLINE
  5
14c
100
AcDbEntity
  8
Layer_1
 62
7
100
AcDbSpline
 70
0
 71
3
 72
13
 73
9
 74
7
 40
0.000000
 40
0.000000
 40
0.000000
 40
0.000000
 40
0.870412
 40
1.800096
 40
2.676658
 40
3.196166
 40
3.778829
 40
4.776766
 40
4.776766
 40
4.776766
 40
4.776766
 10
-257.139820
 20
221.563401
 30
0.0
 10
-257.359278
 20
221.372132
 30
0.0
 10
-257.813137
 20
220.976569
 30
0.0
 10
-258.624531
 20
220.580883
 30
0.0
 10
-259.375174
 20
220.376683
 30
0.0
 10
-260.085957
 20
220.523568
 30
0.0
 10
-260.359411
 20
221.261140
 30
0.0
 10
-260.254229
 20
221.778577
 30
0.0
 10
-260.187820
 20
222.105268
 30
0.0
 11
-257.139820
 21
221.563401
 31
0.0
 11
-257.819660
 21
221.019862
 31
0.0
 11
-258.650020
 21
220.601755
 31
0.0
 11
-259.510480
 21
220.434512
 31
0.0
 11
-260.007196
 21
220.586703
 31
0.0
 11
-260.263078
 21
221.110173
 31
0.0
 11
-260.187820
 21
222.105268
 31
0.0
  0
SPLINE
  5
14d
100
AcDbEntity
  8
Layer_1
 62
7
100
AcDbSpline
 70
0
 71
3
 72
13
 73
9
 74
7
 40
0.000000
 40
0.000000
 40
0.000000
 40
0.000000
 40
2.060946
 40
3.754932
 40
5.474415
 40
6.589693
 40
7.788500
 40
9.129959
 40
9.129959
 40
9.129959
 40
9.129959
 10
-257.186030
 20
222.624556
 30
0.0
 10
-257.302731
 20
221.953801
 30
0.0
 10
-257.515354
 20
220.731722
 30
0.0
 10
-257.098219
 20
218.761431
 30
0.0
 10
-255.449864
 20
218.171224
 30
0.0
 10
-254.124725
 20
218.495279
 30
0.0
 10
-253.089243
 20
219.181871
 30
0.0
 10
-252.534466
 20
219.824317
 30
0.0
 10
-252.241500
 20
220.163579
 30
0.0
 11
-257.186030
 21
222.624556
 31
0.0
 11
-257.385887
 21
220.573323
 31
0.0
 11
-256.858236
 21
218.963612
 31
0.0
 11
-255.266920
 21
218.312201
 31
0.0
 11
-254.176496
 21
218.546341
 31
0.0
 11
-253.166350
 21
219.191898
 31
0.0
 11
-252.241500
 21
220.163579
 31
0.0
  0
SPLINE
  5
14e
100
AcDbEntity
  8
Layer_1
 62
7
100
AcDbSpline
 70
0
 71
3
 72
10
 73
6
 74
4
 40
0.000000
 40
0.000000
 40
0.000000
 40
0.000000
 40
0.618654
 40
1.209126
 40
1.780237
 40
1.780237
 40
1.780237
 40
1.780237
 10
-252.241500
 20
220.163579
 30
0.0
 10
-252.298356
 20
219.965346
 30
0.0
 10
-252.409478
 20
219.577910
 30
0.0
 10
-252.559084
 20
219.003623
 30
0.0
 10
-252.664031
 20
218.630916
 30
0.0
 10
-252.715630
 20
218.447668
 30
0.0
 11
-252.241500
 21
220.163579
 31
0.0
 11
-252.409578
 21
219.568195
 31
0.0
 11
-252.562605
 21
218.997896
 31
0.0
 11
-252.715630
 21
218.447668
 31
0.0
  0
SPLINE
  5
14f
100
AcDbEntity
  8
Layer_1
 62
7
100
AcDbSpline
 70
0
 71
3
 72
16
 73
12
 74
10
 40
0.000000
 40
0.000000
 40
0.000000
 40
0.000000
 40
3.802103
 40
6.859477
 40
9.463927
 40
11.074497
 40
12.459276
 40
13.765249
 40
17.314991
 40
21.176422
 40
25.489412
 40
25.489412
 40
25.489412
 40
25.489412
 10
-252.715630
 20
218.447668
 30
0.0
 10
-253.867836
 20
217.933071
 30
0.0
 10
-255.946561
 20
217.004674
 30
0.0
 10
-258.710715
 20
215.322591
 30
0.0
 10
-259.761000
 20
212.900832
 30
0.0
 10
-259.280792
 20
210.983884
 30
0.0
 10
-258.143963
 20
209.985422
 30
0.0
 10
-256.050498
 20
209.536973
 30
0.0
 10
-253.101545
 20
210.885733
 30
0.0
 10
-251.173138
 20
214.416556
 30
0.0
 10
-250.453648
 20
217.040595
 30
0.0
 10
-250.074030
 20
218.425090
 30
0.0
 11
-252.715630
 21
218.447668
 31
0.0
 11
-256.149124
 21
216.814542
 31
0.0
 11
-258.599232
 21
214.985742
 31
0.0
 11
-259.534120
 21
212.554868
 31
0.0
 11
-259.106814
 21
211.002018
 31
0.0
 11
-258.072416
 21
210.081347
 31
0.0
 11
-256.802210
 21
209.777801
 31
0.0
 11
-253.502507
 21
211.086476
 31
0.0
 11
-251.386886
 21
214.316770
 31
0.0
 11
-250.074030
 21
218.425090
 31
0.0
  0
SPLINE
  5
150
100
AcDbEntity
  8
Layer_1
 62
7
100
AcDbSpline
 70
0
 71
3
 72
10
 73
6
 74
4
 40
0.000000
 40
0.000000
 40
0.000000
 40
0.000000
 40
1.736913
 40
3.216854
 40
4.138749
 40
4.138749
 40
4.138749
 40
4.138749
 10
-250.074030
 20
218.425090
 30
0.0
 10
-249.556635
 20
218.684975
 30
0.0
 10
-248.598393
 20
219.166297
 30
0.0
 10
-247.414269
 20
219.880158
 30
0.0
 10
-246.774776
 20
220.362329
 30
0.0
 10
-246.529320
 20
220.547401
 30
0.0
 11
-250.074030
 21
218.425090
 31
0.0
 11
-248.532889
 21
219.226183
 31
0.0
 11
-247.272714
 21
220.002189
 31
0.0
 11
-246.529320
 21
220.547401
 31
0.0
  0
SPLINE
  5
151
100
AcDbEntity
  8
Layer_1
 62
7
100
AcDbSpline
 70
0
 71
3
 72
10
 73
6
 74
4
 40
0.000000
 40
0.000000
 40
0.000000
 40
0.000000
 40
0.447724
 40
0.851321
 40
1.274901
 40
1.274901
 40
1.274901
 40
1.274901
 10
-246.529320
 20
220.547401
 30
0.0
 10
-246.430109
 20
220.665154
 30
0.0
 10
-246.241465
 20
220.889056
 30
0.0
 10
-246.271051
 20
221.358144
 30
0.0
 10
-246.456801
 20
221.568547
 30
0.0
 10
-246.551920
 20
221.676290
 30
0.0
 11
-246.529320
 21
220.547401
 31
0.0
 11
-246.289328
 21
220.925370
 31
0.0
 11
-246.310239
 21
221.328425
 31
0.0
 11
-246.551920
 21
221.676290
 31
0.0
  0
SPLINE
  5
152
100
AcDbEntity
  8
Layer_1
 62
7
100
AcDbSpline
 70
0
 71
3
 72
10
 73
6
 74
4
 40
0.000000
 40
0.000000
 40
0.000000
 40
0.000000
 40
1.134766
 40
2.420002
 40
3.787004
 40
3.787004
 40
3.787004
 40
3.787004
 10
-246.551920
 20
221.676290
 30
0.0
 10
-246.851559
 20
221.444850
 30
0.0
 10
-247.490569
 20
220.951281
 30
0.0
 10
-248.585842
 20
220.317651
 30
0.0
 10
-249.374206
 20
219.918006
 30
0.0
 10
-249.780540
 20
219.712023
 30
0.0
 11
-246.551920
 21
221.676290
 31
0.0
 11
-247.464227
 21
221.001465
 31
0.0
 11
-248.567193
 21
220.341692
 31
0.0
 11
-249.780540
 21
219.712023
 31
0.0
  0
LINE
  5
153
100
AcDbEntity
  8
Layer_1
 62
7
100
AcDbLine
 10
-249.577340
 20
220.637712
 30
0.0
 11
-247.658230
 21
229.578512
 31
0.0
  0
SPLINE
  5
154
100
AcDbEntity
  8
Layer_1
 62
7
100
AcDbSpline
 70
0
 71
3
 72
10
 73
6
 74
4
 40
0.000000
 40
0.000000
 40
0.000000
 40
0.000000
 40
0.307744
 40
0.625289
 40
0.947738
 40
0.947738
 40
0.947738
 40
0.947738
 10
-249.780540
 20
219.712023
 30
0.0
 10
-249.757808
 20
219.812054
 30
0.0
 10
-249.711619
 20
220.015303
 30
0.0
 10
-249.644603
 20
220.324029
 30
0.0
 10
-249.599875
 20
220.532618
 30
0.0
 10
-249.577340
 20
220.637712
 30
0.0
 11
-249.780540
 21
219.712023
 31
0.0
 11
-249.712821
 21
220.012224
 31
0.0
 11
-249.645079
 21
220.322459
 31
0.0
 11
-249.577340
 21
220.637712
 31
0.0
  0
LINE
  5
155
100
AcDbEntity
  8
Layer_1
 62
7
100
AcDbLine
 10
-250.615920
 20
228.449623
 30
0.0
 11
-252.083470
 21
221.698868
 31
0.0
  0
SPLINE
  5
156
100
AcDbEntity
  8
Layer_1
 62
7
100
AcDbSpline
 70
0
 71
3
 72
13
 73
9
 74
7
 40
0.000000
 40
0.000000
 40
0.000000
 40
0.000000
 40
0.342941
 40
0.717281
 40
1.114441
 40
1.928978
 40
2.748600
 40
3.675296
 40
3.675296
 40
3.675296
 40
3.675296
 10
-247.658230
 20
229.578512
 30
0.0
 10
-247.758076
 20
229.634973
 30
0.0
 10
-247.966911
 20
229.753063
 30
0.0
 10
-248.329955
 20
229.848114
 30
0.0
 10
-248.858241
 20
229.895175
 30
0.0
 10
-249.537366
 20
229.787427
 30
0.0
 10
-250.308256
 20
229.313199
 30
0.0
 10
-250.509257
 20
228.749012
 30
0.0
 10
-250.615920
 20
228.449623
 30
0.0
 11
-247.658230
 21
229.578512
 31
0.0
 11
-247.963445
 21
229.734884
 31
0.0
 11
-248.323851
 21
229.836066
 31
0.0
 11
-248.719380
 21
229.872023
 31
0.0
 11
-249.522147
 21
229.734048
 31
0.0
 11
-250.204500
 21
229.279984
 31
0.0
 11
-250.615920
 21
228.449623
 31
0.0
  0
LINE
  5
157
100
AcDbEntity
  8
Layer_1
 62
7
100
AcDbLine
 10
-254.589610
 20
222.127845
 30
0.0
 11
-253.189780
 21
228.630245
 31
0.0
  0
SPLINE
  5
158
100
AcDbEntity
  8
Layer_1
 62
7
100
AcDbSpline
 70
0
 71
3
 72
13
 73
9
 74
7
 40
0.000000
 40
0.000000
 40
0.000000
 40
0.000000
 40
0.688108
 40
1.329119
 40
1.963429
 40
2.552696
 40
3.055564
 40
3.689646
 40
3.689646
 40
3.689646
 40
3.689646
 10
-252.083470
 20
221.698868
 30
0.0
 10
-252.255687
 20
221.546528
 30
0.0
 10
-252.588335
 20
221.252274
 30
0.0
 10
-253.186454
 20
220.958319
 30
0.0
 10
-253.795801
 20
220.847557
 30
0.0
 10
-254.420063
 20
220.961241
 30
0.0
 10
-254.696433
 20
221.539358
 30
0.0
 10
-254.627856
 20
221.917149
 30
0.0
 10
-254.589610
 20
222.127845
 30
0.0
 11
-252.083470
 21
221.698868
 31
0.0
 11
-252.619485
 21
221.267381
 31
0.0
 11
-253.195638
 21
220.986413
 31
0.0
 11
-253.821960
 21
220.886068
 31
0.0
 11
-254.387243
 21
221.052474
 31
0.0
 11
-254.626401
 21
221.494831
 31
0.0
 11
-254.589610
 21
222.127845
 31
0.0
  0
SPLINE
  5
159
100
AcDbEntity
  8
Layer_1
 62
7
100
AcDbSpline
 70
0
 71
3
 72
13
 73
9
 74
7
 40
0.000000
 40
0.000000
 40
0.000000
 40
0.000000
 40
0.703328
 40
1.264661
 40
1.964456
 40
2.882511
 40
3.803654
 40
4.764103
 40
4.764103
 40
4.764103
 40
4.764103
 10
-253.189780
 20
228.630245
 30
0.0
 10
-253.151476
 20
228.875839
 30
0.0
 10
-253.082600
 20
229.317445
 30
0.0
 10
-253.603144
 20
229.835030
 30
0.0
 10
-254.352373
 20
229.904961
 30
0.0
 10
-255.193329
 20
229.768902
 30
0.0
 10
-256.045260
 20
229.358951
 30
0.0
 10
-256.546417
 20
228.981141
 30
0.0
 10
-256.802230
 20
228.788290
 30
0.0
 11
-253.189780
 21
228.630245
 31
0.0
 11
-253.199816
 21
229.333501
 31
0.0
 11
-253.586150
 21
229.740737
 31
0.0
 11
-254.273520
 21
229.872023
 31
0.0
 11
-255.179971
 21
229.726522
 31
0.0
 11
-256.016185
 21
229.340191
 31
0.0
 11
-256.802230
 21
228.788290
 31
0.0
  0
SPLINE
  5
15a
100
AcDbEntity
  8
Layer_1
 62
7
100
AcDbSpline
 70
0
 71
3
 72
10
 73
6
 74
4
 40
0.000000
 40
0.000000
 40
0.000000
 40
0.000000
 40
0.516130
 40
0.994898
 40
1.391020
 40
1.391020
 40
1.391020
 40
1.391020
 10
-256.802230
 20
228.788290
 30
0.0
 10
-256.912327
 20
228.649949
 30
0.0
 10
-257.124552
 20
228.383282
 30
0.0
 10
-257.086823
 20
227.868430
 30
0.0
 10
-256.890926
 20
227.646840
 30
0.0
 10
-256.802230
 20
227.546512
 30
0.0
 11
-256.802230
 21
228.788290
 31
0.0
 11
-257.068143
 21
228.345932
 31
0.0
 11
-257.033023
 21
227.868454
 31
0.0
 11
-256.802230
 21
227.546512
 31
0.0
  0
LINE
  5
15b
100
AcDbEntity
  8
Layer_1
 62
7
100
AcDbLine
 10
-256.124900
 20
227.253001
 30
0.0
 11
-257.186030
 21
222.624556
 31
0.0
  0
SPLINE
  5
15c
100
AcDbEntity
  8
Layer_1
 62
7
100
AcDbSpline
 70
0
 71
3
 72
13
 73
9
 74
7
 40
0.000000
 40
0.000000
 40
0.000000
 40
0.000000
 40
0.236405
 40
0.409080
 40
0.534826
 40
0.716200
 40
0.925153
 40
1.233209
 40
1.233209
 40
1.233209
 40
1.233209
 10
-256.802230
 20
227.546512
 30
0.0
 10
-256.742674
 20
227.598126
 30
0.0
 10
-256.639616
 20
227.687440
 30
0.0
 10
-256.490683
 20
227.787282
 30
0.0
 10
-256.333758
 20
227.835066
 30
0.0
 10
-256.152116
 20
227.765368
 30
0.0
 10
-256.071471
 20
227.524303
 30
0.0
 10
-256.104951
 20
227.354297
 30
0.0
 10
-256.124900
 20
227.253001
 30
0.0
 11
-256.802230
 21
227.546512
 31
0.0
 11
-256.619934
 21
227.697030
 31
0.0
 11
-256.472759
 21
227.787341
 31
0.0
 11
-256.350670
 21
227.817445
 31
0.0
 11
-256.181755
 21
227.751384
 31
0.0
 11
-256.098135
 21
227.559891
 31
0.0
 11
-256.124900
 21
227.253001
 31
0.0
  0
SPLINE
  5
15d
100
AcDbEntity
  8
Layer_1
 62
7
100
AcDbSpline
 70
0
 71
3
 72
13
 73
9
 74
7
 40
0.000000
 40
0.000000
 40
0.000000
 40
0.000000
 40
0.383575
 40
0.890728
 40
1.540980
 40
3.183559
 40
5.239700
 40
7.927240
 40
7.927240
 40
7.927240
 40
7.927240
 10
-256.779630
 20
211.787223
 30
0.0
 10
-256.906763
 20
211.810562
 30
0.0
 10
-257.201987
 20
211.864758
 30
0.0
 10
-257.610528
 20
212.233668
 30
0.0
 10
-257.823168
 20
213.189288
 30
0.0
 10
-257.151471
 20
214.620910
 30
0.0
 10
-255.381369
 20
215.852684
 30
0.0
 10
-253.967959
 20
216.557959
 30
0.0
 10
-253.167190
 20
216.957534
 30
0.0
 11
-256.779630
 21
211.787223
 31
0.0
 11
-257.150073
 21
211.886732
 31
0.0
 11
-257.530551
 21
212.222054
 31
0.0
 11
-257.705320
 21
212.848379
 31
0.0
 11
-257.125823
 21
214.385340
 31
0.0
 11
-255.537853
 21
215.691506
 31
0.0
 11
-253.167190
 21
216.957534
 31
0.0
  0
LINE
  5
15e
100
AcDbEntity
  8
Layer_1
 62
7
100
AcDbLine
 10
-256.779630
 20
211.787223
 30
0.0
 11
-256.779630
 21
211.787223
 31
0.0
  0
SPLINE
  5
15f
100
AcDbEntity
  8
Layer_1
 62
7
100
AcDbSpline
 70
0
 71
3
 72
10
 73
6
 74
4
 40
0.000000
 40
0.000000
 40
0.000000
 40
0.000000
 40
3.154792
 40
5.184867
 40
6.657634
 40
6.657634
 40
6.657634
 40
6.657634
 10
-253.167190
 20
216.957534
 30
0.0
 10
-253.499622
 20
215.981216
 30
0.0
 10
-254.045971
 20
214.376647
 30
0.0
 10
-255.111088
 20
212.222441
 30
0.0
 10
-256.285746
 20
211.916046
 30
0.0
 10
-256.779630
 20
211.787223
 30
0.0
 11
-253.167190
 21
216.957534
 31
0.0
 11
-254.269315
 21
214.001518
 31
0.0
 11
-255.406565
 21
212.319891
 31
0.0
 11
-256.779630
 21
211.787223
 31
0.0
  0
SPLINE
  5
160
100
AcDbEntity
  8
Layer_1
 62
7
100
AcDbSpline
 70
0
 71
3
 72
16
 73
12
 74
10
 40
0.000000
 40
0.000000
 40
0.000000
 40
0.000000
 40
3.097275
 40
6.657085
 40
10.534788
 40
12.173882
 40
13.896158
 40
15.790952
 40
17.076279
 40
18.482910
 40
20.048509
 40
20.048509
 40
20.048509
 40
20.048509
 10
-241.314200
 20
229.962334
 30
0.0
 10
-242.343148
 20
229.678025
 30
0.0
 10
-244.554705
 20
229.066951
 30
0.0
 10
-246.468382
 20
225.819619
 30
0.0
 10
-247.134230
 20
222.829998
 30
0.0
 10
-246.882698
 20
220.419157
 30
0.0
 10
-246.097176
 20
218.735966
 30
0.0
 10
-244.371592
 20
218.126691
 30
0.0
 10
-242.856701
 20
218.526341
 30
0.0
 10
-241.685314
 20
219.376233
 30
0.0
 10
-241.072536
 20
220.158124
 30
0.0
 10
-240.749760
 20
220.569979
 30
0.0
 11
-241.314200
 21
229.962334
 31
0.0
 11
-244.184086
 21
228.797488
 31
0.0
 11
-246.226121
 21
225.881610
 31
0.0
 11
-247.003800
 21
222.082690
 31
0.0
 11
-246.793911
 21
220.457090
 31
0.0
 11
-245.956862
 21
218.951905
 31
0.0
 11
-244.181580
 21
218.289623
 31
0.0
 11
-242.930607
 21
218.584807
 31
0.0
 11
-241.774960
 21
219.386736
 31
0.0
 11
-240.749760
 21
220.569979
 31
0.0
  0
SPLINE
  5
161
100
AcDbEntity
  8
Layer_1
 62
7
100
AcDbSpline
 70
0
 71
3
 72
13
 73
9
 74
7
 40
0.000000
 40
0.000000
 40
0.000000
 40
0.000000
 40
1.415764
 40
2.465011
 40
3.504454
 40
4.859935
 40
6.454982
 40
8.100360
 40
8.100360
 40
8.100360
 40
8.100360
 10
-240.749760
 20
220.569979
 30
0.0
 10
-240.717742
 20
220.079502
 30
0.0
 10
-240.661995
 20
219.225525
 30
0.0
 10
-239.710156
 20
218.388532
 30
0.0
 10
-238.536551
 20
218.208071
 30
0.0
 10
-237.228161
 20
218.573825
 30
0.0
 10
-235.902639
 20
219.374031
 30
0.0
 10
-235.134238
 20
220.137274
 30
0.0
 10
-234.744070
 20
220.524823
 30
0.0
 11
-240.749760
 21
220.569979
 31
0.0
 11
-240.451241
 21
219.186044
 31
0.0
 11
-239.671049
 21
218.484461
 31
0.0
 11
-238.650030
 21
218.289623
 31
0.0
 11
-237.331320
 21
218.603203
 31
0.0
 11
-235.957420
 21
219.413495
 31
0.0
 11
-234.744070
 21
220.524823
 31
0.0
  0
SPLINE
  5
162
100
AcDbEntity
  8
Layer_1
 62
7
100
AcDbSpline
 70
0
 71
3
 72
13
 73
9
 74
7
 40
0.000000
 40
0.000000
 40
0.000000
 40
0.000000
 40
0.199015
 40
0.381004
 40
0.546449
 40
0.766698
 40
0.993108
 40
1.245671
 40
1.245671
 40
1.245671
 40
1.245671
 10
-234.744070
 20
220.524823
 30
0.0
 10
-234.703727
 20
220.577819
 30
0.0
 10
-234.626493
 20
220.679277
 30
0.0
 10
-234.558499
 20
220.850604
 30
0.0
 10
-234.529589
 20
221.039578
 30
0.0
 10
-234.571645
 20
221.245059
 30
0.0
 10
-234.709617
 20
221.443005
 30
0.0
 10
-234.850436
 20
221.521834
 30
0.0
 10
-234.924690
 20
221.563401
 30
0.0
 11
-234.744070
 21
220.524823
 31
0.0
 11
-234.631180
 21
220.688721
 31
0.0
 11
-234.563447
 21
220.857636
 31
0.0
 11
-234.540870
 21
221.021534
 31
0.0
 11
-234.585190
 21
221.237277
 31
0.0
 11
-234.714803
 21
221.422917
 31
0.0
 11
-234.924690
 21
221.563401
 31
0.0
  0
LINE
  5
163
100
AcDbEntity
  8
Layer_1
 62
7
100
AcDbLine
 10
-237.972690
 20
222.105268
 30
0.0
 11
-236.392250
 21
229.578512
 31
0.0
  0
SPLINE
  5
164
100
AcDbEntity
  8
Layer_1
 62
7
100
AcDbSpline
 70
0
 71
3
 72
13
 73
9
 74
7
 40
0.000000
 40
0.000000
 40
0.000000
 40
0.000000
 40
0.870416
 40
1.800100
 40
2.676667
 40
3.196170
 40
3.778833
 40
4.776770
 40
4.776770
 40
4.776770
 40
4.776770
 10
-234.924690
 20
221.563401
 30
0.0
 10
-235.144149
 20
221.372132
 30
0.0
 10
-235.598011
 20
220.976570
 30
0.0
 10
-236.409407
 20
220.580882
 30
0.0
 10
-237.160051
 20
220.376683
 30
0.0
 10
-237.870833
 20
220.523570
 30
0.0
 10
-238.144287
 20
221.261141
 30
0.0
 10
-238.039101
 20
221.778577
 30
0.0
 10
-237.972690
 20
222.105268
 30
0.0
 11
-234.924690
 21
221.563401
 31
0.0
 11
-235.604535
 21
221.019862
 31
0.0
 11
-236.434895
 21
220.601755
 31
0.0
 11
-237.295360
 21
220.434512
 31
0.0
 11
-237.792071
 21
220.586703
 31
0.0
 11
-238.047953
 21
221.110173
 31
0.0
 11
-237.972690
 21
222.105268
 31
0.0
  0
SPLINE
  5
165
100
AcDbEntity
  8
Layer_1
 62
7
100
AcDbSpline
 70
0
 71
3
 72
13
 73
9
 74
7
 40
0.000000
 40
0.000000
 40
0.000000
 40
0.000000
 40
0.342941
 40
0.717281
 40
1.114441
 40
1.682309
 40
2.252821
 40
2.830442
 40
2.830442
 40
2.830442
 40
2.830442
 10
-236.392250
 20
229.578512
 30
0.0
 10
-236.492100
 20
229.634994
 30
0.0
 10
-236.700941
 20
229.753128
 30
0.0
 10
-237.063931
 20
229.847819
 30
0.0
 10
-237.510311
 20
229.889251
 30
0.0
 10
-238.021907
 20
229.824514
 30
0.0
 10
-238.569307
 20
229.618850
 30
0.0
 10
-238.848320
 20
229.351680
 30
0.0
 10
-238.988690
 20
229.217268
 30
0.0
 11
-236.392250
 21
229.578512
 31
0.0
 11
-236.697465
 21
229.734884
 31
0.0
 11
-237.057871
 21
229.836066
 31
0.0
 11
-237.453400
 21
229.872023
 31
0.0
 11
-238.017011
 21
229.802617
 31
0.0
 11
-238.545499
 21
229.587710
 31
0.0
 11
-238.988690
 21
229.217268
 31
0.0
  0
LINE
  5
166
100
AcDbEntity
  8
Layer_1
 62
7
100
AcDbLine
 10
-241.314200
 20
229.962334
 30
0.0
 11
-241.314200
 21
229.962334
 31
0.0
  0
SPLINE
  5
167
100
AcDbEntity
  8
Layer_1
 62
7
100
AcDbSpline
 70
0
 71
3
 72
10
 73
6
 74
4
 40
0.000000
 40
0.000000
 40
0.000000
 40
0.000000
 40
0.752142
 40
1.559756
 40
2.492469
 40
2.492469
 40
2.492469
 40
2.492469
 10
-238.988690
 20
229.217268
 30
0.0
 10
-239.191189
 20
229.367595
 30
0.0
 10
-239.611121
 20
229.679335
 30
0.0
 10
-240.423064
 20
229.922852
 30
0.0
 10
-241.003253
 20
229.948557
 30
0.0
 10
-241.314200
 20
229.962334
 30
0.0
 11
-238.988690
 21
229.217268
 31
0.0
 11
-239.616689
 21
229.631194
 31
0.0
 11
-240.385168
 21
229.879549
 31
0.0
 11
-241.314200
 21
229.962334
 31
0.0
  0
LINE
  5
168
100
AcDbEntity
  8
Layer_1
 62
7
100
AcDbLine
 10
-239.440250
 20
228.088379
 30
0.0
 11
-240.704600
 21
222.037534
 31
0.0
  0
SPLINE
  5
169
100
AcDbEntity
  8
Layer_1
 62
7
100
AcDbSpline
 70
0
 71
3
 72
19
 73
15
 74
13
 40
0.000000
 40
0.000000
 40
0.000000
 40
0.000000
 40
1.019752
 40
1.964376
 40
2.762514
 40
3.412460
 40
4.097314
 40
5.034352
 40
7.714338
 40
10.347062
 40
12.746899
 40
13.087645
 40
13.442602
 40
13.828197
 40
13.828197
 40
13.828197
 40
13.828197
 10
-240.704600
 20
222.037534
 30
0.0
 10
-240.926187
 20
221.777392
 30
0.0
 10
-241.353035
 20
221.276272
 30
0.0
 10
-242.145482
 20
220.782253
 30
0.0
 10
-242.928177
 20
220.551609
 30
0.0
 10
-243.666174
 20
220.723275
 30
0.0
 10
-244.150905
 20
221.374566
 30
0.0
 10
-244.273047
 20
222.835181
 30
0.0
 10
-243.951035
 20
224.888554
 30
0.0
 10
-242.998430
 20
227.384332
 30
0.0
 10
-241.187322
 20
228.316739
 30
0.0
 10
-240.155893
 20
228.257248
 30
0.0
 10
-239.798433
 20
228.202482
 30
0.0
 10
-239.562892
 20
228.127448
 30
0.0
 10
-239.440250
 20
228.088379
 30
0.0
 11
-240.704600
 21
222.037534
 31
0.0
 11
-241.406184
 21
221.297485
 31
0.0
 11
-242.208116
 21
220.798265
 31
0.0
 11
-242.984960
 21
220.615134
 31
0.0
 11
-243.612120
 21
220.785722
 31
0.0
 11
-244.043607
 21
221.317554
 31
0.0
 11
-244.204160
 21
222.240734
 31
0.0
 11
-243.851276
 21
224.897386
 31
0.0
 11
-242.675557
 21
227.253001
 31
0.0
 11
-240.501400
 21
228.269001
 31
0.0
 11
-240.161065
 21
228.252276
 31
0.0
 11
-239.810692
 21
228.195412
 31
0.0
 11
-239.440250
 21
228.088379
 31
0.0
  0
ENDSEC
  0
SECTION
  2
OBJECTS
  0
DICTIONARY
  5
C
330
0
100
AcDbDictionary
  3
ACAD_GROUP
350
D
  3
ACAD_MLINESTYLE
350
17
  0
DICTIONARY
  5
D
330
C
100
AcDbDictionary
  0
DICTIONARY
  5
1A
330
C
100
AcDbDictionary
  0
DICTIONARY
  5
17
330
C
100
AcDbDictionary
  3
STANDARD
350
18
  0
DICTIONARY
  5
19
330
C
100
AcDbDictionary
  0
ENDSEC
  0
EOF
